<svg width="21" height="22" viewBox="0 0 21 22" fill="none" xmlns="http://www.w3.org/2000/svg">
<path d="M1.99658 5C1.99658 4.46957 2.18622 3.96086 2.52379 3.58579C2.86136 3.21071 3.31919 3 3.79658 3H18.1966C18.674 3 19.1318 3.21071 19.4694 3.58579C19.8069 3.96086 19.9966 4.46957 19.9966 5V17C19.9966 17.5304 19.8069 18.0391 19.4694 18.4142C19.1318 18.7893 18.674 19 18.1966 19H3.79658C3.31919 19 2.86136 18.7893 2.52379 18.4142C2.18622 18.0391 1.99658 17.5304 1.99658 17V5Z" stroke="white" stroke-width="1.33333" stroke-linecap="round" stroke-linejoin="round"/>
<path d="M1.99658 7L8.74748 13.001C9.38584 13.5685 10.179 13.8777 10.9966 13.8777C11.8141 13.8777 12.6073 13.5685 13.2457 13.001L19.9966 7" stroke="white" stroke-width="1.33333" stroke-linejoin="round"/>
</svg>
