<svg id="Слой_1" data-name="Слой 1" xmlns="http://www.w3.org/2000/svg" viewBox="0 0 19.33 17.33"><defs><style>.cls-1,.cls-2{fill:none;stroke:#009fe3;stroke-linejoin:round;stroke-width:1.33px;}.cls-1{stroke-linecap:round;}</style></defs><path class="cls-1" d="M2,5a2.13,2.13,0,0,1,.52-1.41A1.72,1.72,0,0,1,3.8,3H18.2a1.71,1.71,0,0,1,1.27.59A2.09,2.09,0,0,1,20,5V17a2.09,2.09,0,0,1-.53,1.41A1.71,1.71,0,0,1,18.2,19H3.8a1.72,1.72,0,0,1-1.28-.59A2.13,2.13,0,0,1,2,17Z" transform="translate(-1.33 -2.33)"/><path class="cls-2" d="M1.81,6.65l6.75,6a3.34,3.34,0,0,0,4.5,0l6.75-6" transform="translate(-1.33 -2.33)"/></svg>