<svg id="behance" data-name="Слой 1" xmlns="http://www.w3.org/2000/svg" viewBox="0 0 31.56 31.56">
<defs>
<style>
.cls-1{
  fill:#fff;opacity:1;
  }
.cls-2{
    fill:#3C3C3B;
    }

.group:hover .cls-1{
  fill:#009FE3;
}
.group:hover .cls-2 {
  fill:#fff;
}
</style>
</defs>
<g class="group">
<a href="https://www.behance.net/benzavika" aria-label="behance" target="_blank">
<circle class="cls-1" cx="15.78" cy="15.78" r="15.78"/>
<path class="cls-2" d="M12.12,10.41a6.07,6.07,0,0,1,1.58.18,3.3,3.3,0,0,1,1.23.48,2,2,0,0,1,.79.92A3.44,3.44,0,0,1,16,13.4a2.43,2.43,0,0,1-.44,1.53,3.13,3.13,0,0,1-1.23,1A2.85,2.85,0,0,1,16,17.08,3.46,3.46,0,0,1,16.55,19a3.51,3.51,0,0,1-.35,1.58,2.9,2.9,0,0,1-1,1.09,4.41,4.41,0,0,1-1.41.62,6.6,6.6,0,0,1-1.58.21l-5.88,0V10.41Zm-.35,4.92A1.91,1.91,0,0,0,13,15a1.26,1.26,0,0,0,.44-1.09,1.59,1.59,0,0,0-.13-.7,1.26,1.26,0,0,0-.39-.44,2.59,2.59,0,0,0-.57-.22,3.88,3.88,0,0,0-.7,0H9.05v2.85Zm.13,5.18a4.16,4.16,0,0,0,.75-.09,1.35,1.35,0,0,0,.61-.27,1.58,1.58,0,0,0,.44-.48,2,2,0,0,0,.17-.79,1.7,1.7,0,0,0-.52-1.36,2.29,2.29,0,0,0-1.41-.4H9.05V20.5H11.9Z" transform="translate(-0.21 -0.47)"/><path class="cls-2" d="M19.94,20a2.15,2.15,0,0,0,1.58.52,2.39,2.39,0,0,0,1.27-.35,1.77,1.77,0,0,0,.66-.79H25.6A4.34,4.34,0,0,1,24,21.64a4.69,4.69,0,0,1-2.55.7A5.12,5.12,0,0,1,19.59,22a4.06,4.06,0,0,1-2.29-2.42A5.34,5.34,0,0,1,17,17.69a5.1,5.1,0,0,1,.31-1.85,5,5,0,0,1,.92-1.49,4.44,4.44,0,0,1,1.41-1A5.11,5.11,0,0,1,21.47,13a4.07,4.07,0,0,1,2,.44,3.63,3.63,0,0,1,1.36,1.18,5.59,5.59,0,0,1,.79,1.67,9.3,9.3,0,0,1,.09,1.93H19.33A2.56,2.56,0,0,0,19.94,20Zm2.77-4.62a2,2,0,0,0-1.37-.48,2.09,2.09,0,0,0-1,.22,2.16,2.16,0,0,0-.61.48,1.15,1.15,0,0,0-.31.61,2.66,2.66,0,0,0-.09.57h3.95A2.4,2.4,0,0,0,22.71,15.36Zm-3.87-4.6h4.92v1.18H18.84Z" transform="translate(-0.21 -0.47)"/>
</a>
</g>

</svg>

