<svg width="20" height="22" viewBox="0 0 20 22" fill="none" xmlns="http://www.w3.org/2000/svg">
<path fill-rule="evenodd" clip-rule="evenodd" d="M16.9702 2.6589C16.7612 2.44996 16.5132 2.28423 16.2402 2.17115C15.9672 2.05808 15.6746 1.99988 15.3792 1.99988C15.0837 1.99988 14.7911 2.05808 14.5181 2.17115C14.2451 2.28423 13.9971 2.44996 13.7882 2.6589L2.84817 13.5989C2.14495 14.3023 1.74993 15.2562 1.75003 16.2508C1.75012 17.2453 2.14531 18.1992 2.84867 18.9024C3.55202 19.6056 4.50592 20.0006 5.50052 20.0005C6.49512 20.0004 7.44895 19.6053 8.15217 18.9019L15.8452 11.2089C15.9873 11.0764 16.1754 11.0043 16.3697 11.0077C16.564 11.0112 16.7494 11.0899 16.8868 11.2273C17.0242 11.3647 17.1029 11.5501 17.1063 11.7444C17.1098 11.9387 17.0377 12.1267 16.9052 12.2689L9.21217 19.9619C8.72702 20.4598 8.14783 20.8563 7.5082 21.1286C6.86857 21.4008 6.18124 21.5433 5.4861 21.5478C4.79097 21.5523 4.10185 21.4187 3.45876 21.1548C2.81566 20.8908 2.23139 20.5018 1.73984 20.0102C1.24829 19.5187 0.859255 18.9344 0.595309 18.2913C0.331363 17.6482 0.197762 16.9591 0.202258 16.264C0.206754 15.5688 0.349258 14.8815 0.621501 14.2419C0.893743 13.6022 1.2903 13.023 1.78817 12.5379L12.7272 1.5979C13.4305 0.894675 14.3844 0.499662 15.379 0.499756C16.3736 0.49985 17.3274 0.895043 18.0307 1.5984C18.7339 2.30175 19.1289 3.25565 19.1288 4.25025C19.1287 5.24485 18.7335 6.19868 18.0302 6.9019L7.09717 17.8349L7.08917 17.8429L7.08217 17.8499L7.08017 17.8519L7.07717 17.8539C6.64953 18.253 6.08325 18.4699 5.4984 18.4586C4.91354 18.4473 4.35608 18.2087 3.9442 17.7933C3.53232 17.3779 3.29841 16.8184 3.29206 16.2335C3.28571 15.6485 3.50741 15.0841 3.91017 14.6599L11.7202 6.8499C11.8616 6.71321 12.051 6.63752 12.2476 6.63914C12.4443 6.64075 12.6324 6.71954 12.7715 6.85853C12.9107 6.99752 12.9896 7.1856 12.9914 7.38225C12.9932 7.57889 12.9177 7.76838 12.7812 7.9099L4.97117 15.7199C4.82954 15.8597 4.74924 16.05 4.74793 16.2489C4.74662 16.4479 4.8244 16.6393 4.96417 16.7809C5.10394 16.9225 5.29424 17.0028 5.49322 17.0041C5.6922 17.0054 5.88354 16.9277 6.02517 16.7879L16.9702 5.8399C17.1791 5.63096 17.3448 5.38293 17.4579 5.10994C17.571 4.83696 17.6292 4.54437 17.6292 4.2489C17.6292 3.95342 17.571 3.66084 17.4579 3.38785C17.3448 3.11487 17.1791 2.86783 16.9702 2.6589Z" fill="#009FE3"/>
</svg>
