<svg width="19" height="18" viewBox="0 0 19 18" fill="none" xmlns="http://www.w3.org/2000/svg">
<path d="M17.8357 14.6228L13.7617 10.5484C13.6742 10.4619 13.5604 10.4071 13.4383 10.3926C13.3161 10.3781 13.1927 10.4048 13.0874 10.4684C12.3525 10.9131 11.8042 11.6096 11.5446 12.4285C11.4132 12.8399 10.9332 13.0285 10.5618 12.8056L10.5561 12.7999L10.5504 12.7942C8.76582 11.7238 7.27238 10.2302 6.20207 8.44552C6.20207 8.43981 6.19635 8.43409 6.19635 8.43409C5.96779 8.06266 6.15636 7.58264 6.56776 7.45121C7.38823 7.19484 8.08579 6.6457 8.52766 5.90832C8.65908 5.69117 8.62479 5.41688 8.44766 5.23402L4.3736 1.15964C4.28614 1.07317 4.17234 1.01834 4.05021 1.00385C3.92808 0.989358 3.80461 1.01603 3.69935 1.07964C3.20116 1.37855 2.78519 1.79676 2.48893 2.29655C2.19266 2.79634 2.02543 3.36201 2.0023 3.94256V3.94828C1.99658 4.00542 1.99658 4.06257 1.99658 4.11971C1.99658 4.19971 2.0023 4.274 2.00801 4.34829C2.07601 6.6111 2.72327 8.81864 3.88791 10.7599C4.95642 12.5428 6.45348 14.0399 8.23624 15.1085L8.24196 15.1142C10.2076 16.2971 12.4474 16.9429 14.7387 16.9943C14.7845 16.9943 14.8302 17 14.8759 17H15.1959V16.9886C15.7513 16.9415 16.2878 16.7637 16.7615 16.4698C17.2352 16.1758 17.6327 15.774 17.9214 15.2971C18.0471 15.08 18.0129 14.7999 17.8357 14.6228Z" fill="#009FE3"/>
</svg>
