<svg width="33" height="32" viewBox="0 0 33 32" fill="none" xmlns="http://www.w3.org/2000/svg">
<g clip-path="url(#clip0_306_1620)">
<path d="M21.4115 14.704C21.1887 14.7031 20.9681 14.7487 20.764 14.838C20.5599 14.9272 20.3766 15.0581 20.226 15.2223C20.0754 15.3865 19.9607 15.5803 19.8893 15.7914C19.8179 16.0024 19.7914 16.2261 19.8115 16.448H23.1075C23.1288 16.2177 23.0999 15.9857 23.0229 15.7677C22.9459 15.5497 22.8225 15.3509 22.6613 15.1852C22.5001 15.0194 22.3049 14.8906 22.0892 14.8075C21.8734 14.7244 21.6422 14.6891 21.4115 14.704ZM12.9795 16.48H11.0115V19.584H12.6115C14.2115 19.584 14.9155 19.056 14.9155 17.984C14.9155 16.912 14.1795 16.48 12.9795 16.48ZM14.3715 13.632C14.3715 12.784 13.8115 12.272 12.8515 12.272H11.0115V15.056H12.3715C13.7955 15.056 14.3715 14.544 14.3715 13.632Z" fill="white"/>
<path d="M16.9966 0C13.8321 0 10.7386 0.938384 8.10746 2.69649C5.47628 4.45459 3.42552 6.95345 2.21452 9.87706C1.00351 12.8007 0.686661 16.0177 1.30402 19.1214C1.92139 22.2251 3.44524 25.0761 5.68288 27.3137C7.92052 29.5513 10.7714 31.0752 13.8751 31.6926C16.9788 32.3099 20.1959 31.9931 23.1195 30.7821C26.0431 29.5711 28.542 27.5203 30.3001 24.8891C32.0582 22.2579 32.9966 19.1645 32.9966 16C32.9966 13.8988 32.5827 11.8183 31.7787 9.87706C30.9746 7.93585 29.796 6.17203 28.3103 4.68629C26.8246 3.20055 25.0607 2.022 23.1195 1.21793C21.1783 0.413852 19.0977 0 16.9966 0ZM13.3166 21.12H8.99659V10.72H13.3166C15.1886 10.72 16.4206 11.696 16.4206 13.28C16.4427 13.8121 16.2744 14.3348 15.946 14.7541C15.6176 15.1734 15.1505 15.4619 14.6286 15.568C14.9594 15.5757 15.2851 15.6507 15.5858 15.7886C15.8866 15.9265 16.1561 16.1244 16.3777 16.37C16.5994 16.6156 16.7686 16.9039 16.875 17.2172C16.9814 17.5305 17.0228 17.8622 16.9966 18.192C16.9966 20.048 15.3966 21.12 13.3166 21.12ZM18.9966 11.52H23.7966V12.32H18.9966V11.52ZM24.9966 17.68H19.7166V17.904C19.6891 18.1471 19.714 18.3933 19.7897 18.626C19.8653 18.8587 19.99 19.0725 20.1553 19.2529C20.3205 19.4333 20.5226 19.5762 20.7477 19.672C20.9729 19.7677 21.216 19.8141 21.4606 19.808C21.804 19.8614 22.1552 19.7887 22.4492 19.6034C22.7433 19.4182 22.9604 19.1328 23.0606 18.8H24.9966C24.8242 19.568 24.3748 20.2456 23.7342 20.7031C23.0937 21.1606 22.307 21.366 21.5246 21.28C21.0245 21.3305 20.5194 21.2708 20.0449 21.1051C19.5704 20.9394 19.138 20.6718 18.778 20.321C18.4181 19.9702 18.1394 19.5448 17.9615 19.0747C17.7837 18.6046 17.711 18.1012 17.7486 17.6V16.896C17.7146 16.4104 17.7861 15.9231 17.9581 15.4677C18.13 15.0122 18.3985 14.5994 18.745 14.2574C19.0915 13.9154 19.5079 13.6525 19.9656 13.4865C20.4233 13.3206 20.9114 13.2556 21.3966 13.296C21.8801 13.265 22.3647 13.338 22.8177 13.51C23.2707 13.682 23.6816 13.949 24.0227 14.2932C24.3638 14.6373 24.6272 15.0505 24.7952 15.505C24.9632 15.9595 25.0319 16.4447 24.9966 16.928V17.68Z" fill="white"/>
</g>
<defs>
<clipPath id="clip0_306_1620">
<rect width="32" height="32" fill="white" transform="translate(0.996582)"/>
</clipPath>
</defs>
</svg>
