<svg width="33" height="32" viewBox="0 0 33 32" xmlns="http://www.w3.org/2000/svg">
<g clip-path="url(#clip0_306_1633)">
<path d="M16.9966 0C8.16458 0 0.996582 7.168 0.996582 16C0.996582 24.832 8.16458 32 16.9966 32C25.8286 32 32.9966 24.832 32.9966 16C32.9966 7.168 25.8286 0 16.9966 0ZM24.4206 10.88C24.1806 13.408 23.1406 19.552 22.6126 22.384C22.3886 23.584 21.9406 23.984 21.5246 24.032C20.5966 24.112 19.8926 23.424 18.9966 22.832C17.5886 21.904 16.7886 21.328 15.4286 20.432C13.8446 19.392 14.8686 18.816 15.7806 17.888C16.0206 17.648 20.1166 13.92 20.1966 13.584C20.2077 13.5331 20.2062 13.4803 20.1923 13.4301C20.1783 13.3799 20.1523 13.3339 20.1166 13.296C20.0206 13.216 19.8926 13.248 19.7806 13.264C19.6366 13.296 17.3966 14.784 13.0286 17.728C12.3886 18.16 11.8126 18.384 11.3006 18.368C10.7246 18.352 9.63658 18.048 8.82058 17.776C7.81258 17.456 7.02858 17.28 7.09258 16.72C7.12458 16.432 7.52458 16.144 8.27658 15.84C12.9486 13.808 16.0526 12.464 17.6046 11.824C22.0526 9.968 22.9646 9.648 23.5726 9.648C23.7006 9.648 24.0046 9.68 24.1966 9.84C24.3566 9.968 24.4046 10.144 24.4206 10.272C24.4046 10.368 24.4366 10.656 24.4206 10.88Z" fill="blue"/>
</g>
<defs>
<clipPath id="clip0_306_1633">
<rect width="32" height="32" />
</clipPath>
</defs>
</svg>
