<svg id="Слой_1" data-name="instagram" xmlns="http://www.w3.org/2000/svg" viewBox="0 0 31.68 31.68">
<defs>
<style>
.cls-1{
  fill:#fff;
  }
.cls-2{
  fill:#3c3c3b;
  }
.group:hover .cls-1{
  fill:#009FE3;
}
.group:hover .cls-2 {
  fill:#fff;
}
</style>
</defs>
<g class="group">
<a href="https://www.instagram.com/skillnet.by/?igshid=ZGUzMzM3NWJiOQ%3D%3D" aria-label="instagram" target="_blank">
<circle class="cls-1" cx="15.84" cy="15.84" r="15.84"/>
<path class="cls-2" d="M16.21,6.12c-2.74,0-3.08,0-4.16.06a7.43,7.43,0,0,0-2.45.47A5.11,5.11,0,0,0,6.65,9.6a7.43,7.43,0,0,0-.47,2.45c0,1.08-.06,1.42-.06,4.16s0,3.09.06,4.17a7.49,7.49,0,0,0,.47,2.45,5,5,0,0,0,1.16,1.78A4.91,4.91,0,0,0,9.6,25.78a7.43,7.43,0,0,0,2.45.47c1.08.05,1.42.06,4.16.06s3.09,0,4.17-.06a7.49,7.49,0,0,0,2.45-.47,5.26,5.26,0,0,0,3-3,7.49,7.49,0,0,0,.47-2.45c.05-1.08.06-1.42.06-4.17s0-3.08-.06-4.16a7.43,7.43,0,0,0-.47-2.45,4.91,4.91,0,0,0-1.17-1.79,5,5,0,0,0-1.78-1.16,7.5,7.5,0,0,0-2.46-.47c-1.07,0-1.42-.06-4.16-.06Zm-.9,1.82h.9c2.7,0,3,0,4.08.06a5.5,5.5,0,0,1,1.88.34,3.34,3.34,0,0,1,1.91,1.92,5.36,5.36,0,0,1,.35,1.87c.05,1.07.06,1.39.06,4.08s0,3-.06,4.08a5.36,5.36,0,0,1-.35,1.87,3.34,3.34,0,0,1-1.91,1.92,5.69,5.69,0,0,1-1.88.35c-1.06.05-1.38.06-4.08.06s-3,0-4.07-.06a5.69,5.69,0,0,1-1.88-.35,3,3,0,0,1-1.16-.76,3.25,3.25,0,0,1-.76-1.16A5.69,5.69,0,0,1,8,20.29c0-1.07-.06-1.38-.06-4.08s0-3,.06-4.08a5.69,5.69,0,0,1,.34-1.87A3.29,3.29,0,0,1,9.1,9.09a3.1,3.1,0,0,1,1.16-.75A5.69,5.69,0,0,1,12.14,8c.93,0,1.29,0,3.17-.06ZM21.6,9.61a1.22,1.22,0,1,0,1.22,1.21A1.21,1.21,0,0,0,21.6,9.61ZM16.21,11a5.19,5.19,0,1,0,5.19,5.18A5.18,5.18,0,0,0,16.21,11Zm0,1.82a3.37,3.37,0,1,1-3.36,3.36A3.37,3.37,0,0,1,16.21,12.85Z" transform="translate(-0.16 -0.16)"/>
</a>
</g>
</svg>
