<svg width="33" height="32" viewBox="0 0 33 32" fill="none" xmlns="http://www.w3.org/2000/svg">
<g clip-path="url(#clip0_306_1629)">
<path d="M16.9965 18.8C15.4965 18.8 14.1965 17.6 14.1965 16C14.1965 14.5 15.3965 13.2 16.9965 13.2C18.4965 13.2 19.7965 14.4 19.7965 16C19.7965 17.5 18.4965 18.8 16.9965 18.8Z" fill="white"/>
<path fill-rule="evenodd" clip-rule="evenodd" d="M20.3965 9.19995H13.5965C12.7965 9.29995 12.3965 9.39995 12.0965 9.49995C11.6965 9.59995 11.3965 9.79995 11.0965 10.1C10.8591 10.3374 10.747 10.5748 10.6114 10.8617C10.5757 10.9373 10.5382 11.0166 10.4965 11.1C10.4811 11.1464 10.4632 11.1952 10.4441 11.2475C10.3394 11.5333 10.1965 11.9238 10.1965 12.6V19.4C10.2965 20.2 10.3965 20.6 10.4965 20.9C10.5965 21.3 10.7965 21.6 11.0965 21.9C11.3339 22.1374 11.5713 22.2495 11.8582 22.3851C11.9339 22.4209 12.013 22.4583 12.0965 22.5C12.1429 22.5155 12.1917 22.5333 12.244 22.5525C12.5298 22.6571 12.9203 22.8 13.5965 22.8H20.3965C21.1965 22.7 21.5965 22.6 21.8965 22.5C22.2965 22.4 22.5965 22.2 22.8965 21.9C23.1339 21.6626 23.246 21.4252 23.3816 21.1383C23.4174 21.0626 23.4548 20.9835 23.4965 20.9C23.512 20.8536 23.5298 20.8048 23.549 20.7525C23.6536 20.4667 23.7965 20.0762 23.7965 19.4V12.6C23.6965 11.8 23.5965 11.4 23.4965 11.1C23.3965 10.7 23.1965 10.4 22.8965 10.1C22.6591 9.86256 22.4217 9.7504 22.1348 9.61483C22.0592 9.57913 21.9798 9.54162 21.8965 9.49995C21.8501 9.48448 21.8013 9.46661 21.749 9.44747C21.4632 9.34285 21.0727 9.19995 20.3965 9.19995ZM16.9965 11.7C14.5965 11.7 12.6965 13.6 12.6965 16C12.6965 18.4 14.5965 20.3 16.9965 20.3C19.3965 20.3 21.2965 18.4 21.2965 16C21.2965 13.6 19.3965 11.7 16.9965 11.7ZM22.3965 11.6C22.3965 12.1523 21.9488 12.6 21.3965 12.6C20.8442 12.6 20.3965 12.1523 20.3965 11.6C20.3965 11.0477 20.8442 10.6 21.3965 10.6C21.9488 10.6 22.3965 11.0477 22.3965 11.6Z" fill="white"/>
<path fill-rule="evenodd" clip-rule="evenodd" d="M0.996582 16C0.996582 7.16344 8.16002 0 16.9966 0C25.8332 0 32.9966 7.16344 32.9966 16C32.9966 24.8366 25.8332 32 16.9966 32C8.16002 32 0.996582 24.8366 0.996582 16ZM13.5966 7.7H20.3966C21.2966 7.8 21.8966 7.9 22.3966 8.1C22.9966 8.4 23.3966 8.6 23.8966 9.1C24.3966 9.6 24.6966 10.1 24.8966 10.6C25.0966 11.1 25.2966 11.7 25.2966 12.6V19.4C25.1966 20.3 25.0966 20.9 24.8966 21.4C24.5966 22 24.3966 22.4 23.8966 22.9C23.3966 23.4 22.8966 23.7 22.3966 23.9C21.8966 24.1 21.2966 24.3 20.3966 24.3H13.5966C12.6966 24.2 12.0966 24.1 11.5966 23.9C10.9966 23.6 10.5966 23.4 10.0966 22.9C9.59658 22.4 9.29658 21.9 9.09658 21.4C8.89658 20.9 8.69658 20.3 8.69658 19.4V12.6C8.79658 11.7 8.89658 11.1 9.09658 10.6C9.39658 10 9.59658 9.6 10.0966 9.1C10.5966 8.6 11.0966 8.3 11.5966 8.1C12.0966 7.9 12.6966 7.7 13.5966 7.7Z" fill="white"/>
</g>
<defs>
<clipPath id="clip0_306_1629">
<rect width="32" height="32" fill="white" transform="translate(0.996582)"/>
</clipPath>
</defs>
</svg>
