<svg width="40" height="40" viewBox="0 0 40 40" fill="none" xmlns="http://www.w3.org/2000/svg">
<path d="M20.0097 0.302979C11.7851 0.302979 9.37969 0.311463 8.91213 0.350251C7.2243 0.490554 6.17403 0.756312 5.02982 1.32601C4.14803 1.76389 3.4526 2.27146 2.76625 2.98298C1.51629 4.28055 0.758737 5.87692 0.484503 7.77449C0.351174 8.69571 0.312387 8.88358 0.304508 13.589C0.301478 15.1575 0.304508 17.2218 0.304508 19.9906C0.304508 28.2087 0.313599 30.6118 0.352992 31.0784C0.489351 32.7209 0.746919 33.7542 1.29236 34.8845C2.33475 37.0481 4.3256 38.6724 6.67098 39.2784C7.48308 39.4875 8.38002 39.6027 9.5315 39.6572C10.0194 39.6784 14.9919 39.6936 19.9676 39.6936C24.9432 39.6936 29.9188 39.6875 30.3945 39.6633C31.7278 39.6006 32.502 39.4966 33.3581 39.2754C35.7186 38.6663 37.6731 37.0663 38.7367 34.8724C39.2715 33.7693 39.5427 32.6966 39.6654 31.1399C39.6921 30.8006 39.7033 25.3893 39.7033 19.9854C39.7033 14.5806 39.6912 9.17934 39.6645 8.83995C39.5403 7.25813 39.2691 6.19449 38.717 5.07025C38.264 4.14995 37.761 3.46268 37.0307 2.75995C35.7274 1.5151 34.1335 0.757524 32.2342 0.483585C31.3139 0.350554 31.1306 0.31116 26.4216 0.302979H20.0097Z" fill="url(#paint0_radial_150_59)"/>
<path d="M20.0097 0.302979C11.7851 0.302979 9.37969 0.311463 8.91213 0.350251C7.2243 0.490554 6.17403 0.756312 5.02982 1.32601C4.14803 1.76389 3.4526 2.27146 2.76625 2.98298C1.51629 4.28055 0.758737 5.87692 0.484503 7.77449C0.351174 8.69571 0.312387 8.88358 0.304508 13.589C0.301478 15.1575 0.304508 17.2218 0.304508 19.9906C0.304508 28.2087 0.313599 30.6118 0.352992 31.0784C0.489351 32.7209 0.746919 33.7542 1.29236 34.8845C2.33475 37.0481 4.3256 38.6724 6.67098 39.2784C7.48308 39.4875 8.38002 39.6027 9.5315 39.6572C10.0194 39.6784 14.9919 39.6936 19.9676 39.6936C24.9432 39.6936 29.9188 39.6875 30.3945 39.6633C31.7278 39.6006 32.502 39.4966 33.3581 39.2754C35.7186 38.6663 37.6731 37.0663 38.7367 34.8724C39.2715 33.7693 39.5427 32.6966 39.6654 31.1399C39.6921 30.8006 39.7033 25.3893 39.7033 19.9854C39.7033 14.5806 39.6912 9.17934 39.6645 8.83995C39.5403 7.25813 39.2691 6.19449 38.717 5.07025C38.264 4.14995 37.761 3.46268 37.0307 2.75995C35.7274 1.5151 34.1335 0.757524 32.2342 0.483585C31.3139 0.350554 31.1306 0.31116 26.4216 0.302979H20.0097Z" fill="url(#paint1_radial_150_59)"/>
<path d="M20.0006 5.45459C16.0504 5.45459 15.5547 5.47186 14.0032 5.54247C12.4548 5.61338 11.3979 5.85853 10.473 6.21823C9.51641 6.58974 8.70491 7.08671 7.89645 7.8955C7.08739 8.70398 6.59043 9.5155 6.21772 10.4719C5.85712 11.397 5.61167 12.4543 5.54198 14.0022C5.47259 15.5537 5.45441 16.0497 5.45441 20C5.45441 23.9503 5.47198 24.4446 5.54228 25.9961C5.61349 27.5446 5.85864 28.6016 6.21802 29.5264C6.58983 30.4831 7.08678 31.2946 7.89555 32.1031C8.7037 32.9122 9.51519 33.4103 10.4712 33.7819C11.3967 34.1416 12.4539 34.3867 14.002 34.4576C15.5535 34.5282 16.0489 34.5455 19.9988 34.5455C23.9493 34.5455 24.4435 34.5282 25.995 34.4576C27.5434 34.3867 28.6016 34.1416 29.527 33.7819C30.4833 33.4103 31.2936 32.9122 32.1018 32.1031C32.9108 31.2946 33.4078 30.4831 33.7805 29.5267C34.1381 28.6016 34.3835 27.5443 34.4563 25.9964C34.526 24.4449 34.5441 23.9503 34.5441 20C34.5441 16.0497 34.526 15.554 34.4563 14.0025C34.3835 12.454 34.1381 11.397 33.7805 10.4722C33.4078 9.5155 32.9108 8.70398 32.1018 7.8955C31.2927 7.08641 30.4837 6.58944 29.5261 6.21823C28.5989 5.85853 27.5413 5.61338 25.9929 5.54247C24.4414 5.47186 23.9475 5.45459 19.9961 5.45459H20.0006ZM18.6958 8.0758C19.0831 8.0752 19.5152 8.0758 20.0006 8.0758C23.8842 8.0758 24.3444 8.08974 25.878 8.15944C27.2962 8.22429 28.0658 8.46126 28.5786 8.66035C29.2573 8.92398 29.7412 9.23913 30.25 9.74822C30.7591 10.2573 31.0742 10.7422 31.3385 11.421C31.5376 11.9331 31.7748 12.7028 31.8394 14.121C31.9091 15.6543 31.9242 16.1149 31.9242 19.9967C31.9242 23.8785 31.9091 24.3391 31.8394 25.8725C31.7745 27.2906 31.5376 28.0603 31.3385 28.5725C31.0748 29.2513 30.7591 29.7346 30.25 30.2434C29.7409 30.7525 29.2576 31.0676 28.5786 31.3312C28.0664 31.5312 27.2962 31.7676 25.878 31.8325C24.3447 31.9022 23.8842 31.9173 20.0006 31.9173C16.1168 31.9173 15.6565 31.9022 14.1232 31.8325C12.7051 31.767 11.9354 31.53 11.4224 31.3309C10.7436 31.0673 10.2588 30.7522 9.74973 30.2431C9.24066 29.734 8.92551 29.2503 8.66128 28.5713C8.46219 28.0591 8.22493 27.2894 8.16039 25.8713C8.09069 24.3379 8.07675 23.8773 8.07675 19.9931C8.07675 16.1088 8.09069 15.6506 8.16039 14.1173C8.22523 12.6991 8.46219 11.9294 8.66128 11.4167C8.92491 10.7379 9.24066 10.2531 9.74973 9.74398C10.2588 9.23489 10.7436 8.91974 11.4224 8.6555C11.9351 8.4555 12.7051 8.21913 14.1232 8.15398C15.465 8.09338 15.985 8.0752 18.6958 8.07217V8.0758ZM27.7646 10.491C26.801 10.491 26.0192 11.2719 26.0192 12.2358C26.0192 13.1994 26.801 13.9813 27.7646 13.9813C28.7282 13.9813 29.51 13.1994 29.51 12.2358C29.51 11.2722 28.7282 10.4903 27.7646 10.4903V10.491ZM20.0006 12.5303C15.8756 12.5303 12.5312 15.8749 12.5312 20C12.5312 24.1252 15.8756 27.4682 20.0006 27.4682C24.1257 27.4682 27.4689 24.1252 27.4689 20C27.4689 15.8749 24.1254 12.5303 20.0003 12.5303H20.0006ZM20.0006 15.1516C22.6781 15.1516 24.849 17.3222 24.849 20C24.849 22.6776 22.6781 24.8485 20.0006 24.8485C17.3228 24.8485 15.1523 22.6776 15.1523 20C15.1523 17.3222 17.3228 15.1516 20.0006 15.1516Z" fill="white"/>
<defs>
<radialGradient id="paint0_radial_150_59" cx="0" cy="0" r="1" gradientUnits="userSpaceOnUse" gradientTransform="translate(10.7689 42.7275) rotate(-90) scale(39.039 36.3181)">
<stop stop-color="#FFDD55"/>
<stop offset="0.1" stop-color="#FFDD55"/>
<stop offset="0.5" stop-color="#FF543E"/>
<stop offset="1" stop-color="#C837AB"/>
</radialGradient>
<radialGradient id="paint1_radial_150_59" cx="0" cy="0" r="1" gradientUnits="userSpaceOnUse" gradientTransform="translate(-6.29657 3.14061) rotate(78.678) scale(17.4508 71.9489)">
<stop stop-color="#3771C8"/>
<stop offset="0.128" stop-color="#3771C8"/>
<stop offset="1" stop-color="#6600FF" stop-opacity="0"/>
</radialGradient>
</defs>
</svg>
