<svg width="136" height="52" viewBox="0 0 136 52" fill="none" xmlns="http://www.w3.org/2000/svg">
<path d="M135.997 0.946777H0V34.9459H135.997V0.946777Z" fill="#3C3C3B"/>
<path d="M20.6971 11.9541C20.6366 11.3033 20.4268 10.6753 20.0841 10.1188C19.7413 9.56226 19.2748 9.09231 18.7209 8.74545C17.444 7.96457 15.967 7.57317 14.471 7.61922C13.3649 7.59298 12.2652 7.79554 11.2411 8.21421C10.4035 8.56723 9.67149 9.13089 9.11613 9.85042C8.60897 10.5394 8.34039 11.3749 8.35115 12.2304C8.3391 12.9059 8.52367 13.5703 8.88238 14.1428C9.2525 14.6753 9.7303 15.1241 10.2848 15.4603C10.84 15.807 11.4315 16.092 12.0486 16.3103C12.6032 16.5236 13.1711 16.701 13.7485 16.8415L16.5747 17.6065C17.3893 17.823 18.191 18.0855 18.9759 18.3927C19.8938 18.7296 20.7594 19.1946 21.5471 19.7739C22.4019 20.3188 23.1272 21.044 23.672 21.8989C24.2374 22.9099 24.5165 24.056 24.4795 25.2138C24.4902 26.6542 24.0763 28.0658 23.2895 29.2724C22.444 30.5438 21.2587 31.5524 19.8684 32.1836C18.1549 32.9324 16.2978 33.2951 14.4285 33.2461C12.6528 33.2877 10.8876 32.9622 9.24362 32.2899C7.88811 31.7029 6.70898 30.7727 5.82246 29.5912C4.93314 28.45 4.38766 27.079 4.25 25.6388H7.77741C7.82361 26.6056 8.19843 27.5276 8.83988 28.2525C9.4859 28.9516 10.2968 29.4776 11.1986 29.7824C12.1997 30.1111 13.2473 30.2762 14.301 30.2712C15.4863 30.2891 16.6634 30.0725 17.7647 29.6337C18.7127 29.2681 19.548 28.6599 20.1871 27.87C20.7763 27.1109 21.0909 26.1746 21.0796 25.2138C21.1141 24.3939 20.8413 23.5906 20.3146 22.9613C19.7183 22.3378 18.9931 21.8519 18.1897 21.5376C17.3037 21.1687 16.3953 20.8564 15.4697 20.6026L12.1123 19.6252C10.2175 19.1338 8.45909 18.2183 6.96993 16.9477C6.34001 16.3742 5.84261 15.6702 5.51233 14.8849C5.18206 14.0996 5.02684 13.2517 5.05748 12.4004C5.03585 10.9325 5.49893 9.49846 6.37495 8.32046C7.23822 7.12851 8.40482 6.18937 9.75361 5.60052C11.2708 4.92639 12.9173 4.59275 14.5772 4.62305C16.2212 4.59427 17.852 4.92043 19.3584 5.57927C20.6627 6.15287 21.7971 7.05307 22.652 8.19296C23.4819 9.27366 23.9436 10.5918 23.9695 11.9541H20.6971ZM32.448 25.2138V21.2401H33.1068L42.2228 11.9541H46.1964L36.4004 21.7926H36.1242L32.448 25.2138ZM29.4519 32.8211V5.00554H32.6605V32.8211H29.4519ZM42.7115 32.8211L34.5517 22.4939L36.8467 20.2627L46.7489 32.8211H42.7115ZM50.2551 32.8211V11.9541H53.4638V32.8211H50.2551ZM51.8913 8.49045C51.5933 8.49632 51.2972 8.44299 51.0199 8.33357C50.7427 8.22414 50.49 8.06078 50.2763 7.85297C50.0627 7.65484 49.8921 7.41489 49.7751 7.14804C49.6581 6.88118 49.5973 6.59312 49.5964 6.30176C49.6002 6.01398 49.6624 5.72998 49.7793 5.46698C49.8962 5.20399 50.0653 4.96747 50.2763 4.77179C50.7102 4.36235 51.2841 4.13428 51.8807 4.13428C52.4772 4.13428 53.0512 4.36235 53.485 4.77179C53.6961 4.96747 53.8652 5.20399 53.982 5.46698C54.0989 5.72998 54.1612 6.01398 54.165 6.30176C54.1641 6.59312 54.1032 6.88118 53.9862 7.14804C53.8693 7.41489 53.6987 7.65484 53.485 7.85297C53.2746 8.05918 53.0255 8.22168 52.7519 8.3311C52.4784 8.44051 52.1859 8.49467 51.8913 8.49045ZM62.516 5.00554V32.8211H59.3286V5.00554H62.516ZM71.5896 5.00554V32.8211H68.4021V5.00554H71.5896Z" fill="white"/>
<path d="M80.748 20.2626V32.821H77.4756V11.9541H80.578V15.2265H80.8543C81.3368 14.1737 82.1112 13.2814 83.0854 12.6553C84.2466 11.9659 85.5822 11.6265 86.9316 11.6778C88.2247 11.651 89.5037 11.9506 90.6503 12.549C91.7242 13.1421 92.586 14.0559 93.1152 15.1627C93.7544 16.5384 94.0601 18.0454 94.0077 19.5614V32.821H90.799V19.7739C90.884 18.3821 90.4271 17.0114 89.524 15.949C89.0715 15.4826 88.5246 15.1182 87.92 14.88C87.3154 14.6418 86.6669 14.5354 86.0179 14.5677C85.0628 14.5485 84.1188 14.7754 83.2767 15.2265C82.4711 15.6823 81.8143 16.3611 81.3855 17.1814C80.9189 18.1391 80.6997 19.1984 80.748 20.2626ZM108.606 33.246C106.782 33.3015 104.978 32.8452 103.4 31.9286C101.941 31.0254 100.775 29.7191 100.043 28.1674C99.2373 26.4087 98.8378 24.4915 98.8738 22.5575C98.8401 20.6101 99.2393 18.6795 100.043 16.9052C100.763 15.3487 101.904 14.0241 103.336 13.0803C104.833 12.112 106.59 11.6228 108.372 11.6778C109.465 11.6837 110.549 11.8704 111.581 12.2303C112.659 12.6062 113.644 13.2075 114.471 13.994C115.42 14.883 116.148 15.9819 116.596 17.2027C117.12 18.8128 117.343 20.5055 117.255 22.1963V23.5563H101.169V20.7088H113.918C113.941 19.6194 113.7 18.5406 113.217 17.5639C112.768 16.6866 112.083 15.951 111.241 15.439C110.385 14.8856 109.391 14.5837 108.372 14.5677C107.195 14.5388 106.038 14.8727 105.057 15.524C104.143 16.1329 103.408 16.9771 102.932 17.9677C102.373 18.9567 102.053 20.0628 101.997 21.1976V23.0463C101.955 24.4246 102.239 25.7934 102.826 27.0412C103.333 28.0752 104.131 28.9392 105.121 29.5274C106.157 30.1135 107.332 30.4073 108.521 30.3773C109.294 30.385 110.062 30.2629 110.795 30.0161C111.467 29.8004 112.078 29.4291 112.58 28.9324C113.1 28.4302 113.494 27.8109 113.727 27.1262L116.83 27.9762C116.529 28.9902 115.998 29.9211 115.278 30.6961C114.471 31.5076 113.501 32.1379 112.431 32.5448C111.209 33.0068 109.913 33.2443 108.606 33.246ZM131.194 11.9966V14.674H120.378V11.9541L131.194 11.9966ZM123.544 7.00293H126.732V26.8924C126.681 27.6237 126.82 28.3557 127.136 29.0174C127.369 29.4182 127.727 29.7317 128.156 29.9099C128.594 30.0541 129.054 30.1259 129.516 30.1223C129.805 30.1475 130.097 30.1475 130.387 30.1223L130.918 30.0161L131.577 32.821C131.281 32.9297 130.975 33.008 130.663 33.0548C130.176 33.169 129.676 33.219 129.176 33.2035C128.258 33.1987 127.352 32.9958 126.519 32.6085C125.67 32.2157 124.937 31.6077 124.394 30.8448C123.815 29.9478 123.526 28.8944 123.566 27.8274L123.544 7.00293Z" fill="#009FE3"/>
<path d="M3.18742 47.6957L0.55249 39.0047H1.95496L3.82491 45.5708L5.69486 38.9197H7.11858L9.03103 45.5708L10.9222 38.9409H12.3247L9.75351 47.6957H8.49979L6.60859 41.0234H6.37484L4.50489 47.6957H3.18742ZM17.6371 47.887C16.8886 47.9019 16.1514 47.7029 15.5121 47.3132C14.8994 46.9488 14.4107 46.4082 14.1097 45.762C13.7627 45.039 13.5812 44.2478 13.5784 43.4458C13.5652 42.6331 13.7321 41.8276 14.0672 41.0871C14.3643 40.4403 14.8351 39.8886 15.4271 39.4934C16.0613 39.0921 16.8021 38.8921 17.5521 38.9197C18.0071 38.9142 18.4598 38.986 18.8908 39.1322C19.3438 39.289 19.7572 39.5428 20.102 39.8759C20.4898 40.2506 20.7877 40.7083 20.9732 41.2146C21.2128 41.8964 21.321 42.6175 21.292 43.3396V43.9133H14.5346V42.7446H19.8683C19.907 42.2513 19.8038 41.7573 19.5708 41.3209C19.3769 40.9278 19.0726 40.5999 18.6952 40.3772C18.3178 40.1545 17.8836 40.0468 17.4458 40.0671C16.9546 40.0546 16.4717 40.1957 16.0646 40.4709C15.6832 40.7212 15.381 41.075 15.1934 41.4909C14.9784 41.904 14.869 42.3639 14.8746 42.8296V43.5946C14.855 44.173 14.9715 44.748 15.2146 45.2733C15.4335 45.7004 15.7639 46.0602 16.1708 46.3145C16.6062 46.5538 17.0981 46.6712 17.5946 46.6545C17.9195 46.6602 18.243 46.6099 18.5508 46.5057C18.8306 46.4077 19.0848 46.2478 19.2944 46.0382C19.5041 45.8285 19.6639 45.5743 19.762 45.2945L21.0582 45.6558C20.9209 46.0909 20.6886 46.4901 20.3782 46.8245C20.0326 47.1512 19.629 47.4107 19.1883 47.5895C18.6911 47.7732 18.167 47.8737 17.6371 47.887ZM23.5657 47.6957V36.1147H24.8831V40.3646H25.0106C25.0106 40.2159 25.2444 40.0247 25.4144 39.7909C25.6211 39.5264 25.8819 39.3091 26.1793 39.1534C26.5932 38.9442 27.0552 38.8489 27.5181 38.8772C28.2008 38.861 28.8732 39.0457 29.4518 39.4084C30.0252 39.8036 30.4805 40.3471 30.7692 40.9809C31.103 41.7586 31.2626 42.5999 31.2367 43.4458C31.2484 44.263 31.0892 45.0737 30.7692 45.8258C30.4805 46.4595 30.0252 47.003 29.4518 47.3982C28.8831 47.7679 28.2175 47.9602 27.5393 47.9507C27.075 47.9675 26.6141 47.8651 26.2006 47.6532C25.891 47.5071 25.6213 47.2884 25.4144 47.0157C25.2655 46.8274 25.1306 46.6286 25.0106 46.4207H24.8406V47.6957H23.5657ZM24.8619 43.4458C24.8529 44.04 24.9537 44.6307 25.1594 45.1883C25.3184 45.6546 25.6147 46.062 26.0094 46.357C26.4003 46.6509 26.8806 46.801 27.3693 46.782C27.8678 46.8 28.3568 46.642 28.7505 46.3357C29.1372 46.0241 29.4311 45.6126 29.6005 45.1458C29.8024 44.602 29.9033 44.0259 29.898 43.4458C29.8982 42.8888 29.8048 42.3357 29.6218 41.8096C29.4627 41.3432 29.1665 40.9359 28.7718 40.6409C28.3724 40.3298 27.875 40.1716 27.3693 40.1946C26.8781 40.1821 26.3952 40.3232 25.9881 40.5984C25.6108 40.8966 25.3238 41.2939 25.1594 41.7459C24.9556 42.2891 24.8547 42.8656 24.8619 43.4458ZM41.2665 47.9932C40.5821 47.9994 39.9106 47.8075 39.3328 47.4407C38.7657 47.0442 38.3176 46.5005 38.0366 45.8683C37.7001 45.1063 37.5403 44.2782 37.5691 43.4458C37.5445 42.6275 37.7043 41.8141 38.0366 41.0659C38.3186 40.4279 38.7753 39.8828 39.354 39.4934C39.9311 39.1272 40.6046 38.9421 41.2877 38.9622C41.7502 38.9388 42.211 39.0339 42.6264 39.2384C42.9202 39.3995 43.18 39.616 43.3914 39.8759L43.7952 40.4496H43.9014V36.1997H45.2401V47.6957H43.9652V46.357H43.7952C43.6668 46.5645 43.5249 46.7633 43.3702 46.952C43.1752 47.2276 42.9115 47.4474 42.6052 47.5895C42.1917 47.8013 41.7308 47.9038 41.2665 47.887V47.9932ZM41.4365 46.782C41.9252 46.801 42.4055 46.6509 42.7964 46.357C43.1911 46.062 43.4874 45.6546 43.6464 45.1883C43.8444 44.6293 43.938 44.0386 43.9227 43.4458C43.9366 42.8669 43.843 42.2905 43.6464 41.7459C43.482 41.2939 43.195 40.8966 42.8177 40.5984C42.4094 40.3258 41.9273 40.1849 41.4365 40.1946C40.9307 40.1716 40.4334 40.3298 40.034 40.6409C39.6393 40.9359 39.343 41.3432 39.184 41.8096C38.9909 42.3331 38.8973 42.888 38.9078 43.4458C38.8957 44.0245 38.9893 44.6006 39.184 45.1458C39.3615 45.6083 39.654 46.0179 40.034 46.3357C40.4475 46.6092 40.9436 46.7295 41.4365 46.6757V46.782ZM51.6362 47.9932C50.8877 48.0082 50.1505 47.8091 49.5113 47.4195C48.9035 47.0491 48.4163 46.5102 48.1088 45.8683C47.7734 45.1354 47.6064 44.3367 47.6201 43.5308C47.6068 42.7181 47.7737 41.9126 48.1088 41.1721C48.4136 40.5238 48.8916 39.9723 49.49 39.5784C50.122 39.1721 50.8644 38.9716 51.615 39.0047C52.0768 39.0011 52.5362 39.0729 52.9749 39.2172C53.4193 39.3791 53.8247 39.6324 54.1649 39.9609C54.5527 40.3356 54.8506 40.7933 55.0361 41.2996C55.2757 41.9814 55.3839 42.7025 55.3549 43.4246V43.9983H48.5338V42.8296H53.8674C53.8826 42.379 53.7801 41.9322 53.5699 41.5334C53.3899 41.1603 53.1105 40.8442 52.7624 40.6196C52.3799 40.3839 51.9366 40.2657 51.4875 40.2796C50.9962 40.2671 50.5134 40.4082 50.1063 40.6834C49.7248 40.9337 49.4226 41.2875 49.235 41.7034C49.0201 42.1165 48.9106 42.5764 48.9163 43.0421V43.8071C48.8967 44.3855 49.0131 44.9605 49.2563 45.4858C49.4751 45.9128 49.8055 46.2727 50.2125 46.527C50.6479 46.7663 51.1397 46.8837 51.6362 46.867C51.9611 46.8727 52.2846 46.8224 52.5924 46.7182C52.8723 46.6201 53.1264 46.4603 53.3361 46.2507C53.5458 46.041 53.7056 45.7868 53.8037 45.507L55.0999 45.8683C54.9625 46.3034 54.7303 46.7026 54.4199 47.037C54.0779 47.3683 53.6734 47.6284 53.2299 47.802C52.7076 47.9223 52.1684 47.951 51.6362 47.887V47.9932ZM64.2159 39.1109L61.0072 47.6957H59.6473L56.4386 39.0047H57.8836L60.2847 45.932L62.6859 39.0047L64.2159 39.1109ZM69.422 47.9932C68.6741 48.0036 67.9381 47.8049 67.2971 47.4195C66.6946 47.0427 66.2089 46.5056 65.8946 45.8683C65.5665 45.1337 65.4068 44.3351 65.4271 43.5308C65.3844 42.6858 65.5371 41.8423 65.8734 41.0659C66.1782 40.4175 66.6562 39.866 67.2546 39.4722C67.8888 39.0709 68.6295 38.8709 69.3795 38.8984C69.8343 38.8972 70.2862 38.9689 70.7182 39.1109C71.1713 39.2677 71.5847 39.5215 71.9295 39.8547C72.3107 40.2306 72.6014 40.6884 72.7794 41.1934C73.0383 41.8706 73.1541 42.5941 73.1194 43.3183V43.8921H66.3196V42.7233H71.6745C71.679 42.2738 71.5771 41.8296 71.377 41.4271C71.1972 41.0473 70.9088 40.7293 70.5482 40.5134C70.1761 40.272 69.7377 40.1531 69.2945 40.1734C68.8027 40.1564 68.3185 40.298 67.9133 40.5771C67.5306 40.832 67.2226 41.184 67.0208 41.5971C66.8059 42.0103 66.6964 42.4701 66.7021 42.9358V43.7008C66.6927 44.2784 66.8087 44.8511 67.0421 45.3795C67.2609 45.8066 67.5914 46.1664 67.9983 46.4207C68.4355 46.6553 68.926 46.7724 69.422 46.7607C69.7472 46.7701 70.0713 46.7197 70.3782 46.612C70.6542 46.516 70.9074 46.364 71.122 46.1657C71.3329 45.9448 71.4989 45.685 71.6107 45.4008L72.8857 45.762C72.7569 46.2009 72.5236 46.6019 72.2057 46.9307C71.8637 47.2621 71.4592 47.5221 71.0157 47.6957C70.4997 47.8517 69.9603 47.9164 69.422 47.887V47.9932ZM76.4981 36.1147V47.6957H75.1806V36.1147H76.4981ZM82.5967 47.887C81.8467 47.9145 81.1059 47.7145 80.4717 47.3132C79.8646 46.9388 79.3835 46.3911 79.0905 45.7408C78.7573 45.0229 78.5972 44.2368 78.623 43.4458C78.5968 42.6251 78.7642 41.8098 79.1118 41.0659C79.358 40.5896 79.6989 40.1688 80.1138 39.8292C80.5286 39.4896 81.0085 39.2384 81.524 39.0911C82.0395 38.9438 82.5797 38.9035 83.1113 38.9727C83.6429 39.0419 84.1548 39.2191 84.6154 39.4934C85.213 39.879 85.6914 40.4235 85.9966 41.0659C86.3588 41.8062 86.5409 42.6217 86.5278 43.4458C86.5539 44.2528 86.3863 45.0543 86.0391 45.7833C85.7316 46.4319 85.243 46.9777 84.6321 47.3548C84.0213 47.7319 83.3144 47.9241 82.5967 47.9082V47.887ZM82.5967 46.6757C83.1267 46.7086 83.6497 46.5418 84.0629 46.2082C84.4554 45.9022 84.7507 45.4888 84.9129 45.0183C85.2805 43.9657 85.2805 42.8196 84.9129 41.7671C84.7521 41.2899 84.457 40.8693 84.0629 40.5559C83.6347 40.2512 83.1222 40.0874 82.5967 40.0874C82.0711 40.0874 81.5587 40.2512 81.1305 40.5559C80.7368 40.8743 80.4359 41.2926 80.2592 41.7671C79.8916 42.8196 79.8916 43.9657 80.2592 45.0183C80.4365 45.4866 80.7376 45.8979 81.1305 46.2082C81.5436 46.5418 82.0667 46.7086 82.5967 46.6757ZM88.6953 50.9256V39.0047H89.9703V40.3859H90.1403C90.1403 40.2371 90.374 40.0459 90.544 39.8122C90.7713 39.548 91.0544 39.3376 91.3727 39.1959C91.7866 38.9867 92.2486 38.8914 92.7114 38.9197C93.3941 38.9035 94.0665 39.0882 94.6451 39.4509C95.2186 39.8461 95.6739 40.3896 95.9626 41.0234C96.2685 41.7928 96.4062 42.6188 96.3663 43.4458C96.378 44.263 96.2188 45.0737 95.8989 45.8258C95.6102 46.4595 95.1548 47.003 94.5814 47.3982C94.0128 47.7679 93.3471 47.9602 92.6689 47.9507C92.2225 47.9735 91.7773 47.8859 91.3727 47.6957C91.0631 47.5496 90.7934 47.3309 90.5865 47.0582C90.4377 46.8699 90.3027 46.6711 90.1827 46.4632H90.0553V51.0531L88.6953 50.9256ZM89.9915 43.4458C89.9825 44.04 90.0834 44.6307 90.289 45.1883C90.448 45.6546 90.7443 46.062 91.139 46.357C91.5401 46.6396 92.0189 46.7913 92.5096 46.7913C93.0003 46.7913 93.479 46.6396 93.8802 46.357C94.2668 46.0454 94.5608 45.6338 94.7301 45.167C94.9321 44.6232 95.0329 44.0471 95.0276 43.4671C95.0314 42.9079 94.9305 42.3529 94.7301 41.8309C94.5871 41.3622 94.2964 40.9522 93.9014 40.6621C93.4921 40.3544 92.9894 40.1969 92.4777 40.2159C91.9935 40.2063 91.5183 40.3474 91.1177 40.6196C90.7343 40.912 90.446 41.3112 90.289 41.7671C90.0878 42.3037 89.9869 42.8727 89.9915 43.4458ZM98.4913 47.802V39.0047H99.8725V40.3646C100.033 39.9159 100.34 39.5342 100.744 39.2809C101.186 39.016 101.695 38.8833 102.21 38.8984C102.701 38.8711 103.188 38.9976 103.603 39.2605C104.018 39.5234 104.341 39.9094 104.526 40.3646C104.746 39.9137 105.093 39.537 105.525 39.2809C106.013 39.0158 106.563 38.8838 107.119 38.8984C107.47 38.8817 107.821 38.9372 108.15 39.0614C108.479 39.1857 108.779 39.3761 109.031 39.6209C109.299 39.928 109.502 40.2854 109.63 40.6721C109.758 41.0589 109.807 41.4673 109.775 41.8734V47.6957H108.585V41.8734C108.611 41.6176 108.577 41.3592 108.484 41.1193C108.392 40.8793 108.244 40.6644 108.054 40.4921C107.695 40.2324 107.264 40.0913 106.821 40.0884C106.558 40.0738 106.295 40.1155 106.05 40.2108C105.804 40.306 105.582 40.4527 105.397 40.6409C105.049 41.0225 104.865 41.5268 104.887 42.0433V47.6957H103.527V41.7459C103.539 41.5257 103.503 41.3057 103.422 41.1005C103.341 40.8953 103.218 40.7096 103.06 40.5559C102.893 40.3972 102.696 40.274 102.481 40.1936C102.266 40.1133 102.036 40.0775 101.806 40.0884C101.467 40.0843 101.135 40.1804 100.85 40.3646C100.541 40.5522 100.285 40.8155 100.106 41.1296C99.9325 41.4793 99.8451 41.8655 99.8513 42.2558V47.6957L98.4913 47.802ZM116.086 47.9932C115.338 48.0036 114.602 47.8049 113.961 47.4195C113.359 47.0478 112.879 46.5087 112.58 45.8683C112.235 45.1385 112.067 44.3376 112.091 43.5308C112.063 42.6781 112.246 41.8316 112.622 41.0659C112.919 40.419 113.39 39.8673 113.982 39.4722C114.616 39.0709 115.357 38.8709 116.107 38.8984C116.562 38.8972 117.014 38.9689 117.446 39.1109C117.899 39.2677 118.312 39.5215 118.657 39.8547C119.038 40.235 119.335 40.6911 119.528 41.1934C119.768 41.8752 119.876 42.5962 119.847 43.3183V43.8921H113.005V42.7233H118.36C118.364 42.2738 118.262 41.8296 118.062 41.4271C117.882 41.0473 117.594 40.7293 117.233 40.5134C116.861 40.272 116.423 40.1531 115.98 40.1734C115.488 40.1564 115.004 40.298 114.598 40.5771C114.216 40.832 113.908 41.184 113.706 41.5971C113.498 42.0122 113.396 42.4719 113.408 42.9358V43.7008C113.389 44.2793 113.505 44.8543 113.748 45.3795C113.954 45.8154 114.288 46.1785 114.705 46.4207C115.133 46.6573 115.618 46.7747 116.107 46.7607C116.432 46.7701 116.756 46.7197 117.063 46.612C117.339 46.516 117.592 46.364 117.807 46.1657C118.018 45.9448 118.184 45.685 118.296 45.4008L119.571 45.762C119.442 46.2009 119.209 46.6019 118.891 46.9307C118.549 47.2621 118.144 47.5221 117.701 47.6957C117.185 47.8517 116.645 47.9164 116.107 47.887L116.086 47.9932ZM123.247 42.4683V47.6957H121.908V39.0047H123.247V40.3646C123.436 39.9254 123.755 39.5545 124.161 39.3022C124.648 39.0121 125.209 38.8717 125.776 38.8984C126.316 38.8788 126.851 39.0035 127.327 39.2597C127.778 39.4976 128.137 39.8789 128.347 40.3434C128.623 40.9116 128.755 41.5395 128.729 42.1708V47.6957H127.497V42.2558C127.525 41.6768 127.336 41.1082 126.966 40.6621C126.776 40.4679 126.547 40.3163 126.294 40.2174C126.041 40.1185 125.77 40.0745 125.499 40.0884C125.099 40.0789 124.704 40.1741 124.352 40.3646C124.022 40.5581 123.75 40.8371 123.566 41.1721C123.353 41.571 123.244 42.0165 123.247 42.4683ZM135.125 39.0047V40.1309H130.578V39.0047H135.125ZM131.917 36.8797H133.255V45.167C133.24 45.4601 133.299 45.7522 133.425 46.017C133.524 46.1807 133.673 46.3077 133.85 46.3782C134.034 46.446 134.228 46.482 134.424 46.4845H134.785H134.998L135.274 47.6957L134.892 47.802H134.275C133.894 47.8083 133.516 47.7284 133.17 47.5682C132.81 47.408 132.501 47.1505 132.278 46.8245C132.029 46.4548 131.903 46.0162 131.917 45.5708V36.8797Z" fill="white"/>
</svg>
