<svg width="89" height="21" viewBox="0 0 89 21" fill="none" xmlns="http://www.w3.org/2000/svg">
<path d="M7.90879 0.659912C6.26424 0.659912 4.29078 2.09507 2.69108 4.50506C0.986729 7.02336 0 10.1103 0 12.8046C0 16.7581 2.43692 20.7251 7.90879 20.7251C13.3806 20.7251 15.8176 16.7581 15.8176 12.8046C15.8176 10.1103 14.8308 7.00983 13.1265 4.5186C11.5268 2.09507 9.55334 0.659912 7.90879 0.659912ZM50.6222 6.56303H56.1539V19.6284H62.0892V6.56303H67.6209V1.72951H50.6222V6.56303ZM80.2988 6.56303H89V1.72951H80.2988C72.3003 1.72951 68.0395 5.33096 68.0395 10.6925C68.0395 16.0541 72.3153 19.6555 80.2988 19.6555H89V14.8084H80.2988C76.5911 14.8084 74.1841 13.6034 74.1841 10.6925C74.1841 7.78156 76.5911 6.56303 80.2988 6.56303ZM38.5572 1.74305L35.3877 12.4391L32.2182 1.74305H21.7379V19.669H27.6733V5.07371L31.994 19.642H38.7964L43.1171 5.06017V19.642H49.0524V1.74305H38.5572Z" fill="#E30613"/>
</svg>
