<svg width="21" height="21" viewBox="0 0 21 21" fill="none" xmlns="http://www.w3.org/2000/svg">
<g clip-path="url(#clip0_308_6406)">
<path d="M19.4082 14.8553L17.466 12.9131C17.1145 12.5618 16.6742 12.3125 16.1921 12.1917C15.7101 12.071 15.2043 12.0834 14.7287 12.2275C14.2531 12.3717 13.8255 12.6422 13.4916 13.0103C13.1577 13.3784 12.9299 13.8302 12.8327 14.3176C9.62988 13.7187 6.51488 10.6165 6.32099 7.84368C6.86548 7.74351 7.36658 7.47998 7.75766 7.08812C8.27258 6.57313 8.56185 5.8747 8.56185 5.14645C8.56185 4.4182 8.27258 3.71977 7.75766 3.20479L5.81599 1.26256C5.30101 0.747646 4.60258 0.458374 3.87432 0.458374C3.14607 0.458374 2.44764 0.747646 1.93266 1.26256C-3.8929 7.08812 13.5827 24.5637 19.4082 18.7381C19.9228 18.2231 20.2119 17.5248 20.2119 16.7967C20.2119 16.0687 19.9228 15.3704 19.4082 14.8553Z" fill="black"/>
</g>
<defs>
<clipPath id="clip0_308_6406">
<rect width="20" height="20" fill="white" transform="translate(0.485992 0.184814)"/>
</clipPath>
</defs>
</svg>
