<svg width="33" height="32" viewBox="0 0 33 32" fill="none" xmlns="http://www.w3.org/2000/svg">
<g clip-path="url(#clip0_306_1626)">
<path fill-rule="evenodd" clip-rule="evenodd" d="M32.9966 16C32.9966 7.16344 25.8332 0 16.9966 0C8.16002 0 0.996582 7.16344 0.996582 16C0.996582 24.8366 8.16002 32 16.9966 32C25.8332 32 32.9966 24.8366 32.9966 16ZM10.1166 9.12C8.99658 10.2507 8.99658 12.0587 8.99658 15.68V16.32C8.99658 19.936 8.99658 21.744 10.1166 22.88C11.2473 24 13.0553 24 16.6766 24H17.3166C20.9326 24 22.7406 24 23.8766 22.88C24.9966 21.7493 24.9966 19.9413 24.9966 16.32V15.68C24.9966 12.064 24.9966 10.256 23.8766 9.12C22.7459 8 20.9379 8 17.3166 8H16.6766C13.0606 8 11.2526 8 10.1166 9.12Z" fill="white"/>
<path d="M17.5086 19.5253C13.8606 19.5253 11.7806 17.0293 11.6953 12.8693H13.5299C13.5886 15.92 14.9326 17.2107 15.9993 17.4773V12.8693H17.7219V15.4987C18.7726 15.3867 19.8819 14.1867 20.2553 12.864H21.9726C21.8326 13.5487 21.5529 14.1971 21.1509 14.7688C20.749 15.3405 20.2335 15.8232 19.6366 16.1867C20.3027 16.5182 20.8909 16.9872 21.3626 17.5627C21.8342 18.1382 22.1784 18.8071 22.3726 19.5253H20.4793C20.0739 18.2613 19.0606 17.28 17.7219 17.1467V19.5253H17.5086Z" fill="white"/>
</g>
<defs>
<clipPath id="clip0_306_1626">
<rect width="32" height="32" fill="white" transform="translate(0.996582)"/>
</clipPath>
</defs>
</svg>
