<svg id="Слой_1" data-name="Слой 1" xmlns="http://www.w3.org/2000/svg" xmlns:xlink="http://www.w3.org/1999/xlink" viewBox="0 0 159.53 159.53"><defs><style>.cls-1{fill:none;}.cls-2{clip-path:url(#clip-path);}.cls-3{fill:#f2fafd;}.cls-4{fill:#fafafa;}.cls-5{fill:#e0e0e0;}.cls-6{opacity:0.1;}.cls-14,.cls-15,.cls-20,.cls-23,.cls-6{isolation:isolate;}.cls-7{fill:#f0f0f0;}.cls-8{fill:#455a64;}.cls-9{fill:#37474f;}.cls-10{fill:#ebebeb;}.cls-11,.cls-23{fill:#fff;}.cls-12{fill:#263238;}.cls-13{fill:#009fe3;}.cls-14{opacity:0.15;}.cls-15{opacity:0.05;}.cls-16{opacity:0.65;}.cls-17,.cls-20{opacity:0.3;}.cls-18{fill:#ffa8a7;}.cls-19{fill:#9a4a4d;}.cls-21{fill:#f28f8f;}.cls-22{fill:#b16668;}.cls-23{opacity:0.7;}</style><clipPath id="clip-path"><rect class="cls-1" width="159.53" height="159.53"/></clipPath></defs><g class="cls-2"><rect class="cls-3" width="159.53" height="159.53"/><path class="cls-4" d="M24.39,144.42c-30.59-17.65-30.59-46.28,0-63.94s80.17-17.66,110.75,0,30.59,46.29,0,63.94S55,162.08,24.39,144.42Z"/><path class="cls-5" d="M136.25,147.41c10.09,0,18.26-4.72,18.26-10.54s-8.17-10.54-18.26-10.54S118,131.05,118,136.87,126.17,147.41,136.25,147.41Z"/><path class="cls-5" d="M55.93,123.53l32.23,18.6a3,3,0,0,0,2.75,0l50.26-29a.85.85,0,0,0,0-1.6l-32.23-18.6a3,3,0,0,0-2.75,0l-50.26,29A.84.84,0,0,0,55.93,123.53Z"/><path class="cls-5" d="M86.39,86.46l-5.58-3.22a1.39,1.39,0,0,0-.6-.14,1.36,1.36,0,0,0-.6.14l-70,40.43a.34.34,0,0,0-.18.13.36.36,0,0,0-.07.22.33.33,0,0,0,.07.21.42.42,0,0,0,.18.14l5.63,3.27a1.28,1.28,0,0,0,1.2,0l11.85-6.85c.16.12.34.24.52.35l9.07,5.23a8.74,8.74,0,0,0,8,0l17.51-10.1a3.33,3.33,0,0,0,0-6.14l-8.37-4.84L86.39,87.16a.36.36,0,0,0,.25-.35.33.33,0,0,0-.07-.21A.42.42,0,0,0,86.39,86.46Z"/><path class="cls-5" d="M43.9,126.37,22.75,138.56a.37.37,0,0,0-.2.15.41.41,0,0,0-.08.24.4.4,0,0,0,.08.23.37.37,0,0,0,.2.15l5,2.87a1.38,1.38,0,0,0,.67.16,1.44,1.44,0,0,0,.67-.16L50.22,130a.37.37,0,0,0,.2-.15.4.4,0,0,0,.08-.23.41.41,0,0,0-.08-.24.37.37,0,0,0-.2-.15l-5-2.87a1.5,1.5,0,0,0-1.35,0Z"/><path class="cls-3" d="M62.78,110l-9.07-5.24a9.25,9.25,0,0,0-7-.54l-5.39,2.07a31,31,0,0,0-6.7,3.8l-5.45,4.32A2.73,2.73,0,0,0,28,116.55v1.25A2.62,2.62,0,0,0,29.46,120l9.07,5.24a7.48,7.48,0,0,0,6.74,0l17.51-10.11a2.36,2.36,0,0,0,1.39-2V112A2.36,2.36,0,0,0,62.78,110Z"/><path class="cls-5" d="M28,117.8A2.62,2.62,0,0,0,29.46,120l9.07,5.24a6.84,6.84,0,0,0,3.37.8v-1.3l-13.93-8Z"/><path class="cls-6" d="M28,117.8A2.62,2.62,0,0,0,29.46,120l9.07,5.24a6.84,6.84,0,0,0,3.37.8v-1.3l-13.93-8Z"/><path class="cls-7" d="M46.7,104.25l-5.38,2.07a30.55,30.55,0,0,0-6.7,3.8l-5.47,4.32a2.45,2.45,0,0,0,.32,4.35L38.54,124a7.42,7.42,0,0,0,6.74,0l17.5-10.11c1.87-1.07,1.87-2.81,0-3.89l-9.07-5.24A9.23,9.23,0,0,0,46.7,104.25Z"/><path class="cls-6" d="M53.71,104.79a9.25,9.25,0,0,0-7-.54l-5.39,2.07a31,31,0,0,0-6.7,3.8l-5.45,4.32A2.73,2.73,0,0,0,28,116.55v1.25A2.62,2.62,0,0,0,29.46,120l5.06,2.92v-1.22l24.24-14Z"/><path class="cls-5" d="M45.21,110.3c0-2.67.84-11.1,2.59-13.08l-5.61-.62c-2.76,2.92-6.07,9.89-8.07,13.91L37.8,112c2,.84,4.86.84,6.32,0a1.92,1.92,0,0,0,.79-.71,2,2,0,0,0,.3-1Z"/><path class="cls-6" d="M45.21,110.3c0-2.67.84-11.1,2.59-13.08l-5.61-.62c-2.76,2.92-6.07,9.89-8.07,13.91L37.8,112c2,.84,4.86.84,6.32,0a1.92,1.92,0,0,0,.79-.71,2,2,0,0,0,.3-1Z"/><path class="cls-5" d="M44.16,97.43a4.41,4.41,0,0,0,3.39,0c.77-.45.78-1.33,0-2l-1.42-1.14a16.32,16.32,0,0,0-3.94,2.28Z"/><path class="cls-8" d="M13.44,115.91a3.18,3.18,0,0,0,2.9-.06l68-39.24a3.31,3.31,0,0,0,1.06-1.11A3.36,3.36,0,0,0,85.83,74V11.19a3.27,3.27,0,0,0-.4-1.43,3.3,3.3,0,0,0-1-1.1A3.24,3.24,0,0,0,83,8.34a3.31,3.31,0,0,0-1.44.37L13.55,48a3.22,3.22,0,0,0-1.06,1.11,3.17,3.17,0,0,0-.43,1.47v62.83a3.13,3.13,0,0,0,.39,1.44A3.26,3.26,0,0,0,13.44,115.91Z"/><path class="cls-9" d="M16.34,115.85l68-39.24A3.26,3.26,0,0,0,85.83,74V11.19c0-1-.67-1.34-1.5-.86l-68,39.24a3.22,3.22,0,0,0-1.05,1.12,3.27,3.27,0,0,0-.44,1.47V115C14.85,115.94,15.52,116.33,16.34,115.85Z"/><path class="cls-10" d="M14.85,109.91V115c0,1,.67,1.34,1.49.86l68-39.24A3.26,3.26,0,0,0,85.83,74v-5.1Z"/><path class="cls-11" d="M16.82,105.19V52.84a1.93,1.93,0,0,1,.27-.91,2,2,0,0,1,.65-.69L82.92,13.59c.51-.29.92-.05.92.53V66.49a2,2,0,0,1-.27.9,2,2,0,0,1-.65.69L17.74,105.72C17.23,106,16.82,105.77,16.82,105.19Z"/><path class="cls-12" d="M12.48,49.08l2.81,1.6a3.2,3.2,0,0,0-.45,1.47V115c0,.87.6,1.36,1.5.86a3.18,3.18,0,0,1-2.9.06,2.87,2.87,0,0,1-1-1,2.84,2.84,0,0,1-.41-1.35v-63A3.19,3.19,0,0,1,12.48,49.08Z"/><path class="cls-13" d="M49.51,92.73l3.37-1.94c.31-.17.55,0,.55.28a1.17,1.17,0,0,1-.16.52,1.29,1.29,0,0,1-.38.39l-3.38,1.94c-.31.17-.55,0-.55-.28a1.1,1.1,0,0,1,.17-.52A1.18,1.18,0,0,1,49.51,92.73Z"/><path class="cls-5" d="M19.57,58.25a1.55,1.55,0,0,1-.44-.48,1.47,1.47,0,0,1-.17-.62V53.6a1.48,1.48,0,0,1,.64-1.12L80.43,17.35a1.21,1.21,0,0,1,.62-.18,1.16,1.16,0,0,1,.63.16,1.22,1.22,0,0,1,.46.47,1.25,1.25,0,0,1,.15.63V22a1.48,1.48,0,0,1-.64,1.12L20.82,58.23a1.38,1.38,0,0,1-1.25,0Z"/><path class="cls-14" d="M20.36,53.67a1.4,1.4,0,0,0-.19.63v2L19,55.56v-2a1,1,0,0,1,0-.17,2,2,0,0,1,.16-.4Z"/><path class="cls-7" d="M82.29,18.43v1.95L40.24,44.67,22,55.23l-1.79,1v-2a1.63,1.63,0,0,1,.19-.64,1.48,1.48,0,0,1,.45-.48L81.64,18.05C82,17.85,82.29,18,82.29,18.43Z"/><path class="cls-11" d="M80.52,19.65c.23-.13.42,0,.42.25a1,1,0,0,1-.13.41,1,1,0,0,1-.29.31c-.23.13-.42,0-.42-.24a.93.93,0,0,1,.12-.41A.92.92,0,0,1,80.52,19.65Z"/><path class="cls-11" d="M79,20.52c.23-.13.42,0,.42.24a1,1,0,0,1-.12.42,1.11,1.11,0,0,1-.3.31c-.23.13-.42,0-.42-.24a.9.9,0,0,1,.13-.42A1,1,0,0,1,79,20.52Z"/><path class="cls-11" d="M77.51,21.38c.23-.14.42,0,.42.24a1,1,0,0,1-.13.41.86.86,0,0,1-.29.31c-.24.13-.42,0-.42-.24a1,1,0,0,1,.12-.41A.89.89,0,0,1,77.51,21.38Z"/><path class="cls-5" d="M20.82,101.92a1.13,1.13,0,0,1-.51.16,1.36,1.36,0,0,1-.74-.13,1.55,1.55,0,0,1-.44-.48,1.47,1.47,0,0,1-.17-.62V55.54l1.22.7v45.31c0,.29.15.46.36.46A.71.71,0,0,0,20.82,101.92Z"/><path class="cls-4" d="M20.53,101.93c-.17,0-.27-.14-.27-.38V56.3l20-11.56L82.21,20.52V65.67a1.27,1.27,0,0,1-.18.6,1.24,1.24,0,0,1-.43.45L20.78,101.85A.44.44,0,0,1,20.53,101.93Z"/><path class="cls-5" d="M82.13,20.66v45a1.22,1.22,0,0,1-.17.56,1.15,1.15,0,0,1-.4.42L20.74,101.78a.52.52,0,0,1-.21.07c-.18,0-.2-.21-.2-.32V56.35l1.7-1L40.32,44.81,82.11,20.66m.16-.28-42,24.29L22,55.23l-1.79,1v45.3c0,.3.15.47.36.47a.66.66,0,0,0,.29-.09L81.64,66.81a1.44,1.44,0,0,0,.46-.49,1.39,1.39,0,0,0,.18-.63V20.38Z"/><path class="cls-7" d="M80,39.1,22.47,72.31V63.57L80,30.36Z"/><path class="cls-5" d="M74.62,58.8,63.88,65c-.27.16-.49,0-.49-.37V53.09a1.26,1.26,0,0,1,.13-.54,1.22,1.22,0,0,1,.36-.42l10.74-6.19c.27-.16.49,0,.49.38V57.85a1.18,1.18,0,0,1-.49.95Z"/><path class="cls-15" d="M74.62,58.8,63.88,65c-.27.16-.49,0-.49-.37V53.09a1.26,1.26,0,0,1,.13-.54,1.22,1.22,0,0,1,.36-.42l10.74-6.19c.27-.16.49,0,.49.38V57.85a1.18,1.18,0,0,1-.49.95Z"/><path class="cls-4" d="M64.22,63.52V60l3-6.22,3.46,3-.82-1.63,1.84-3.2,2.58,2.14v3.65Z"/><path class="cls-4" d="M70.41,51.4a1.7,1.7,0,0,1-.17.8,1.77,1.77,0,0,1-.51.64c-.37.22-.68-.07-.68-.66a1.81,1.81,0,0,1,.68-1.44C70.11,50.53,70.41,50.82,70.41,51.4Z"/><path class="cls-5" d="M57.25,68.82,46.52,75c-.28.16-.5,0-.5-.37V63.12a1.26,1.26,0,0,1,.13-.54,1.15,1.15,0,0,1,.37-.42L57.25,56c.27-.16.5,0,.5.38V67.86a1.24,1.24,0,0,1-.14.54A1.12,1.12,0,0,1,57.25,68.82Z"/><path class="cls-4" d="M46.85,73.55V70l3-6.23,3.45,3-.81-1.64L54.33,62l2.58,2.14v3.65Z"/><path class="cls-4" d="M53.05,61.43a1.81,1.81,0,0,1-.68,1.44c-.38.21-.69-.08-.69-.64a1.84,1.84,0,0,1,.18-.8,1.67,1.67,0,0,1,.51-.64C52.74,60.55,53.05,60.85,53.05,61.43Z"/><path class="cls-7" d="M39.88,78.85l-10.73,6.2c-.28.15-.5,0-.5-.38V73.14a1.22,1.22,0,0,1,.13-.53,1.15,1.15,0,0,1,.37-.42L39.88,66c.28-.16.5,0,.5.38V77.9a1.27,1.27,0,0,1-.14.54A1.18,1.18,0,0,1,39.88,78.85Z"/><path class="cls-4" d="M29.48,83.57V80l3-6.22,3.46,3-.82-1.64L37,72l2.57,2.14v3.66Z"/><path class="cls-4" d="M35.68,71.47a1.83,1.83,0,0,1-.17.8,1.88,1.88,0,0,1-.51.64c-.38.22-.68-.08-.68-.65A1.86,1.86,0,0,1,35,70.81C35.36,70.6,35.68,70.88,35.68,71.47Z"/><path class="cls-5" d="M56.42,72.26,47.35,77.5c-.2.11-.36,0-.36-.28v-.07a.86.86,0,0,1,.1-.38.83.83,0,0,1,.26-.3l9.07-5.24c.2-.11.36,0,.36.27v.07a1,1,0,0,1-.1.39A.83.83,0,0,1,56.42,72.26Z"/><path class="cls-5" d="M39.05,82.29,30,87.52c-.2.12-.36,0-.36-.27v-.07a1,1,0,0,1,.1-.38.83.83,0,0,1,.26-.3l9.07-5.24c.2-.11.36,0,.36.27v.07a.87.87,0,0,1-.1.39A1,1,0,0,1,39.05,82.29Z"/><path class="cls-5" d="M73.79,62.23l-9.07,5.24c-.2.11-.36,0-.36-.27v-.07a.86.86,0,0,1,.09-.39,1,1,0,0,1,.27-.3l9.07-5.24c.19-.11.35,0,.35.28v.07a.85.85,0,0,1-.09.38A.83.83,0,0,1,73.79,62.23Z"/><path class="cls-5" d="M46,80l-.09,0a.23.23,0,0,1-.07-.07.22.22,0,0,1,0-.14.2.2,0,0,1,.09-.11l11.72-6.77a.18.18,0,0,1,.14,0,.18.18,0,0,1,.12.09.17.17,0,0,1,0,.14.21.21,0,0,1-.08.11L46.11,80Z"/><path class="cls-5" d="M46,81.44l-.09,0a.23.23,0,0,1-.07-.07.22.22,0,0,1,0-.14.2.2,0,0,1,.09-.11l11.72-6.76a.24.24,0,0,1,.14,0,.22.22,0,0,1,.12.09.17.17,0,0,1,0,.14.18.18,0,0,1-.08.11L46.11,81.43A.14.14,0,0,1,46,81.44Z"/><path class="cls-5" d="M46,82.89a.15.15,0,0,1-.09,0l-.07-.07a.22.22,0,0,1,0-.14.17.17,0,0,1,.09-.11l11.72-6.77a.23.23,0,0,1,.14,0,.2.2,0,0,1,.11.09.14.14,0,0,1,0,.14.15.15,0,0,1-.08.11L46.11,82.87A.1.1,0,0,1,46,82.89Z"/><path class="cls-5" d="M46,84.35a.16.16,0,0,1-.09,0,.23.23,0,0,1-.07-.07.22.22,0,0,1,0-.14.23.23,0,0,1,.09-.11l11.72-6.77a.18.18,0,0,1,.24.08.15.15,0,0,1,0,.13.19.19,0,0,1-.07.11L46.11,84.32A.16.16,0,0,1,46,84.35Z"/><path class="cls-5" d="M63.39,70a.16.16,0,0,1-.09,0,.16.16,0,0,1-.07-.07.22.22,0,0,1,0-.14.16.16,0,0,1,.09-.11L75,62.86a.14.14,0,0,1,.14,0,.15.15,0,0,1,.11.08l0,.07a.17.17,0,0,1,0,.07.15.15,0,0,1,0,.07l-.06,0L63.49,69.94A.17.17,0,0,1,63.39,70Z"/><path class="cls-5" d="M63.39,71.41a.1.1,0,0,1-.09,0,.23.23,0,0,1-.07-.07.22.22,0,0,1,0-.14.16.16,0,0,1,.09-.11L75,64.3l.07,0h.07l.07,0,.06,0a.19.19,0,0,1,0,.07.19.19,0,0,1,0,.08.25.25,0,0,1,0,.07.09.09,0,0,1-.06,0L63.49,71.39A.12.12,0,0,1,63.39,71.41Z"/><path class="cls-5" d="M63.39,72.87a.14.14,0,0,1-.09,0,.16.16,0,0,1-.07-.07.22.22,0,0,1,0-.14.19.19,0,0,1,.09-.11L75,65.75l.07,0a.09.09,0,0,1,.07,0,.09.09,0,0,1,.07,0l.06,0a.24.24,0,0,1,0,.08.17.17,0,0,1,0,.07.16.16,0,0,1,0,.07.09.09,0,0,1-.06,0L63.49,72.84A.17.17,0,0,1,63.39,72.87Z"/><path class="cls-5" d="M63.39,74.32a.16.16,0,0,1-.09,0s0,0-.07-.06a.19.19,0,0,1,0-.07.16.16,0,0,1,0-.07l0-.07.06,0L75,67.21a.09.09,0,0,1,.07,0,.11.11,0,0,1,.08,0l.07,0s0,0,.05.06a.14.14,0,0,1,0,.07.17.17,0,0,1,0,.07.15.15,0,0,1,0,.07l-.06,0L63.49,74.29A.17.17,0,0,1,63.39,74.32Z"/><path class="cls-5" d="M28.65,90l-.09,0a.23.23,0,0,1-.07-.07.19.19,0,0,1,0-.07v-.07a.16.16,0,0,1,0-.07s0,0,0,0l11.72-6.76a.11.11,0,0,1,.07,0h.08a.11.11,0,0,1,.07,0,.1.1,0,0,1,0,.06.14.14,0,0,1,0,.07s0,0,0,.07a.16.16,0,0,1,0,.07l-.06,0L28.75,90A.17.17,0,0,1,28.65,90Z"/><path class="cls-5" d="M28.65,91.47l-.09,0a.23.23,0,0,1-.07-.07.19.19,0,0,1,0-.07v-.07a.25.25,0,0,1,0-.07.1.1,0,0,1,0,0l11.72-6.77a.11.11,0,0,1,.07,0,.22.22,0,0,1,.08,0l.07,0,0,.06a.14.14,0,0,1,0,.07.22.22,0,0,1,0,.08.21.21,0,0,1,0,.06l-.06.05L28.75,91.45Z"/><path class="cls-5" d="M28.65,92.92l-.09,0-.07-.07a.14.14,0,0,1,0-.07v-.07a.25.25,0,0,1,0-.07l0,0,11.72-6.77a.18.18,0,0,1,.14,0,.22.22,0,0,1,.12.09.17.17,0,0,1,0,.14.21.21,0,0,1-.08.11L28.75,92.9Z"/><path class="cls-5" d="M28.65,94.37a.2.2,0,0,1-.11,0,.21.21,0,0,1-.06-.1.24.24,0,0,1,0-.12.24.24,0,0,1,.08-.09l11.72-6.77a.23.23,0,0,1,.14,0,.16.16,0,0,1,.1.08.17.17,0,0,1,0,.14.19.19,0,0,1-.07.11L28.75,94.35A.16.16,0,0,1,28.65,94.37Z"/><path class="cls-5" d="M80,27.53l-7.07,4.08V29L80,24.89Z"/><path class="cls-5" d="M72.59,31.8l-7.07,4.08V33.24l7.07-4.08Z"/><path class="cls-5" d="M65.19,36.07l-7.08,4.08V37.52l7.08-4.09Z"/><path class="cls-5" d="M29.55,56.65l-7.08,4.08V58.09L29.55,54Z"/><path class="cls-11" d="M56.22,62.11C58.7,56.27,58,50.4,54.73,49s-8,2.2-10.47,8-1.81,11.71,1.5,13.11S53.75,68,56.22,62.11Z"/><path class="cls-13" d="M47.35,70.86a4.11,4.11,0,0,1-2.08-.54c-1.75-1-2.75-3.32-2.75-6.34,0-5.6,3.43-12.15,7.66-14.58,1.91-1.1,3.76-1.24,5.22-.4,1.75,1,2.75,3.32,2.75,6.34,0,5.6-3.43,12.15-7.66,14.58A6.36,6.36,0,0,1,47.35,70.86Zm6-21.76a5.74,5.74,0,0,0-2.82.85c-4,2.34-7.34,8.62-7.34,14,0,2.78.89,4.89,2.43,5.78,1.26.73,2.87.59,4.58-.39,4-2.34,7.34-8.62,7.34-14,0-2.78-.88-4.89-2.43-5.78A3.41,3.41,0,0,0,53.31,49.1Z"/><path class="cls-13" d="M48.55,66.2l-3-2.24,1.28-2.44,1.56,1.19,5.25-10,1.38,1Z"/><path class="cls-9" d="M56.57,120.51a2.75,2.75,0,0,0,.4,1.24,2.79,2.79,0,0,0,.91.93l30.63,17.68a3,3,0,0,0,1.31.31,3,3,0,0,0,1.31-.31l47.76-27.58a2.48,2.48,0,0,0,1.31-2.17,2.46,2.46,0,0,0-.36-1.27,2.49,2.49,0,0,0-1-.9L108.26,90.76a2.82,2.82,0,0,0-1.31-.32,2.88,2.88,0,0,0-1.31.32L57.88,118.33a2.89,2.89,0,0,0-.91.93A2.79,2.79,0,0,0,56.57,120.51Z"/><path class="cls-8" d="M57.88,119.84l30.63,17.68a2.82,2.82,0,0,0,1.31.32,2.88,2.88,0,0,0,1.31-.32L138.89,110a.8.8,0,0,0,0-1.51L108.26,90.76a2.85,2.85,0,0,0-1.31-.32,2.88,2.88,0,0,0-1.31.32L57.88,118.33A.8.8,0,0,0,57.88,119.84Z"/><path class="cls-12" d="M89.81,137.83v2.83a2.6,2.6,0,0,1-1.31-.32L57.87,122.67a2.54,2.54,0,0,1-.94-.87,2.43,2.43,0,0,1-.37-1.23,2.54,2.54,0,0,1,.29-1.24,2.46,2.46,0,0,1,.89-.92c-.59.41-.55,1,.13,1.42L88.5,137.51A2.6,2.6,0,0,0,89.81,137.83Z"/><path class="cls-9" d="M55.34,118.37c-.67-.39-.63-1.05-.63-1.88V79.09a2.77,2.77,0,0,1,.38-1.29,3,3,0,0,1,.92-1l47.77-27.57a2.26,2.26,0,0,1,2.38.06,1.91,1.91,0,0,1,.79,1.77V88.49a2.8,2.8,0,0,1-.38,1.29,3,3,0,0,1-.92,1L57.88,118.33a2.65,2.65,0,0,1-1.26.32A2.84,2.84,0,0,1,55.34,118.37Z"/><path class="cls-8" d="M107,51.08c0-.83-.58-1.17-1.31-.75L57.88,77.91a2.52,2.52,0,0,0-.92,1L55.09,77.8a2.65,2.65,0,0,1,.93-1l47.76-27.57a2.24,2.24,0,0,1,2.38.06A1.94,1.94,0,0,1,107,51.08Z"/><path class="cls-12" d="M57.72,118.41a2.71,2.71,0,0,1-1.19.25,2.89,2.89,0,0,1-1.19-.28c-.67-.39-.63-1-.63-1.89V79.09a2.59,2.59,0,0,1,.38-1.28L57,78.89a2.66,2.66,0,0,0-.39,1.28v37.41C56.57,118.35,57.08,118.69,57.72,118.41Z"/><path d="M58.58,79.41l46-26.53c.43-.24.78,0,.78.46V88.12a1.64,1.64,0,0,1-.23.77,1.61,1.61,0,0,1-.55.58L58.58,116c-.43.26-.78,0-.78-.45V80.78A1.68,1.68,0,0,1,58,80,1.72,1.72,0,0,1,58.58,79.41Z"/><path class="cls-11" d="M58.58,79.41a1.77,1.77,0,0,0-.78,1.36V115l45.44-26.22a1.77,1.77,0,0,0,.78-1.36V53.19Z"/><path class="cls-12" d="M61.92,118.56l43.89-25.35a1.42,1.42,0,0,1,1.23,0l1.6.9a.37.37,0,0,1,.19.14.41.41,0,0,1,.07.22.44.44,0,0,1-.07.22.41.41,0,0,1-.19.13l-43.9,25.34a1.34,1.34,0,0,1-1.23,0l-1.59-.89a.45.45,0,0,1-.19-.14.41.41,0,0,1-.07-.22.44.44,0,0,1,.07-.22A.36.36,0,0,1,61.92,118.56Z"/><path class="cls-12" d="M66.23,121.1l43.89-25.34a1.22,1.22,0,0,1,.56-.17,1.26,1.26,0,0,1,.57.11l11.42,6.59c.29.16.24.45-.1.64L78.72,128.26a1.21,1.21,0,0,1-.55.16,1.22,1.22,0,0,1-.57-.09l-11.49-6.57C65.84,121.58,65.89,121.29,66.23,121.1Z"/><path class="cls-8" d="M104.26,106.4l1.38-.79c.06,0,.06-.09,0-.12l-1.31-.76-.1,0-.1,0-1.37.8c-.06,0-.06.08,0,.11l1.32.76.09,0Zm-2-2.74-1.38.79c-.06,0-.06.08,0,.11l1.32.76a.16.16,0,0,0,.09,0,.17.17,0,0,0,.1,0l1.38-.79a.06.06,0,0,0,0-.12l-1.32-.76-.1,0A.16.16,0,0,0,102.26,103.66Zm-4.44,2.55-2.33,1.34a.06.06,0,0,0,0,.12l1.32.76.1,0,.1,0,2.32-1.35c.06,0,.07-.08,0-.11L98,106.21a.18.18,0,0,0-.1,0,.17.17,0,0,0-.1,0Zm2.43-1.41-1.38.81c-.05,0-.06.08,0,.11l1.32.76a.17.17,0,0,0,.1,0,.19.19,0,0,0,.1,0l1.37-.79c.06,0,.07-.09,0-.12l-1.31-.76-.1,0-.1,0Zm-5.39,3.12-1.38.8s-.06.09,0,.11l1.32.76a.19.19,0,0,0,.1,0,.17.17,0,0,0,.1,0l1.36-.79s.06-.08,0-.12L95,107.93a.15.15,0,0,0-.09,0l-.09,0Zm-2,1.17-1.38.79c-.06,0-.06.08,0,.12l1.32.76.1,0,.1,0,1.37-.8c.06,0,.07-.09,0-.11l-1.31-.76a.19.19,0,0,0-.1,0A.17.17,0,0,0,92.85,109.09ZM98,112.18l1.37-.79c.07,0,.07-.09,0-.11l-1.31-.76a.18.18,0,0,0-.2,0l-1.37.79c-.06,0-.07.09,0,.12l1.31.75a.19.19,0,0,0,.1,0A.17.17,0,0,0,98,112.18Zm-2,1.16,1.38-.79c.06,0,.06-.08,0-.12l-1.31-.76a.16.16,0,0,0-.1,0,.2.2,0,0,0-.1,0l-1.37.79c-.06,0-.06.09,0,.12l1.32.76.09,0A.15.15,0,0,0,96,113.34Zm-2,1.16,1.37-.79c.06,0,.06-.09,0-.11L94,112.84a.17.17,0,0,0-.1,0,.19.19,0,0,0-.1,0l-1.37.79a.06.06,0,0,0,0,.12l1.31.75a.23.23,0,0,0,.11,0Zm-2,1.16,1.37-.79c.06,0,.06-.08,0-.12L92,114a.19.19,0,0,0-.1,0,.17.17,0,0,0-.1,0l-1.38.79s-.06.08,0,.11l1.32.76a.17.17,0,0,0,.1,0Zm10.28-8.1,1.37-.79c.06,0,.06-.09,0-.12l-1.32-.76-.1,0-.1,0-1.37.8c-.06,0-.06.08,0,.11l1.31.76a.22.22,0,0,0,.11,0ZM100,111l3.07-1.76c.06,0,.06-.09,0-.12L99.9,107.3a.19.19,0,0,0-.1,0,.17.17,0,0,0-.1,0l-1.6.91a.06.06,0,0,0,0,.12l1.69,1s0,.08,0,.12l-1.28.73c-.05,0-.06.09,0,.12l1.32.76.09,0,.09,0Zm-9.17-.77-1.39.78s-.06.09,0,.12l1.32.76.1,0,.1,0,1.38-.8s.06-.08,0-.11L91,110.24a.18.18,0,0,0-.1,0,.17.17,0,0,0-.1,0Zm-2,1.16-1.37.79c-.06,0-.06.08,0,.12l1.32.75a.17.17,0,0,0,.1,0l.1,0,1.37-.79c.06,0,.06-.09,0-.11L89,111.4l-.1,0a.16.16,0,0,0-.09,0ZM77.72,123.8l.1,0,.09,0,1.38-.8c.06,0,.06-.08,0-.11L78,122.13a.23.23,0,0,0-.11,0l-.1,0-1.37.79c-.06,0-.06.09,0,.12Zm-5-3.11-1.37.79c-.06,0-.07.09,0,.12l1.31.76.1,0,.1,0,1.37-.79c.06,0,.07-.09,0-.12L73,120.69a.17.17,0,0,0-.1,0l-.1,0ZM75.31,123l.1,0a.23.23,0,0,0,.11,0l1.37-.81c.06,0,.07-.08,0-.11l-1.31-.76a.18.18,0,0,0-.2,0l-1.36.8c-.06,0-.06.09,0,.12Zm5.55,1.25,1.37-.79c.06,0,.07-.09,0-.12l-1.31-.76-.1,0-.1,0-1.38.8c-.06,0-.06.08,0,.11l1.32.76a.15.15,0,0,0,.09,0,.17.17,0,0,0,.1,0Zm-2.21,1.17.1,0,.1,0,1.37-.79c.06,0,.07-.09,0-.12l-1.31-.76-.1,0-.1,0-1.37.8c-.06,0-.07.08,0,.11Zm-3.87-5.9-1.4.79s-.06.08,0,.11l1.32.76a.16.16,0,0,0,.1,0,.18.18,0,0,0,.1,0l1.37-.79c.06,0,.07-.09,0-.12L75,119.52a.2.2,0,0,0-.11,0l-.1,0Zm10-5.8-1.37.8c-.06,0-.07.08,0,.11l1.31.76a.18.18,0,0,0,.1,0,.16.16,0,0,0,.1,0l1.37-.79c.07,0,.07-.09,0-.12L85,113.74l-.1,0a.23.23,0,0,0-.11,0Zm-8,4.64-1.37.79c-.06,0-.07.09,0,.12l1.31.76.1,0,.1,0,1.37-.79c.06,0,.07-.09,0-.12L77,118.37a.18.18,0,0,0-.1,0A.16.16,0,0,0,76.78,118.37Zm10-5.8-1.37.8c-.06,0-.07.08,0,.11l1.31.76a.19.19,0,0,0,.1,0,.17.17,0,0,0,.1,0l1.38-.79c.06,0,.06-.09,0-.12L87,112.57a.16.16,0,0,0-.1,0,.17.17,0,0,0-.1,0Zm-4,2.32-1.38.79c-.06,0-.06.09,0,.12l1.32.76a.16.16,0,0,0,.1,0,.2.2,0,0,0,.1,0l1.37-.8c.06,0,.07-.08,0-.11L83,114.89a.19.19,0,0,0-.1,0l-.1,0Zm-2,1.16-1.38.8c-.06,0-.06.08,0,.11l1.32.76a.16.16,0,0,0,.1,0,.18.18,0,0,0,.1,0l1.37-.79c.06,0,.07-.09,0-.12L81,116.05l-.1,0a.12.12,0,0,0-.1,0Zm-2,1.16-1.38.79s-.06.09,0,.12l1.32.76.1,0,.1,0,1.37-.8c.06,0,.07-.08,0-.11L79,117.21a.17.17,0,0,0-.1,0l-.1,0ZM88,118l1.37-.8c.06,0,.07-.08,0-.11L88,116.32a.26.26,0,0,0-.2,0l-1.35.79c-.06,0-.07.09,0,.12l1.31.76a.14.14,0,0,0,.09,0,.15.15,0,0,0,.09,0ZM106.7,101.1l-1.38.79a.06.06,0,0,0,0,.12l1.32.76.1,0,.1,0,1.37-.8c.06,0,.07-.08,0-.11l-1.32-.78h-.1l-.09,0Zm-2.43,1.4-1.38.8c-.06,0-.06.08,0,.11l1.32.76a.16.16,0,0,0,.1,0,.2.2,0,0,0,.1,0l1.36-.79c.06,0,.06-.09,0-.12l-1.32-.76-.09,0h-.09ZM108.7,100l-1.37.79c-.06,0-.06.09,0,.12l1.32.75a.17.17,0,0,0,.1,0,.19.19,0,0,0,.1,0l1.37-.79c.06,0,.06-.08,0-.11L108.9,100a.14.14,0,0,0-.09,0,.21.21,0,0,0-.11,0ZM97.6,110.26l1.38-.79c.06,0,.06-.09,0-.12l-1.32-.76-.1,0-.1,0-1.37.79c-.06,0-.07.09,0,.12l1.31.76.1,0,.1,0Zm13.31-11.49-.1,0-.1,0-1.37.8c-.06,0-.07.09,0,.11l1.32.76a.17.17,0,0,0,.1,0,.16.16,0,0,0,.09,0l1.38-.79a.06.06,0,0,0,0-.12ZM90,116.82l1.37-.79c.06,0,.06-.09,0-.12L90,115.16l-.1,0a.23.23,0,0,0-.11,0l-1.37.79c-.06,0-.06.09,0,.11l1.32.76a.17.17,0,0,0,.1,0Zm24.63-14.22,1.37-.79c.06,0,.07-.09,0-.12l-1.31-.76-.1,0-.1,0-1.38.8c-.06,0-.06.08,0,.11l1.32.76a.15.15,0,0,0,.09,0,.18.18,0,0,0,.1,0Zm-3.89.08,1.38-.8c.05,0,.06-.08,0-.11l-1.32-.76a.17.17,0,0,0-.1,0,.19.19,0,0,0-.1,0l-1.38.79s-.06.09,0,.11l1.32.76a.17.17,0,0,0,.1,0l.09,0Zm2.08-2.83-.1,0-.1,0-1.37.79c-.06,0-.07.09,0,.12l1.31.76.1,0,.1,0,1.38-.8c.06,0,.06-.08,0-.11Zm.42-.25,3.2,1.85.1,0,.1,0,1.37-.8c.06,0,.07-.08,0-.11L114.8,98.7a.17.17,0,0,0-.1,0,.19.19,0,0,0-.1,0l-1.38.79s-.06.09,0,.11Zm-4.64,2.58-1.37.79c-.06,0-.06.08,0,.12l1.32.75a.17.17,0,0,0,.1,0l.1,0,1.35-.78c.06,0,.06-.09,0-.12l-1.32-.76-.09,0a.18.18,0,0,0-.1,0ZM93.47,110.9l-1.38.8c-.06,0-.06.08,0,.11l1.32.76a.17.17,0,0,0,.1,0,.19.19,0,0,0,.1,0l1.37-.79c.06,0,.06-.09,0-.12l-1.31-.76-.11,0-.1,0Zm18.93-7.13.1,0,.1,0L114,103c.06,0,.07-.08,0-.11l-1.31-.76a.16.16,0,0,0-.1,0,.18.18,0,0,0-.1,0l-1.37.79c-.06,0-.07.09,0,.12Zm-16.91,6-1.38.8s-.06.08,0,.11l1.32.76a.17.17,0,0,0,.1,0l.1,0,1.37-.79c.06,0,.06-.09,0-.12l-1.31-.76-.12,0a.21.21,0,0,0-.1,0ZM79.75,122.63l.1,0,.1,0,1.37-.8c.06,0,.07-.08,0-.11L80,121a.18.18,0,0,0-.1,0,.16.16,0,0,0-.1,0l-1.38.79c-.05,0-.06.09,0,.12Zm-2.34-2.45L76,121c-.06,0-.07.09,0,.12l1.31.76.1,0,.1,0,1.38-.8c.06,0,.06-.08,0-.11l-1.32-.76a.22.22,0,0,0-.22,0ZM82,121.46l1.38-.79c.06,0,.06-.09,0-.12L82,119.79l-.1,0-.1,0-1.37.81c-.06,0-.06.09,0,.12l1.31.76h.1a.16.16,0,0,0,.09,0Zm2-1.16,1.38-.8c.06,0,.06-.08,0-.11L84,118.63a.15.15,0,0,0-.09,0,.16.16,0,0,0-.1,0l-1.38.79c-.06,0-.06.09,0,.12l1.32.76.08,0,.09,0Zm2-1.16,1.38-.79c.05,0,.06-.09,0-.12L86,117.47l-.1,0-.1,0-1.37.8c-.06,0-.07.08,0,.11l1.31.76.09,0a.15.15,0,0,0,.09,0ZM79.4,119,78,119.8s-.06.09,0,.12l1.32.75a.18.18,0,0,0,.2,0l1.37-.79c.06,0,.07-.08,0-.11L79.6,119a.19.19,0,0,0-.1,0A.17.17,0,0,0,79.4,119Zm2-1.16-1.38.79a.06.06,0,0,0,0,.12l1.32.76.1,0,.1,0,1.37-.8c.06,0,.06-.08,0-.11l-1.31-.76-.11,0a.16.16,0,0,0-.09,0Zm8-4.64-1.37.79c-.06,0-.07.09,0,.12l1.31.76.1,0,.1,0,1.37-.8c.07,0,.07-.08,0-.11l-1.29-.75-.11,0a.2.2,0,0,0-.11,0Zm-2,1.17-1.36.8c-.06,0-.07.08,0,.12l1.31.75a.19.19,0,0,0,.1,0,.17.17,0,0,0,.1,0l1.37-.79c.06,0,.07-.08,0-.11l-1.31-.76a.19.19,0,0,0-.1,0Zm4-2.32-1.38.8s-.06.08,0,.11l1.32.76a.17.17,0,0,0,.1,0,.19.19,0,0,0,.1,0l1.37-.79c.06,0,.07-.09,0-.12l-1.31-.76-.1,0-.09,0Zm-8,4.64-1.38.79c-.06,0-.06.09,0,.12l1.32.76.1,0,.1,0,1.37-.79c.06,0,.07-.09,0-.12l-1.32-.76-.09,0-.09,0Zm2-1.16-1.37.8c-.06,0-.06.08,0,.11l1.32.76.1,0,.1,0,1.37-.79c.06,0,.06-.09,0-.12l-1.32-.76-.09,0-.1,0Zm-2.55,7.56,1.38-.8c.05,0,.06-.08,0-.11l-1.32-.76a.17.17,0,0,0-.1,0,.19.19,0,0,0-.1,0l-1.36.8c-.06,0-.06.08,0,.11l1.32.76.09,0Zm-10.59-.5L71,121.84a.17.17,0,0,0-.1,0,.16.16,0,0,0-.09,0l-1.38.79c-.06,0-.06.08,0,.12l1.31.76.1,0,.11,0,1.37-.8S72.32,122.62,72.27,122.6Zm2.62.65-1.32-.76-.1,0-.1,0-2.11,1.23c-.06,0-.06.08,0,.11l1.31.76.1,0,.1,0,2.12-1.22S74.94,123.28,74.89,123.25Zm-4.58-2.15L69,120.34a.17.17,0,0,0-.1,0,.19.19,0,0,0-.1,0l-1.69,1c-.06,0-.06.09,0,.12l1.31.76.1,0,.1,0,1.7-1S70.36,121.12,70.31,121.1Zm1.29-.75.1,0,.1,0,1.38-.8s.06-.08,0-.11l-1.32-.76a.17.17,0,0,0-.1,0,.19.19,0,0,0-.1,0l-1.37.79c-.06,0-.07.09,0,.11ZM77.29,124,76,123.27l-.1,0-.1,0-2.64,1.53c-.06,0-.07.08,0,.12l1.31.75a.17.17,0,0,0,.1,0,.19.19,0,0,0,.1,0l2.64-1.52S77.35,124.06,77.29,124Zm.93,1.64-1.33-.76a.17.17,0,0,0-.1,0,.19.19,0,0,0-.1,0l-1.69,1c-.06,0-.06.09,0,.12l1.32.76.1,0,.1,0,1.69-1C78.27,125.75,78.27,125.71,78.22,125.67Zm8.32-13.94.1,0,.1,0,1.37-.8c.06,0,.06-.09,0-.11l-1.32-.76a.16.16,0,0,0-.09,0,.17.17,0,0,0-.1,0l-1.38.79c-.06,0-.06.09,0,.12Zm-4,2.31a.17.17,0,0,0,.1,0,.19.19,0,0,0,.1,0l1.37-.79c.06,0,.07-.09,0-.11l-1.31-.76a.19.19,0,0,0-.1,0,.17.17,0,0,0-.1,0l-1.38.79a.06.06,0,0,0,0,.12Zm-8.91,5.15.1,0,.1,0,1.37-.8c.06,0,.07-.08,0-.11l-1.31-.76a.26.26,0,0,0-.2,0l-1.37.79c-.06,0-.07.09,0,.12Zm10.92-6.31a.17.17,0,0,0,.1,0,.19.19,0,0,0,.1,0l1.37-.79c.06,0,.07-.08,0-.11l-1.31-.76a.19.19,0,0,0-.1,0,.17.17,0,0,0-.1,0l-1.38.79a.06.06,0,0,0,0,.12Zm-4,2.32a.19.19,0,0,0,.1,0,.17.17,0,0,0,.1,0l1.37-.79c.06,0,.07-.08,0-.12l-1.31-.75a.19.19,0,0,0-.1,0,.17.17,0,0,0-.1,0l-1.38.79s-.06.09,0,.11Zm-1.3,10.55a.19.19,0,0,0-.1,0,.17.17,0,0,0-.1,0L76.89,127c-.06,0-.06.08,0,.11l1.32.76a.17.17,0,0,0,.1,0,.19.19,0,0,0,.1,0l2.11-1.22c.06,0,.07-.08,0-.12Zm-1.58-8.88.1,0,.1,0,1.37-.8c.06,0,.06-.08,0-.11l-1.3-.78-.1,0-.1,0-1.37.8c-.06,0-.07.08,0,.11Zm-2,1.16.1,0,.1,0,1.37-.79c.06,0,.06-.09,0-.12l-1.31-.76a.18.18,0,0,0-.1,0,.22.22,0,0,0-.11,0l-1.37.79c-.06,0-.06.09,0,.12Zm40.8-13.77-.1,0-.11,0-3.38,2s-.06.08,0,.11l1.32.76a.16.16,0,0,0,.1,0,.18.18,0,0,0,.1,0l3.38-2c.06,0,.06-.09,0-.12ZM112,106.82a.17.17,0,0,0-.1,0,.19.19,0,0,0-.1,0l-1.37.79c-.06,0-.06.08,0,.11l1.32.76a.17.17,0,0,0,.1,0,.19.19,0,0,0,.1,0l1.37-.79c.06,0,.06-.09,0-.12Zm-27.12,15.1,1.38-.79c.06,0,.06-.08,0-.12l-1.32-.76-.1,0-.1,0-1.37.8c-.06,0-.07.08,0,.11l1.31.76a.21.21,0,0,0,.11,0l.11,0ZM108,109.13l-.1,0-.1,0-1.38.79c-.06,0-.06.09,0,.12l1.32.76.1,0,.1,0,1.37-.8c.06,0,.07-.08,0-.11Zm10.46-6-.1,0-.09,0-1.38.79c-.06,0-.06.09,0,.12l1.31.76.1,0,.11,0,1.37-.79c.06,0,.06-.09,0-.12Zm3.33-.4-3.19-1.84a.19.19,0,0,0-.1,0,.17.17,0,0,0-.1,0l-1.38.79c-.06,0-.06.09,0,.11l3.19,1.85.1,0,.1,0,1.38-.8c.05,0,.06-.06,0-.1Zm-21.3,10.78a.17.17,0,0,0-.1,0,.19.19,0,0,0-.1,0l-1.69,1c-.06,0-.06.09,0,.12l1.32.76.1,0,.1,0,1.69-1c.06,0,.06-.08,0-.12Zm5.08-2.93a.19.19,0,0,0-.1,0,.17.17,0,0,0-.1,0l-2.12,1.21c-.06,0-.06.09,0,.12l1.32.76.1,0,.1,0,2.11-1.22c.06,0,.06-.09,0-.12Zm-9.73,5.61-.1,0-.1,0-11.31,6.53c-.06,0-.06.09,0,.12l1.31.76.1,0,.11,0L97.11,117s.06-.08,0-.11Zm-11.93,6.91-.1,0-.1,0L82,124c-.06,0-.07.08,0,.11l1.31.76a.19.19,0,0,0,.1,0,.17.17,0,0,0,.1,0l1.69-1c.06,0,.07-.09,0-.12Zm14.27-8.24a.18.18,0,0,0-.1,0,.16.16,0,0,0-.1,0l-1.69,1c-.06,0-.07.08,0,.11l1.31.76a.18.18,0,0,0,.1,0,.16.16,0,0,0,.1,0l1.69-1c.06,0,.07-.08,0-.11Zm-16.59,9.57-.1,0-.1,0-1.69,1c-.06,0-.07.08,0,.11l1.31.76a.19.19,0,0,0,.1,0,.17.17,0,0,0,.1,0l1.69-1c.06,0,.07-.09,0-.12Zm21.25-12.27-.1,0-.1,0-1.69,1c-.06,0-.07.09,0,.12l1.31.75a.19.19,0,0,0,.1,0,.17.17,0,0,0,.1,0l1.69-1c.06,0,.07-.09,0-.12ZM110,108a.19.19,0,0,0-.1,0,.17.17,0,0,0-.1,0l-1.39.82s-.06.08,0,.11l1.32.76a.17.17,0,0,0,.1,0,.19.19,0,0,0,.1,0l1.37-.79c.06,0,.07-.09,0-.12Zm4.5-3.14,1.37-.8c.06,0,.06-.08,0-.11l-1.31-.75a.16.16,0,0,0-.1,0,.18.18,0,0,0-.1,0L113,104c-.06,0-.06.09,0,.12l1.31.76.1,0,.09,0Zm-8.2.39,1.37-.79c.06,0,.06-.09,0-.12l-1.31-.76-.1,0-.1,0-1.38.8c-.06,0-.06.08,0,.11l1.32.76a.16.16,0,0,0,.09,0l.1,0Zm-5.34,7.42,4-2.31a.06.06,0,0,0,0-.12l-1.31-.76-.1,0-.1,0-4,2.32a.06.06,0,0,0,0,.12l1.32.76.09,0,.09,0ZM112.26,106a.23.23,0,0,0,.11,0l.1,0,1.37-.79c.06,0,.06-.09,0-.11l-1.31-.77-.1,0-.1,0-1.37.79c-.06,0-.07.09,0,.12Zm-1.67-1.09,1.37-.79c.06,0,.07-.09,0-.12l-1.31-.76-.1,0-.1,0-1.38.8c-.06,0-.06.08,0,.11l1.32.76a.16.16,0,0,0,.09,0l.1,0Zm-11.66,8.9,1.38-.8c.06,0,.06-.08,0-.11L99,112.14l-.09,0-.1,0-1.37.81c-.06,0-.07.08,0,.11l1.31.76.09,0,.1,0Zm8.9-5.24.1,0,.09,0,1.38-.8c.06,0,.06-.08,0-.11l-1.32-.76a.16.16,0,0,0-.1,0,.2.2,0,0,0-.1,0l-1.37.79a.06.06,0,0,0,0,.12Zm-18.94,11,1.38-.8s.06-.08,0-.11L89,117.94a.17.17,0,0,0-.1,0,.19.19,0,0,0-.1,0l-1.37.79c-.06,0-.07.08,0,.11l1.31.76a.17.17,0,0,0,.1,0,.14.14,0,0,0,.09,0Zm2-1.16,1.38-.8s.06-.08,0-.11L91,116.78a.16.16,0,0,0-.09,0,.17.17,0,0,0-.1,0l-1.38.79a.06.06,0,0,0,0,.12l1.32.75a.14.14,0,0,0,.09,0h.1Zm-4,2.32,1.38-.8c.06,0,.06-.08,0-.11l-1.32-.76a.15.15,0,0,0-.09,0,.16.16,0,0,0-.1,0l-1.38.79c-.06,0-.06.09,0,.12l1.32.76.09,0h.1Zm8-4.63,1.38-.8s.06-.08,0-.11L95,114.47a.16.16,0,0,0-.1,0,.18.18,0,0,0-.1,0l-1.37.79c-.06,0-.07.09,0,.12l1.31.76.1,0Zm-2,1.16,1.38-.8c.06,0,.06-.08,0-.11L93,115.63a.16.16,0,0,0-.1,0,.18.18,0,0,0-.1,0l-1.37.79c-.06,0-.07.09,0,.12l1.31.76.1,0Zm4-2.32,1.37-.79c.06,0,.07-.09,0-.12l-1.3-.76a.16.16,0,0,0-.1,0,.18.18,0,0,0-.1,0l-1.37.79c-.06,0-.06.09,0,.12l1.32.76.09,0Zm11-16.14a.18.18,0,0,0,.2,0l1.37-.79c.06,0,.07-.08,0-.11l-.35-.21-.1,0-.1,0-1.37.8c-.06,0-.06.08,0,.11Zm-10,6.33.1,0,.1,0,1.37-.8c.06,0,.06-.08,0-.11l-1.31-.76-.1,0a.23.23,0,0,0-.11,0l-1.37.79c-.06,0-.06.08,0,.11Zm4-2.32.1,0,.11,0,1.37-.8c.06,0,.06-.08,0-.11l-1.32-.76a.17.17,0,0,0-.1,0,.19.19,0,0,0-.1,0l-1.37.79c-.06,0-.06.08,0,.11Zm-6.47,3.73a.2.2,0,0,0,.1,0,.16.16,0,0,0,.1,0l1.38-.79a.06.06,0,0,0,0-.12l-1.3-.76a.19.19,0,0,0-.1,0,.17.17,0,0,0-.1,0l-1.37.79c-.06,0-.07.09,0,.12ZM99.91,104l.1,0,.1,0,1.38-.8c.05,0,.06-.08,0-.11l-1.3-.77-.1,0-.1,0-1.4.8c-.06,0-.06.09,0,.12Zm-8.48,4.89a.18.18,0,0,0,.1,0,.16.16,0,0,0,.1,0l1.38-.79a.06.06,0,0,0,0-.12l-1.32-.76-.1,0-.1,0-1.37.8c-.06,0-.07.08,0,.11Zm2-1.16a.19.19,0,0,0,.1,0,.17.17,0,0,0,.1,0L95,107s.06-.08,0-.11l-1.32-.76a.17.17,0,0,0-.1,0,.19.19,0,0,0-.1,0l-1.37.79c-.06,0-.07.09,0,.12Zm10.43-6.58a.17.17,0,0,0,.1,0,.19.19,0,0,0,.1,0l1.37-.79c.06,0,.07-.08,0-.11l-.35-.21-.1,0-.1,0-1.37.8c-.06,0-.06.08,0,.11Zm6-3.47.1,0,.1,0,1.38-.8c.06,0,.06-.08,0-.11l-.35-.21-.1,0-.1,0-1.37.79c-.06,0-.07.09,0,.12Zm2.77,1.59a.17.17,0,0,0,.1,0,.19.19,0,0,0,.1,0l1.37-.79c.06,0,.06-.09,0-.11l-1.31-.76a.23.23,0,0,0-.11,0l-.1,0-1.37.79c-.06,0-.06.08,0,.12Zm3.83,4.41,1.37-.79c.06,0,.06-.09,0-.12l-1.32-.76-.1,0-.09,0-1.38.8c-.06,0-.06.08,0,.11l1.32.76a.15.15,0,0,0,.09,0,.12.12,0,0,0,.1,0ZM105.88,100a.18.18,0,0,0,.1,0,.16.16,0,0,0,.1,0l1.38-.79c.05,0,.06-.09,0-.12l-.35-.2a.18.18,0,0,0-.1,0,.16.16,0,0,0-.1,0l-1.38.79c-.06,0-.06.09,0,.12ZM89.42,110.08l.1,0,.1,0,1.37-.8c.06,0,.07-.08,0-.11l-1.31-.76a.18.18,0,0,0-.1,0,.16.16,0,0,0-.1,0l-1.38.79c-.06,0-.06.09,0,.12Z"/><path class="cls-12" d="M95.17,121.49l.3.17,7.94,4.59,14.11-8.15.3-.17-8.24-4.76Z"/><path class="cls-9" d="M117.34,118.2l-7.76-4.48-13.93,8,7.76,4.48Z"/><path class="cls-5" d="M60,85.57a1.29,1.29,0,0,1-.43-.47,1.22,1.22,0,0,1-.17-.61V81a1.39,1.39,0,0,1,.18-.63,1.48,1.48,0,0,1,.45-.48l40.77-23.56a1.28,1.28,0,0,1,.61-.18,1.22,1.22,0,0,1,.62.16,1.17,1.17,0,0,1,.45.46,1.14,1.14,0,0,1,.15.62v3.51a1.39,1.39,0,0,1-.18.63,1.51,1.51,0,0,1-.46.48L61.19,85.55a1.46,1.46,0,0,1-.62.16A1.48,1.48,0,0,1,60,85.57Z"/><path class="cls-14" d="M60.74,81a1.29,1.29,0,0,0-.19.64v1.91l-1.21-.68v-2l0-.16a1.34,1.34,0,0,1,.16-.39Z"/><path class="cls-7" d="M102.59,57.39V59.3L80.33,72.17l-18,10.41-1.76,1V81.68a1.4,1.4,0,0,1,.19-.63,1.47,1.47,0,0,1,.45-.48L102,57C102.3,56.81,102.59,57,102.59,57.39Z"/><path class="cls-11" d="M100.84,58.59c.23-.13.41,0,.41.24a.82.82,0,0,1-.12.41,1,1,0,0,1-.29.31c-.23.13-.41,0-.41-.24a.88.88,0,0,1,.12-.41A1,1,0,0,1,100.84,58.59Z"/><path class="cls-11" d="M99.35,59.45c.23-.13.42,0,.42.24a1,1,0,0,1-.12.41.79.79,0,0,1-.3.3c-.22.13-.41,0-.41-.24a.93.93,0,0,1,.12-.4A1.08,1.08,0,0,1,99.35,59.45Z"/><path class="cls-11" d="M97.87,60.3c.23-.13.42,0,.42.24a1,1,0,0,1-.12.41,1.11,1.11,0,0,1-.3.31c-.22.13-.41,0-.41-.24a.93.93,0,0,1,.12-.41A1,1,0,0,1,97.87,60.3Z"/><path class="cls-5" d="M61.19,111.88a1.16,1.16,0,0,1-.51.15,1.23,1.23,0,0,1-.73-.12,1.49,1.49,0,0,1-.43-.47,1.47,1.47,0,0,1-.17-.61V82.91l1.2.7v27.9c0,.29.15.46.36.46A.71.71,0,0,0,61.19,111.88Z"/><path class="cls-4" d="M60.9,111.89c-.17,0-.27-.14-.27-.38V83.65l19.74-11.4,22.14-12.8V87.22a1.23,1.23,0,0,1-.18.59,1.39,1.39,0,0,1-.42.45L61.15,111.81A.46.46,0,0,1,60.9,111.89Z"/><path class="cls-5" d="M102.42,59.58V87.22a1.14,1.14,0,0,1-.17.54,1.31,1.31,0,0,1-.39.42L61.11,111.75a.47.47,0,0,1-.21.06c-.17,0-.19-.21-.19-.3V83.69l1.68-1,18-10.42Zm.16-.27L80.32,72.18l-18,10.41-1.76,1v27.9c0,.29.15.46.35.46a.52.52,0,0,0,.29-.09l40.76-23.56a1.35,1.35,0,0,0,.45-.47,1.4,1.4,0,0,0,.19-.63Z"/><path class="cls-7" d="M100.88,74.5,62.25,96.8V88.35l38.63-22.3Z"/><path class="cls-5" d="M100.45,87.19l-8.91,5.14c-.22.13-.41,0-.41-.32V82.44a.93.93,0,0,1,.12-.44,1,1,0,0,1,.29-.35l8.91-5.14c.23-.13.41,0,.41.32V86.4a1,1,0,0,1-.11.44A.92.92,0,0,1,100.45,87.19Z"/><path class="cls-15" d="M100.45,87.19l-8.91,5.14c-.22.13-.41,0-.41-.32V82.44a.93.93,0,0,1,.12-.44,1,1,0,0,1,.29-.35l8.91-5.14c.23-.13.41,0,.41.32V86.4a1,1,0,0,1-.11.44A.92.92,0,0,1,100.45,87.19Z"/><path class="cls-4" d="M91.82,91.11v-3L94.32,83l2.87,2.5-.68-1.36L98,81.47l2.15,1.78v3Z"/><path class="cls-4" d="M96.89,80.86c.15-.51.06-1-.22-1.07s-.61.26-.77.77-.06,1,.22,1.07S96.73,81.37,96.89,80.86Z"/><path class="cls-5" d="M86,95.51l-8.91,5.14c-.23.13-.41,0-.41-.32V90.76a1,1,0,0,1,.11-.44.89.89,0,0,1,.3-.34L86,84.83c.22-.13.41,0,.41.32v9.58a1.14,1.14,0,0,1-.11.44A1.22,1.22,0,0,1,86,95.51Z"/><path class="cls-4" d="M77.41,99.43v-3l2.49-5.16,2.87,2.49-.68-1.36,1.53-2.65,2.14,1.78v3Z"/><path class="cls-4" d="M82.55,89.37a1.63,1.63,0,0,1-.14.66,1.48,1.48,0,0,1-.43.53c-.32.19-.56-.06-.56-.54A1.5,1.5,0,0,1,82,88.83C82.3,88.64,82.55,88.89,82.55,89.37Z"/><path class="cls-7" d="M71.62,103.83,62.71,109c-.23.13-.41,0-.41-.32V99.09a.93.93,0,0,1,.11-.44,1,1,0,0,1,.3-.35l8.91-5.13c.23-.14.41,0,.41.31v9.58a.92.92,0,0,1-.11.43A1,1,0,0,1,71.62,103.83Z"/><path class="cls-4" d="M63,107.75v-3l2.49-5.16,2.87,2.5-.67-1.36,1.52-2.66,2.14,1.78v3Z"/><path class="cls-4" d="M68.13,97.69a1.42,1.42,0,0,1-.14.67,1.57,1.57,0,0,1-.43.53c-.32.18-.56-.07-.56-.55a1.38,1.38,0,0,1,.14-.66,1.46,1.46,0,0,1,.42-.53C67.88,97,68.13,97.21,68.13,97.69Z"/><path class="cls-5" d="M100.88,64.14l-4.75,2.74V65.11l4.75-2.74Z"/><path class="cls-5" d="M95.9,67l-4.75,2.75V68l4.75-2.75Z"/><path class="cls-5" d="M90.93,69.88l-4.75,2.74V70.85l4.75-2.74Z"/><path class="cls-5" d="M67,83.7l-4.75,2.74V84.67L67,81.93Z"/><path class="cls-11" d="M85.44,86c1.88-4.42,1.37-8.86-1.13-9.93s-6,1.66-7.92,6.07S75,91,77.51,92.07,83.56,90.41,85.44,86Z"/><path class="cls-13" d="M78.66,92.53a3.08,3.08,0,0,1-1.57-.42c-1.33-.76-2.08-2.5-2.08-4.78,0-4.24,2.59-9.19,5.78-11a3.86,3.86,0,0,1,3.95-.3c1.32.76,2.07,2.5,2.07,4.78,0,4.24-2.59,9.19-5.78,11A4.82,4.82,0,0,1,78.66,92.53Zm4.5-16.46a4.45,4.45,0,0,0-2.13.64c-3,1.77-5.54,6.53-5.54,10.61,0,2.1.67,3.7,1.84,4.37a3.41,3.41,0,0,0,3.46-.3c3.06-1.76,5.54-6.52,5.54-10.61,0-2.1-.67-3.69-1.84-4.37a2.54,2.54,0,0,0-1.33-.32Z"/><path class="cls-13" d="M79.56,89l-2.23-1.69,1-1.84,1.19.9,4-7.57,1,.79Z"/><path class="cls-9" d="M49,128.07V84.41c0-1.14.1-1.52-.53-2a1.92,1.92,0,0,0-1-.32,1.87,1.87,0,0,0-1,.27L28.14,92.89a2.88,2.88,0,0,0-.9,1,2.84,2.84,0,0,0-.38,1.27v44.23a1.57,1.57,0,0,0,.21.88,2.1,2.1,0,0,0,1.52.88,1.5,1.5,0,0,0,.84-.27l18.26-10.53a2.37,2.37,0,0,0,1-.94A2.49,2.49,0,0,0,49,128.07Z"/><path class="cls-12" d="M47.81,128.48,29,139.33V94.91l-1.81-1a2.76,2.76,0,0,0-.38,1.28v44.21a1.58,1.58,0,0,0,.22.88,1.45,1.45,0,0,0,.66.61,1.53,1.53,0,0,0,.85.27,1.5,1.5,0,0,0,.84-.27l18.26-10.53a2.4,2.4,0,0,0,1.12-1.25l-.07,0Z"/><path class="cls-8" d="M47.64,83.46,29.33,94a2,2,0,0,0-.91,1.57v43.86c0,.88.64,1.24,1.4.8L47.64,130a2.34,2.34,0,0,0,.73-.77,2.24,2.24,0,0,0,.3-1V84.06C48.67,83.41,48.21,83.14,47.64,83.46Z"/><path d="M47.78,86.15v41a2.23,2.23,0,0,1-.29,1,2.19,2.19,0,0,1-.69.73l-16.51,9.54c-.53.32-1,.06-1-.57V96.51A2.22,2.22,0,0,1,30,95l.09-.08.2-.14,4.65-2.68s.13-.08.32-.17.32,0,.32.17.14.27.31.16l5.43-3.12a.69.69,0,0,0,.22-.23.67.67,0,0,0,.1-.31.6.6,0,0,1,.08-.28.57.57,0,0,1,.19-.22l0,0,4.52-2.61.09-.06C47.22,85.05,47.78,85.37,47.78,86.15Z"/><path class="cls-11" d="M45.39,127.75a2.16,2.16,0,0,0,.68-.73,2.19,2.19,0,0,0,.29-1V85.54l-4.47,2.57,0,0a.67.67,0,0,0-.19.22.74.74,0,0,0-.08.28.8.8,0,0,1-.09.31.84.84,0,0,1-.23.23l-5.42,3.12c-.18.11-.32,0-.32-.16s-.14-.27-.32-.17l-.32.17-4.6,2.69-.2.14L30,95a2.18,2.18,0,0,0-.68,1.47V137Z"/><path class="cls-12" d="M36.69,90.65l2.48-1.43c.15-.08.27,0,.27.14a.67.67,0,0,1-.08.25.58.58,0,0,1-.19.19l-2.48,1.45c-.15.09-.27,0-.27-.14a.6.6,0,0,1,.27-.46Z"/><path class="cls-12" d="M40.44,88.38c.17-.1.32,0,.32.17a.63.63,0,0,1-.1.3.69.69,0,0,1-.22.23c-.17.09-.32,0-.32-.18a.67.67,0,0,1,.1-.3A.66.66,0,0,1,40.44,88.38Z"/><path class="cls-8" d="M28,100.14a1.05,1.05,0,0,0-.13-.49,1.16,1.16,0,0,0-.35-.38.27.27,0,0,0-.15,0,.22.22,0,0,0-.16,0l-.37.2a.33.33,0,0,0-.11.15.32.32,0,0,0,0,.19v3.6a1.05,1.05,0,0,0,.13.49,1.16,1.16,0,0,0,.35.38.39.39,0,0,0,.15.06.51.51,0,0,0,.17,0c.06,0,.31-.17.36-.21a.29.29,0,0,0,.12-.15.32.32,0,0,0,0-.19Z"/><path class="cls-9" d="M27.65,100.34v3.6c0,.32-.22.47-.48.32a1,1,0,0,1-.34-.37,1.07,1.07,0,0,1-.14-.49V99.79c0-.32.22-.46.48-.32a1.12,1.12,0,0,1,.34.38A1.07,1.07,0,0,1,27.65,100.34Z"/><path class="cls-8" d="M28,106.44a1.05,1.05,0,0,0-.13-.49,1,1,0,0,0-.35-.37.34.34,0,0,0-.15-.06.41.41,0,0,0-.16,0l-.36.21a.26.26,0,0,0-.12.15.31.31,0,0,0,0,.19v3.6a1.05,1.05,0,0,0,.13.49,1.12,1.12,0,0,0,.35.37.39.39,0,0,0,.15.06.33.33,0,0,0,.17,0l.35-.21a.26.26,0,0,0,.12-.15.31.31,0,0,0,0-.19Z"/><path class="cls-9" d="M27.65,106.65v3.6c0,.32-.22.46-.48.32a1.09,1.09,0,0,1-.34-.37,1.07,1.07,0,0,1-.14-.49V106.1c0-.32.22-.47.48-.32a1,1,0,0,1,.34.37A1.25,1.25,0,0,1,27.65,106.65Z"/><path class="cls-5" d="M48.84,86.27a.93.93,0,0,0-.89.09l-.09.06-4.61,2.66,0,0a.71.71,0,0,0-.19.23.57.57,0,0,0-.08.28.67.67,0,0,1-.1.31.64.64,0,0,1-.22.24l-5.49,3.17a.36.36,0,0,0,0-.11.27.27,0,0,0-.07-.08L36.72,93a.15.15,0,0,0-.11,0,.21.21,0,0,0-.11,0l-.32.18-4.72,2.72-.19.16-.09.08a2.18,2.18,0,0,0-.7,1.49v36.14a.74.74,0,0,0,.06.36.7.7,0,0,0,.23.28l.32.19a.73.73,0,0,0,.7-.08l16.75-9.67a2.16,2.16,0,0,0,.7-.74,2.23,2.23,0,0,0,.29-1V87.27a.89.89,0,0,0-.07-.46,1,1,0,0,0-.29-.35Z"/><path class="cls-14" d="M31.87,134.37v.08l-.09.06a.83.83,0,0,1-.34.13.74.74,0,0,1-.36-.06l-.32-.19a.63.63,0,0,1-.23-.28.7.7,0,0,1-.06-.35V97.6a2,2,0,0,1,.34-1.06l.38.22a2,2,0,0,0-.32,1v36.16a.72.72,0,0,0,.14.47.35.35,0,0,0,.15.12.41.41,0,0,0,.19,0,.79.79,0,0,0,.41-.13Z"/><path class="cls-14" d="M43.44,89.48a.6.6,0,0,0-.12.32.63.63,0,0,1-.12.37L42.82,90a.66.66,0,0,0,.12-.32.65.65,0,0,1,.12-.36Z"/><path class="cls-4" d="M31.34,134.57a.41.41,0,0,1-.19,0,.38.38,0,0,1-.16-.12.78.78,0,0,1-.13-.47V97.78a2.14,2.14,0,0,1,.67-1.44l0,0,.06,0,.19-.13,4.72-2.72.32-.18a.17.17,0,0,1,.1,0c.09,0,.1.1.1.15a.34.34,0,0,0,0,.1.26.26,0,0,0,0,.09.27.27,0,0,0,.08.07l.1,0a.31.31,0,0,0,.19-.06L43,90.4a.65.65,0,0,0,.26-.26.8.8,0,0,0,.11-.34.77.77,0,0,1,.07-.26.67.67,0,0,1,.17-.2l0,0,4.61-2.66.1-.06a1.21,1.21,0,0,1,.52-.16c.39,0,.64.32.64.83v35.84a2.1,2.1,0,0,1-.28,1,2.2,2.2,0,0,1-.68.71l-16.78,9.67A.73.73,0,0,1,31.34,134.57Z"/><path class="cls-5" d="M48.82,86.52c.34,0,.55.28.55.75v35.85a2.09,2.09,0,0,1-.27.9,2,2,0,0,1-.65.69l-16.74,9.67a.65.65,0,0,1-.37.12c-.26,0-.41-.21-.41-.56V97.78a2.1,2.1,0,0,1,.64-1.39l0,0,0-.05.19-.13,4.72-2.71.32-.17s0,0,.07,0,0,.07,0,.08a.33.33,0,0,0,0,.14.26.26,0,0,0,.07.11.39.39,0,0,0,.1.08.35.35,0,0,0,.14,0,.44.44,0,0,0,.22-.07L43,90.48a.86.86,0,0,0,.28-.29.8.8,0,0,0,.11-.38.57.57,0,0,1,.07-.22.65.65,0,0,1,.15-.18h0l4.61-2.66.1-.06a1,1,0,0,1,.48-.15m0-.14a1.22,1.22,0,0,0-.55.17l-.1.06-4.61,2.66,0,0a.74.74,0,0,0-.2.23.9.9,0,0,0-.08.28.8.8,0,0,1-.09.31.76.76,0,0,1-.23.24l-5.49,3.17a.3.3,0,0,1-.16,0c-.1,0-.17-.08-.17-.21s-.07-.22-.17-.22a.25.25,0,0,0-.14,0l-.32.18-4.72,2.69a.9.9,0,0,0-.2.14l-.1.08a2.22,2.22,0,0,0-.69,1.49v36.16c0,.44.22.7.55.7a.87.87,0,0,0,.44-.13l16.76-9.68a2.36,2.36,0,0,0,.7-.74,2.09,2.09,0,0,0,.28-1V87.27c0-.57-.28-.9-.69-.9Z"/><path class="cls-7" d="M48.82,86.44a1.13,1.13,0,0,0-.52.16l-.1.06-4.6,2.68h0a.66.66,0,0,0-.25.46.67.67,0,0,1-.1.34.72.72,0,0,1-.26.26l-5.49,3.18a.41.41,0,0,1-.19,0l-.1,0-.09-.07a.19.19,0,0,1-.05-.09.17.17,0,0,1,0-.1s0-.15-.1-.15a.2.2,0,0,0-.11,0l-.32.18L31.8,96.14l-.19.13-.06.06,0,0a2.12,2.12,0,0,0-.67,1.43v6l18.6-10.75V87.27C49.45,86.76,49.21,86.44,48.82,86.44Z"/><path class="cls-5" d="M39.06,128.12l-6.17,3.56c-.16.09-.29,0-.29-.21v-6.64a.64.64,0,0,1,.08-.3.69.69,0,0,1,.21-.24l6.17-3.56c.16-.09.28,0,.28.21v6.64a.78.78,0,0,1-.07.3A.69.69,0,0,1,39.06,128.12Z"/><path class="cls-15" d="M39.06,128.12l-6.17,3.56c-.16.09-.29,0-.29-.21v-6.64a.64.64,0,0,1,.08-.3.69.69,0,0,1,.21-.24l6.17-3.56c.16-.09.28,0,.28.21v6.64a.78.78,0,0,1-.07.3A.69.69,0,0,1,39.06,128.12Z"/><path class="cls-4" d="M33.08,130.83v-2l1.73-3.58,2,1.73-.47-.94,1.06-1.84,1.48,1.23v2.1Z"/><path class="cls-4" d="M36.64,123.86a1,1,0,0,1-.1.46,1,1,0,0,1-.29.37c-.22.13-.4,0-.4-.37a1.19,1.19,0,0,1,.1-.46,1,1,0,0,1,.3-.37C36.46,123.36,36.64,123.53,36.64,123.86Z"/><path class="cls-5" d="M39.06,119.87l-6.17,3.56c-.16.09-.29,0-.29-.21v-6.63a.68.68,0,0,1,.08-.31.69.69,0,0,1,.21-.24l6.17-3.56c.16-.09.28,0,.28.21v6.64a.78.78,0,0,1-.07.3A.61.61,0,0,1,39.06,119.87Z"/><path class="cls-4" d="M33.08,122.59v-2L34.81,117l2,1.73-.47-.94,1.06-1.84,1.48,1.24v2.1Z"/><path class="cls-4" d="M36.64,115.61a1,1,0,0,1-.1.46,1.06,1.06,0,0,1-.29.37c-.22.13-.4,0-.4-.37a1.19,1.19,0,0,1,.1-.46,1,1,0,0,1,.3-.37C36.46,115.11,36.64,115.28,36.64,115.61Z"/><path class="cls-7" d="M39.06,111.44,32.89,115c-.16.09-.29,0-.29-.21v-6.63a.68.68,0,0,1,.08-.31.66.66,0,0,1,.21-.23l6.17-3.57c.16-.09.28,0,.28.22v6.63a.64.64,0,0,1-.08.3A.52.52,0,0,1,39.06,111.44Z"/><path class="cls-4" d="M33.08,114.15v-2l1.73-3.58,2,1.73-.47-.94,1.06-1.84,1.48,1.24v2.09Z"/><path class="cls-4" d="M36.64,107.18a1,1,0,0,1-.1.46,1.06,1.06,0,0,1-.29.37c-.22.13-.4,0-.4-.37a1.19,1.19,0,0,1,.1-.46,1,1,0,0,1,.3-.37C36.46,106.68,36.64,106.85,36.64,107.18Z"/><path class="cls-5" d="M47.19,97.57,43,100V98.42L47.19,96Z"/><path class="cls-5" d="M42.23,100.44l-4.14,2.39v-1.55l4.14-2.39Z"/><path class="cls-5" d="M37.27,103.3l-4.14,2.39v-1.54l4.14-2.39Z"/><path class="cls-5" d="M36.81,97.69l-4.14,2.39V98.53l4.14-2.39Z"/><path class="cls-5" d="M46.39,102.31l-5.64,3.25c-.12.07-.22,0-.22-.17v0a.5.5,0,0,1,.06-.24.74.74,0,0,1,.16-.19l5.64-3.25c.13-.07.22,0,.22.17v0a.5.5,0,0,1-.06.24A.48.48,0,0,1,46.39,102.31Z"/><path class="cls-5" d="M40.64,106.7h0a.07.07,0,0,1,0,0,.12.12,0,0,1,0-.08.11.11,0,0,1,.06-.07l7.28-4.21a.1.1,0,0,1,.09,0,.08.08,0,0,1,.07,0,.1.1,0,0,1,0,.09.12.12,0,0,1,0,.07l-7.29,4.2Z"/><path class="cls-5" d="M40.64,107.6h0s0,0,0,0a.15.15,0,0,1,0-.09.11.11,0,0,1,.06-.07l7.28-4.21a.14.14,0,0,1,.09,0,.07.07,0,0,1,.06,0,.11.11,0,0,1,0,.08.18.18,0,0,1,0,.07l-7.29,4.21Z"/><path class="cls-5" d="M40.64,108.5a0,0,0,0,1,0,0,.08.08,0,0,1,0,0,.15.15,0,0,1,0-.09.13.13,0,0,1,.06-.07l7.28-4.21.05,0h0l0,0,0,0s0,0,0,0a.07.07,0,0,1,0,0,.05.05,0,0,1,0,0l0,0-7.29,4.2Z"/><path class="cls-5" d="M40.64,109.41l0,0a.08.08,0,0,1,0,0,.15.15,0,0,1,0-.09.13.13,0,0,1,.06-.07l7.28-4.2a.1.1,0,0,1,.09,0,.15.15,0,0,1,.06,0,.13.13,0,0,1,0,.08.13.13,0,0,1,0,.07l-7.29,4.21Z"/><path class="cls-5" d="M46.39,110.66l-5.64,3.24c-.12.08-.22,0-.22-.17v0a.53.53,0,0,1,.06-.24.56.56,0,0,1,.16-.18L46.39,110c.13-.07.22,0,.22.17v0a.43.43,0,0,1,0,.25A.61.61,0,0,1,46.39,110.66Z"/><path class="cls-5" d="M40.64,115.05h0a.07.07,0,0,1,0-.05.11.11,0,0,1,0-.08.11.11,0,0,1,.06-.07l7.28-4.21H48a.12.12,0,0,1,.06.06.11.11,0,0,1,0,.08.18.18,0,0,1,0,.07L40.7,115Z"/><path class="cls-5" d="M40.64,116l0,0a.08.08,0,0,1,0,0,.15.15,0,0,1,0-.09.13.13,0,0,1,.06-.07l7.28-4.21a.14.14,0,0,1,.09,0s0,0,.06,0a.11.11,0,0,1,0,.08.18.18,0,0,1,0,.07l-7.29,4.21Z"/><path class="cls-5" d="M40.64,116.86l0,0a.08.08,0,0,1,0,0,.15.15,0,0,1,0-.09.13.13,0,0,1,.06-.07l7.28-4.2a.1.1,0,0,1,.09,0,.15.15,0,0,1,.06,0,.15.15,0,0,1,0,.09.15.15,0,0,1,0,.06l-7.29,4.21Z"/><path class="cls-5" d="M40.64,117.76l0,0s0,0,0,0a.15.15,0,0,1,0-.09.13.13,0,0,1,.06-.07l7.28-4.2.05,0h0l0,0,0,0s0,0,0,0a.09.09,0,0,1,0,0,.08.08,0,0,1,0,0l0,0-7.29,4.19A.06.06,0,0,1,40.64,117.76Z"/><path class="cls-5" d="M46.39,119l-5.64,3.25c-.12.07-.22,0-.22-.17v0a.5.5,0,0,1,.06-.24.56.56,0,0,1,.16-.18l5.64-3.26c.13-.07.22,0,.22.17v0a.48.48,0,0,1-.06.24A.42.42,0,0,1,46.39,119Z"/><path class="cls-5" d="M40.64,123.41l0,0a.08.08,0,0,1,0,0,.15.15,0,0,1,0-.09.13.13,0,0,1,.06-.07L47.87,119a.14.14,0,0,1,.09,0,.15.15,0,0,1,.06,0,.12.12,0,0,1,0,.08.18.18,0,0,1,0,.07l-7.29,4.21Z"/><path class="cls-5" d="M40.64,124.31l0,0,0,0a.15.15,0,0,1,0-.09.13.13,0,0,1,.06-.07l7.28-4.2a.1.1,0,0,1,.09,0,.15.15,0,0,1,.06.05.13.13,0,0,1,0,.08.13.13,0,0,1,0,.07l-7.29,4.21Z"/><path class="cls-5" d="M40.64,125.21l0,0s0,0,0,0a.15.15,0,0,1,0-.09.13.13,0,0,1,.06-.07l7.28-4.2a.15.15,0,0,1,.09,0,.11.11,0,0,1,.07.06.1.1,0,0,1,0,.09s0,0,0,.07L40.7,125.2Z"/><path class="cls-5" d="M40.64,126.11h0a.07.07,0,0,1,0,0,.11.11,0,0,1,0-.08.11.11,0,0,1,.06-.07l7.28-4.21a.1.1,0,0,1,.09,0,.08.08,0,0,1,.07,0,.1.1,0,0,1,0,.09.12.12,0,0,1,0,.07l-7.29,4.2A.07.07,0,0,1,40.64,126.11Z"/><path class="cls-11" d="M43,111.73c1.19-2.81.87-5.64-.72-6.32s-3.85,1.06-5,3.87-.88,5.64.71,6.32S41.84,114.54,43,111.73Z"/><path class="cls-13" d="M38.72,115.9a2.07,2.07,0,0,1-1-.26,3.37,3.37,0,0,1-1.32-3c0-2.7,1.65-5.85,3.68-7a2.45,2.45,0,0,1,2.51-.19,3.37,3.37,0,0,1,1.33,3.05c0,2.7-1.66,5.85-3.69,7A3,3,0,0,1,38.72,115.9Zm2.88-10.48a2.84,2.84,0,0,0-1.36.41c-2,1.13-3.53,4.15-3.53,6.76a3.08,3.08,0,0,0,1.17,2.78,2.16,2.16,0,0,0,2.21-.19c1.94-1.12,3.53-4.14,3.53-6.75a3.1,3.1,0,0,0-1.17-2.79,1.75,1.75,0,0,0-.86-.22Z"/><path class="cls-13" d="M39.3,113.66l-1.42-1.08.61-1.17.76.57,2.52-4.82.67.5Z"/><path class="cls-13" d="M17.87,136.65l2.57-1.49a41.33,41.33,0,0,0,.92-12.07c-.86-8-6.15-11.07-8.16-10.38s-2.6,3,.73,7.83A26.53,26.53,0,0,1,17.87,136.65Z"/><g class="cls-16"><path class="cls-11" d="M17.87,136.65l2.57-1.49a41.33,41.33,0,0,0,.92-12.07c-.86-8-6.15-11.07-8.16-10.38s-2.6,3,.73,7.83A26.53,26.53,0,0,1,17.87,136.65Z"/></g><path class="cls-11" d="M18.94,133.53h0l-.07,0s0,0-.05-.05a.14.14,0,0,1,0-.07.06.06,0,0,1,0-.06c1.41-7.42-1.19-15.75-4.39-19.22l-.05-.06s0-.05,0-.07a.14.14,0,0,1,0-.07.09.09,0,0,1,0-.06l.06,0h.07l.07,0,.06,0c3.26,3.53,5.91,12,4.46,19.52a.13.13,0,0,1-.06.1A.22.22,0,0,1,18.94,133.53Z"/><path class="cls-13" d="M11.41,140.39c-.38.19-1.4-.68-1.69-.9a3.51,3.51,0,0,1-1.11-1.42,3.32,3.32,0,0,1-.19-2A7.92,7.92,0,0,1,8.74,135l.34-1a2.64,2.64,0,0,0,.21-1,2.71,2.71,0,0,0-1.21-1.7,2.65,2.65,0,0,1-1.19-2,3,3,0,0,1,.84-1.74c.44-.5.95-.93,1.34-1.45a2.12,2.12,0,0,0,.48-1.29,2.27,2.27,0,0,0-.25-.84,12.2,12.2,0,0,1-.82-1.71,1.68,1.68,0,0,1,.37-1.75,2.06,2.06,0,0,1,.72-.29,2,2,0,0,1,.77,0,3.29,3.29,0,0,1,1.34.55c1.31.82,2,2.46,3.41,3.11a12.9,12.9,0,0,0,1.71.51,2.16,2.16,0,0,1,.81.38,2.36,2.36,0,0,1,.58.68c.47,1.08-.57,2.33-.26,3.46s1.22,1.43,1.71,2.35a2.05,2.05,0,0,1,.19,1.31,6.35,6.35,0,0,1-.65,2.13,21,21,0,0,1-1.31,2Z"/><g class="cls-17"><path class="cls-11" d="M11.41,140.39c-.38.19-1.4-.68-1.69-.9a3.51,3.51,0,0,1-1.11-1.42,3.32,3.32,0,0,1-.19-2A7.92,7.92,0,0,1,8.74,135l.34-1a2.64,2.64,0,0,0,.21-1,2.71,2.71,0,0,0-1.21-1.7,2.65,2.65,0,0,1-1.19-2,3,3,0,0,1,.84-1.74c.44-.5.95-.93,1.34-1.45a2.12,2.12,0,0,0,.48-1.29,2.27,2.27,0,0,0-.25-.84,12.2,12.2,0,0,1-.82-1.71,1.68,1.68,0,0,1,.37-1.75,2.06,2.06,0,0,1,.72-.29,2,2,0,0,1,.77,0,3.29,3.29,0,0,1,1.34.55c1.31.82,2,2.46,3.41,3.11a12.9,12.9,0,0,0,1.71.51,2.16,2.16,0,0,1,.81.38,2.36,2.36,0,0,1,.58.68c.47,1.08-.57,2.33-.26,3.46s1.22,1.43,1.71,2.35a2.05,2.05,0,0,1,.19,1.31,6.35,6.35,0,0,1-.65,2.13,21,21,0,0,1-1.31,2Z"/></g><path class="cls-11" d="M15.13,138.44a.14.14,0,0,1-.12-.06.17.17,0,0,1,0-.12c.62-6.67-2.16-14.21-4.34-16.47a.1.1,0,0,1,0-.05.17.17,0,0,1,0-.07.13.13,0,0,1,0-.06.21.21,0,0,1,0-.06l0,0h.13l0,0c2.24,2.31,5.07,10,4.44,16.74a.16.16,0,0,1-.05.11A.19.19,0,0,1,15.13,138.44Z"/><path class="cls-11" d="M14.47,130.22h-.05a22.67,22.67,0,0,0-4.81-1,.17.17,0,0,1-.16-.18s0,0,0-.07l0-.05.06,0a.16.16,0,0,1,.07,0,22.79,22.79,0,0,1,4.89,1,.22.22,0,0,1,.1.09.19.19,0,0,1,0,.13l-.07.07A.19.19,0,0,1,14.47,130.22Z"/><path class="cls-18" d="M148.42,130.13c-.29-4,.16-7-.18-13.26,0-1.59-.08-3.3-.19-4.81a51.15,51.15,0,0,0-1.22-7.84s-.14-8-.47-19.12c-.16-5.26-1.68-6.85-2.89-9.64H129c-1.62,6.89-2.08,21.9-2,29,0,3.62,1.49,23,1.52,23.42.1,1.58,0,2.2-.66,2.87a38.21,38.21,0,0,1-4.78,3.93c.23.62,2.18.59,3.15.12a24.78,24.78,0,0,0,3.61-2.3c1.33-1,3-1.78,3.06-3.28a1.26,1.26,0,0,1,0-.27c0-.88,2.07-13.82,2.23-16.82.15-2.59-.16-7-.16-7l1.66-10.94s1,6.47,2.07,10.88c.84,3.6,2.23,9.73,3.19,14.15.91,5.11,2.26,8.72,2.49,11.27.07.61.76,6.59,1,8s3.27,1.4,3.46-1C149,135.94,148.47,130.88,148.42,130.13Z"/><path class="cls-19" d="M136.64,94.21l-1.22-7.9s-4.71-.56-6.42-2.2c0,0,2.16,3,5.35,3.54l1.35,6.55L135,105Z"/><path class="cls-12" d="M120.29,136.24a1.27,1.27,0,0,0,.22,1.3,5.52,5.52,0,0,0,4,1,7,7,0,0,0,3.91-1.51,8.42,8.42,0,0,1,2.87-1.79,5.29,5.29,0,0,0,2-.81c.27-.25.25-1.41.25-1.41Z"/><path class="cls-9" d="M132.94,128.51s.15,0,.2.27.12,1.26.24,1.78a9.23,9.23,0,0,1,.17,2.82c-.12.59-1.49,1-2.38,1.32a11.13,11.13,0,0,0-2.87,1.76,8.28,8.28,0,0,1-4.25,1.54c-2,0-3.29-.55-3.68-1.28-.49-.89-.09-1.4,2.21-2.44.44-.2,2-1.08,2.5-1.4a12.75,12.75,0,0,0,1.58-1.15c.24-.22.48-.45.71-.69a2.92,2.92,0,0,0,.58-.73,1.59,1.59,0,0,0,.07-.2,3.24,3.24,0,0,0,.16-.53c0-.2.06-.47.25-.58a1.44,1.44,0,0,1,.82-.09,5.19,5.19,0,0,1,.88.13c.34.08.73.12.93.43a1.74,1.74,0,0,1,.18.84v.4c0,.06,0,.16,0,.14s.17-.22.2-.29a3.66,3.66,0,0,1,.18-.46,2.25,2.25,0,0,1,.65-.85,3.34,3.34,0,0,0,.4-.25A.91.91,0,0,0,132.94,128.51Z"/><path class="cls-4" d="M122.22,134.45c2.89.23,3.78,2,3.89,3.14a6.92,6.92,0,0,1-2.06.41c-2,0-3.37-.55-3.76-1.28S120.16,135.21,122.22,134.45Z"/><path class="cls-7" d="M126.55,134.53a.14.14,0,0,0,.09,0l0,0a.13.13,0,0,0,0-.06s0,0,0-.05a.13.13,0,0,0,0,0,3.43,3.43,0,0,0-2.6-1.06.19.19,0,0,0-.1,0,.2.2,0,0,0,0,.11.12.12,0,0,0,0,.09.11.11,0,0,0,.11,0,3.33,3.33,0,0,1,1.28.23,3.28,3.28,0,0,1,1.07.73l0,0Z"/><path class="cls-7" d="M127.81,133.82a.16.16,0,0,0,.09,0l0,0a.14.14,0,0,0,0-.06.11.11,0,0,0,0-.05.08.08,0,0,0,0,0,3.36,3.36,0,0,0-1.19-.81,3.28,3.28,0,0,0-1.42-.25l0,0s0,0,0,0l0,0v.05a.13.13,0,0,0,0,.06s0,0,0,0l.05,0h0a3.27,3.27,0,0,1,1.28.23,3.18,3.18,0,0,1,1.08.73l0,0Z"/><path class="cls-7" d="M129,133a.16.16,0,0,0,.09,0l0,0,0-.05v-.06l0,0a3.36,3.36,0,0,0-1.19-.81,3.42,3.42,0,0,0-1.41-.25l-.06,0,0,0,0,.05a.13.13,0,0,0,0,.06s0,0,0,0l0,0,0,0h.06a3.15,3.15,0,0,1,2.35,1,.1.1,0,0,0,0,0Z"/><path class="cls-7" d="M130.11,132.19a.18.18,0,0,0,.09,0l0,0a.08.08,0,0,0,0-.05V132l0,0a3.45,3.45,0,0,0-2.84-1.08.12.12,0,0,0-.1.05.19.19,0,0,0,0,.1.14.14,0,0,0,0,.1.19.19,0,0,0,.1,0,3.24,3.24,0,0,1,2.6,1,.1.1,0,0,0,.05,0S130.09,132.18,130.11,132.19Z"/><path class="cls-12" d="M144.5,139.53a6.4,6.4,0,0,0,.77,3.07,2,2,0,0,0,2.32.82,3.08,3.08,0,0,0,2.38-2,7.54,7.54,0,0,0,.21-3.25Z"/><path class="cls-9" d="M148.39,129.65c.37,0,.49,1.86.71,3.69s.82,2.78,1,4.4a5,5,0,0,1-.71,3.78c-.64,1.11-2.93,2.2-4.06.61-.91-1.3-1-2.75-.87-4.59a40.06,40.06,0,0,0-.12-4.65c-.08-1.39-.38-2.77-.05-2.93,0,.2.05.46.08.66a3,3,0,0,0,.12.73c0,.11.13.21.16.05a1,1,0,0,0,0-.35c-.06-.5.2-.54.34-.58a17.14,17.14,0,0,1,1.77-.26c.29,0,1.29-.06,1.42.11a1.07,1.07,0,0,1,.13.53c0,.28.1.48.11.4s0-.72,0-.84,0-.29,0-.41Z"/><path class="cls-4" d="M150.24,138.79a4.54,4.54,0,0,1-.72,2.8c-.63,1.11-3.11,2.21-4.24.61a5.15,5.15,0,0,1-.78-2.69C145.17,138.3,149.17,137.76,150.24,138.79Z"/><path class="cls-7" d="M145.33,137.51a0,0,0,0,0,0,0,6.65,6.65,0,0,1,3.51-.33h.06l.05,0,0,0a.08.08,0,0,0,0-.05.11.11,0,0,0,0,0s0,0,0-.06l0,0-.05,0a6.6,6.6,0,0,0-3.68.36.16.16,0,0,0-.08.08.14.14,0,0,0,0,.11.1.1,0,0,0,.06.05A.08.08,0,0,0,145.33,137.51Z"/><path class="cls-7" d="M148.79,135.8a.11.11,0,0,0,.07,0,.18.18,0,0,0,0-.07v0a.07.07,0,0,0,0-.05l0,0-.05,0a5.61,5.61,0,0,0-3.68.32.09.09,0,0,0,0,.08.12.12,0,0,0,0,.1.11.11,0,0,0,.07.06.12.12,0,0,0,.1,0,5.5,5.5,0,0,1,3.46-.32Z"/><path class="cls-7" d="M148.72,134.51l.08,0a.18.18,0,0,0,0-.07.14.14,0,0,0,0-.11.14.14,0,0,0-.08-.07,5,5,0,0,0-3.75.32s0,0,0,0a.08.08,0,0,0,0,0s0,0,0,.05a.08.08,0,0,0,0,.05l0,0,.05,0h.06l0,0a4.87,4.87,0,0,1,3.51-.29Z"/><path class="cls-10" d="M148.63,133.23a.09.09,0,0,0,.07,0,.15.15,0,0,0,.05-.06.13.13,0,0,0,0-.06.43.43,0,0,1,0-.05.08.08,0,0,0,0,0,.05.05,0,0,0,0,0,5.23,5.23,0,0,0-3.78.36.1.1,0,0,0-.06.08.21.21,0,0,0,0,.11l0,0,.05,0h0l.06,0a5,5,0,0,1,3.53-.34Z"/><path class="cls-9" d="M144.47,75.46c1.72,3.13,2.64,5.68,2.81,15s-.12,11.94-.09,13.06.69,3.12,1.26,8.64a70.16,70.16,0,0,1-.1,12.1s-.39.88-2.51,1.07a4.29,4.29,0,0,1-2.9-.56s-2.67-10.75-3.41-14.07-2.87-14.25-2.87-14.25l-1.28,8.86a27.9,27.9,0,0,1,0,7.89c-.59,4.84-1.64,9.79-1.64,9.79a8.68,8.68,0,0,1-3,.49,5,5,0,0,1-2.62-.68s-1.66-14.41-1.66-19.89.41-19.46,1.65-27.59Z"/><path class="cls-12" d="M136.64,96.43,134.9,85.88s-3.67-.26-5.71-2.4c.83,2.27,3.83,3.86,5.16,4.17l1.57,8.66-.55,9Z"/><path class="cls-12" d="M140.33,77.06a13.51,13.51,0,0,1,1.19,2.52,24.6,24.6,0,0,1,.79,2.66c.21.91.38,1.82.5,2.74a17.2,17.2,0,0,1,.19,2.77c-.22-.9-.43-1.79-.64-2.69s-.41-1.79-.62-2.68-.43-1.78-.66-2.67S140.6,77.94,140.33,77.06Z"/><path class="cls-12" d="M141.54,77.39a10.57,10.57,0,0,1,1.26,1.41,15.51,15.51,0,0,1,1,1.6,12,12,0,0,1,.77,1.72A7.23,7.23,0,0,1,145,84l-.84-1.66c-.29-.54-.57-1.09-.87-1.62s-.59-1.08-.89-1.62S141.81,78,141.54,77.39Z"/><path class="cls-12" d="M139.53,88.49c.39,2.88.76,5.75,1.12,8.63s.75,5.75,1.27,8.6,1.09,5.7,1.6,8.55,1,5.72,1.43,8.59q-1-4.24-1.88-8.5c-.6-2.84-1.16-5.68-1.72-8.54s-.87-5.74-1.15-8.64S139.7,91.39,139.53,88.49Z"/><path class="cls-12" d="M129.19,88.49l-.47,7.57c-.07,1.26-.15,2.52-.21,3.78s-.13,2.52-.11,3.77.11,2.52.17,3.77l.19,3.79q.19,3.78.3,7.58-.45-3.77-.76-7.55c-.2-2.52-.4-5-.48-7.58s.22-5.07.45-7.6S128.81,91,129.19,88.49Z"/><path class="cls-12" d="M143.08,43.69a3,3,0,0,0-1.63-1,9.28,9.28,0,0,1-1.55-.32c-.55-.21-1-.57-1.59-.78a3.75,3.75,0,0,0-3.64.71c-.4.32-.77.79-1.3.86a8.08,8.08,0,0,0-1.74.38,3,3,0,0,0-1.59,1.3,3.5,3.5,0,0,0-.34,1.8c0,.68.21,1.36.2,2a2.55,2.55,0,0,1-.62,1.35,4.47,4.47,0,0,0-.91,1.6,3.13,3.13,0,0,0-.1,1.55,1.56,1.56,0,0,0,.33.7,1.49,1.49,0,0,0,.63.45,1.82,1.82,0,0,1,.35-1.59,2.56,2.56,0,0,0,1.07,2.55,4.86,4.86,0,0,0,3.12.87c1.14,0,2.29-.46,3.43-.2a7.86,7.86,0,0,1,.93.32,8.12,8.12,0,0,0,1.62.38c.53.07,1.06,0,1.59.07a3.41,3.41,0,0,0,2.43-.64,3.75,3.75,0,0,0,1-1.36,3.93,3.93,0,0,0,.35-1.68,1.64,1.64,0,0,1,.37.84,2.48,2.48,0,0,0,.48-1.07,2.44,2.44,0,0,0,0-1.17,9.25,9.25,0,0,1-.64-1.73,8.73,8.73,0,0,1,.19-1.59,2.77,2.77,0,0,0-.52-1.74,2.74,2.74,0,0,0-1.51-1,2.54,2.54,0,0,0,0-1A2.46,2.46,0,0,0,143.08,43.69Z"/><path class="cls-18" d="M131.51,59.12a8.85,8.85,0,0,0-4.61,2.7c-2.09,2.14-4.91,5-4.91,5l-9-3.05-.08,4.86s6.3,3.12,8.42,3.88c1.59.57,2.19.16,3.77-1.1,2-1.62,6-4.85,6-4.85Z"/><path class="cls-13" d="M131.72,58.93a7.13,7.13,0,0,0-4.37,2.27c-1.4,1.3-2.55,2.4-2.55,2.4a8.7,8.7,0,0,0,3.46,5.64l3.25-2.8Z"/><path class="cls-20" d="M131.72,58.93a7.13,7.13,0,0,0-4.37,2.27c-1.4,1.3-2.55,2.4-2.55,2.4a8.7,8.7,0,0,0,3.46,5.64l3.25-2.8Z"/><path class="cls-8" d="M111.93,57.43l.51-.24a.45.45,0,0,1,.23,0,.49.49,0,0,1,.21.08l11.29,6.82a1.81,1.81,0,0,1,.5.53,1.72,1.72,0,0,1,.24.7l.59,10.25a.39.39,0,0,1,0,.26.41.41,0,0,1-.17.2l-.53.25a.58.58,0,0,1-.23,0,.62.62,0,0,1-.22-.1l-11.27-6.81a1.71,1.71,0,0,1-.75-1.23c-.11-2-.48-8.24-.59-10.25C111.7,57.65,111.78,57.49,111.93,57.43Z"/><path class="cls-12" d="M124.06,64.72a1.7,1.7,0,0,1,.32.84L125,75.81a.43.43,0,0,1,0,.25.45.45,0,0,1-.16.2l.5-.23c.14-.06.21-.22.2-.46l-.59-10.25a1.69,1.69,0,0,0-.3-.79Z"/><path class="cls-9" d="M125,75.81l-.6-10.26a1.88,1.88,0,0,0-.23-.69,1.72,1.72,0,0,0-.51-.53l-11.28-6.82c-.39-.23-.68,0-.64.4.12,2,.48,8.23.6,10.25a1.61,1.61,0,0,0,.23.7,1.72,1.72,0,0,0,.51.53l11.28,6.81C124.71,76.43,125,76.26,125,75.81Z"/><path class="cls-8" d="M123.82,67.51l-.11-1.91a.28.28,0,0,0,0-.13.32.32,0,0,0-.1-.1l-.77-.47c-.08,0-.13,0-.12.08,0,.37.09,1.54.1,1.91a.5.5,0,0,0,0,.13.43.43,0,0,0,.09.1l.78.47C123.77,67.64,123.83,67.6,123.82,67.51Z"/><path class="cls-12" d="M123.55,66a.66.66,0,0,0-.12-.33.69.69,0,0,0-.24-.24c-.18-.12-.32,0-.32.16a.93.93,0,0,0,.12.33.82.82,0,0,0,.24.25C123.42,66.28,123.57,66.2,123.55,66Z"/><path class="cls-12" d="M123.6,67a1,1,0,0,0-.12-.32.82.82,0,0,0-.24-.25c-.19-.11-.32,0-.32.17a1,1,0,0,0,.12.32.72.72,0,0,0,.24.25C123.48,67.24,123.61,67.17,123.6,67Z"/><path class="cls-18" d="M111.22,63.81c-.3-.67-.25-.74,0-1a2,2,0,0,1,.77-.43,2.05,2.05,0,0,1,.89,0,3.93,3.93,0,0,1,1.27.41c.25.19-.1.7-.81.71-1.1,0-1.15.32-1.15.32s1,0,1.41,0a9.86,9.86,0,0,1,1.49.55c.43.17.4.76-.39.8l.78.3c.55.21.68.55.16.81a.87.87,0,0,1-.55.09s.6.12.57.31c-.08.59-.49.66-1.79.76s-1.61.67-1.47,1.16c0,0-.41-.37-.77-.75a.79.79,0,0,1-.23-1s-.67-.13-.64-.55a2,2,0,0,1,.35-.85.74.74,0,0,1-.23-.35.72.72,0,0,1,0-.41,1.2,1.2,0,0,1,.39-.68Z"/><path class="cls-21" d="M114.73,65.21A3.21,3.21,0,0,0,114,65a2.49,2.49,0,0,0-.77.08,9.78,9.78,0,0,0-1.43.41,8.35,8.35,0,0,0,1.48-.2,4.1,4.1,0,0,1,.7-.12C114.22,65.15,114.48,65.2,114.73,65.21Z"/><path class="cls-21" d="M115.12,66.4a1.85,1.85,0,0,0-.8-.19,4.45,4.45,0,0,0-.81.08,8,8,0,0,0-1.54.45c.53,0,1.06-.13,1.59-.23A4.32,4.32,0,0,1,115.12,66.4Z"/><path class="cls-13" d="M146.77,80.31a23.34,23.34,0,0,1-.88-6.17c0-1,.37-4.68.37-4.68a24.06,24.06,0,0,1-.45-10L139.3,58l-4.09.38-3.51.57a12.72,12.72,0,0,0-3.37,5.4c-.66,2-.45,7.4-1.05,15.53C129.58,83,141.09,84.51,146.77,80.31Z"/><path class="cls-21" d="M134.72,66.87a6.71,6.71,0,0,0-2-1.24c-.48-.14-2.15-.87-2.79-1-.4-.11-.58.54-.07,1a13,13,0,0,0,1.88,1.08A8.27,8.27,0,0,1,133.07,68Z"/><path class="cls-18" d="M150,63.14c-.58-2.32-1.69-3.23-4.15-3.56-1.74,2.1-1.09,7-1.09,7l.67,5.42s-6-1-6.71-1.44a39.73,39.73,0,0,1-3.13-3.1c-.83-.83-1.26-.73-1.69-.67a4.75,4.75,0,0,0-2,.49.61.61,0,0,0-.22.23.67.67,0,0,0-.07.31c-.38,0-1,0-1,.64a1.35,1.35,0,0,0,0,.49.44.44,0,0,0-.25.14c-.32.36.19,1.62.53,1.92a1.25,1.25,0,0,0,1,.2c.38,0,.21-.44.21-.44l.53,0c1.14.84,1.17,2.46,2.68,2.85a9.66,9.66,0,0,1,1.85.39c3.26,1.16,8.58,4.59,11.49,4.89s2.79-1.22,2.87-3A85.43,85.43,0,0,0,150,63.14Z"/><path class="cls-21" d="M145.32,71.37l.08.66a6.29,6.29,0,0,1,3.08,2.81,4.24,4.24,0,0,0-1.06-2.21A4.3,4.3,0,0,0,145.32,71.37Z"/><path class="cls-21" d="M131.56,67.85l1.69-.32-1.65.08A.93.93,0,0,0,131.56,67.85Z"/><path class="cls-21" d="M130.51,69l1.94-.22h-1.94A.81.81,0,0,0,130.51,69Z"/><path class="cls-21" d="M130.75,69.84a.73.73,0,0,0,.26.23,1,1,0,0,0,.31.11l0,0c0,.11.1.21.16.32l0,0a.48.48,0,0,0-.17,0,.35.35,0,0,0-.15.07.56.56,0,0,0-.18.25.8.8,0,0,1,.2-.21.42.42,0,0,1,.27,0l.07,0,0-.07c0-.1-.1-.2-.16-.3v0h0A1.92,1.92,0,0,1,131,70,.86.86,0,0,1,130.75,69.84Z"/><path class="cls-21" d="M131.26,70.09a4.14,4.14,0,0,0,.7.06.78.78,0,0,0,.23.38c.12.11.24.22.37.32l-.53,0a.85.85,0,0,0-.26-.24,1,1,0,0,0-.34-.1Z"/><path class="cls-13" d="M145.81,59.44c2.14.48,2.95.76,3.73,2.27A29.09,29.09,0,0,1,151.1,67a7.45,7.45,0,0,1-2.84,1.31,7.93,7.93,0,0,1-3.56-.15,32.27,32.27,0,0,1-.32-3.81C144.42,62.85,144.55,60.6,145.81,59.44Z"/><path class="cls-20" d="M145.81,59.44c2.14.48,2.95.76,3.73,2.27A29.09,29.09,0,0,1,151.1,67a7.45,7.45,0,0,1-2.84,1.31,7.93,7.93,0,0,1-3.56-.15,32.27,32.27,0,0,1-.32-3.81C144.42,62.85,144.55,60.6,145.81,59.44Z"/><path class="cls-18" d="M141.81,54.43a1.87,1.87,0,0,0,.94-.09,1.9,1.9,0,0,0,.78-.53,2.23,2.23,0,0,0,.62-2.66,1.38,1.38,0,0,0-1.78-.56,2.31,2.31,0,0,0-.93,1.15c-.25.45-.86.09-.62-1.72-1.22-.61-1-2.68-1.64-3.53a2.76,2.76,0,0,0-3.32-.73,2.25,2.25,0,0,0-2.34-.2c-.84.43-1.41,1.36-1.77,4.58s.17,5.47.92,6.18a3.65,3.65,0,0,0,2.63.78l0,1.24s-3.4,3.42.86,3.19A6.68,6.68,0,0,0,141,58.89l.11-5S141.18,54.3,141.81,54.43Z"/><path class="cls-22" d="M134.84,53.72a.87.87,0,0,0,.1.39.9.9,0,0,0,.26.32.94.94,0,0,0,.36.18.9.9,0,0,0,.4,0,1,1,0,0,0,.38-.15,1,1,0,0,0,.28-.3.89.89,0,0,0,.12-.38.81.81,0,0,0,0-.41Z"/><path class="cls-21" d="M136.71,53.7a1.08,1.08,0,0,1-.26.51,1,1,0,0,1-.51.28,1,1,0,0,1-.34,0,.83.83,0,0,1,.14-.35,1,1,0,0,1,.25-.28,1,1,0,0,1,.34-.15A1,1,0,0,1,136.71,53.7Z"/><path class="cls-12" d="M136.8,50.51a.58.58,0,0,0,.18.26.61.61,0,0,0,.29.11.56.56,0,0,0,.31-.06.54.54,0,0,0,.22-.23.52.52,0,0,0,.06-.3.69.69,0,0,0-.12-.29.68.68,0,0,0-.26-.18.58.58,0,0,0-.32,0,.87.87,0,0,0-.19.1.7.7,0,0,0-.13.17.42.42,0,0,0-.06.21A.5.5,0,0,0,136.8,50.51Z"/><path class="cls-12" d="M132.47,48.33l1.16-.59a.65.65,0,0,0-.37-.32.6.6,0,0,0-.49,0,.69.69,0,0,0-.3.88Z"/><path class="cls-12" d="M133.75,50.31a.52.52,0,0,1-.2.24.53.53,0,0,1-.3.09.55.55,0,0,1-.3-.09.57.57,0,0,1-.19-.24.48.48,0,0,1,0-.31.56.56,0,0,1,.42-.43.55.55,0,0,1,.31,0,.55.55,0,0,1,.3.3.52.52,0,0,1,0,.21A.49.49,0,0,1,133.75,50.31Z"/><path class="cls-12" d="M137.54,48l1.21.68a.58.58,0,0,0,.09-.25.62.62,0,0,0,0-.27.55.55,0,0,0-.12-.24.7.7,0,0,0-.2-.18.72.72,0,0,0-.54-.06A.69.69,0,0,0,137.54,48Z"/><path class="cls-9" d="M130.75,49a.84.84,0,0,0,.19.5.44.44,0,0,1,.07.19,7.84,7.84,0,0,0,.19,1.35,1.45,1.45,0,0,0,.54.75,1.5,1.5,0,0,0,.88.27,3,3,0,0,0,.52,0h0a1.66,1.66,0,0,0,.43-.14h0l0,0,0,0,.05,0,0,0,0,0a.36.36,0,0,0,.09-.08,1.83,1.83,0,0,0,.39-.49c.27-.46.28-1.12.64-1.18h.09c.49,0,.36.74.58,1.26a1.7,1.7,0,0,0,1.68,1.1h.25l.26,0h.08l.08,0h.05a1.57,1.57,0,0,0,.3-.12.21.21,0,0,0,.1-.06.59.59,0,0,0,.18-.13,1.59,1.59,0,0,0,.37-.45,8.84,8.84,0,0,0,.43-1.32,1,1,0,0,1,.1-.18,1,1,0,0,0,.29-.47.4.4,0,0,0-.25-.43l-.26,0a8.59,8.59,0,0,0-2.58-.09,7.81,7.81,0,0,1-1.6.39c-.44,0-.67-.3-1.42-.58a7.47,7.47,0,0,0-2.4-.22h-.25a.38.38,0,0,0-.21.14A.43.43,0,0,0,130.75,49Zm5.34.73a.62.62,0,0,1,.25-.17l0,0h0l.13-.05.11,0,.36-.09.14,0,.37,0h.08a2.12,2.12,0,0,1,1.43.32c.15.15,0,.85-.1,1.2v0a.48.48,0,0,1,0,.14l0,.09s0,.09-.07.14,0,0,0,.05l0,0,0,0,0,.05,0,0,0,0-.05.05a1.34,1.34,0,0,1-1.15.44,1.42,1.42,0,0,1-.61-.12A1.29,1.29,0,0,1,136,50.8,1.52,1.52,0,0,1,136.09,49.75Zm-4.6-.58.2-.11h0l.09,0,0,0H132l.18,0h.43a2.58,2.58,0,0,1,.36,0,2.1,2.1,0,0,1,1.24.6,1.63,1.63,0,0,1-.07,1.07A1.34,1.34,0,0,1,134,51V51l0,0,0,.06,0,.06v0l0,0s0,0,0,0a1.36,1.36,0,0,1-.56.38,1.69,1.69,0,0,1-1.24-.09,1.5,1.5,0,0,1-.46-.51,1.6,1.6,0,0,1-.18-.67C131.34,50,131.31,49.32,131.49,49.17Z"/><path class="cls-21" d="M133.41,52l1.79.81.31-2.16c-.06-.34-.11-.63-.41-.68Z"/><path class="cls-9" d="M139.61,49.2l2.75,1.39a2.67,2.67,0,0,0-.43.32l-2.4-1.14Z"/><path class="cls-21" d="M135.3,57.11c1.66,0,3.9-.58,4.52-1.65a3.31,3.31,0,0,1-2.47,2,9.51,9.51,0,0,1-2,.32Z"/><path class="cls-11" d="M129.91,28.32a7,7,0,0,0,1.9,4.79l.58.54a7,7,0,0,0,9.83-9.85l-.56-.6a7,7,0,0,0-11.76,5.11Z"/><path class="cls-8" d="M129.32,28.32a7.6,7.6,0,0,0,6.33,7.47l.86,2.2a.39.39,0,0,0,.16.2.44.44,0,0,0,.25.08.43.43,0,0,0,.24-.08.47.47,0,0,0,.17-.2l.84-2.2a7.58,7.58,0,1,0-7.67-11.55,7.67,7.67,0,0,0-1.18,4.09Zm7.57-7a7,7,0,0,1,4.79,1.89l.55.58a7,7,0,0,1-9.83,9.86l-.58-.55A7,7,0,0,1,130,29.5a6.87,6.87,0,0,1,.47-4,7,7,0,0,1,6.4-4.22Z"/><path class="cls-23" d="M136.9,21.32a6.92,6.92,0,0,1,4.78,1.89l.55.57a7,7,0,0,1-9.83,9.86l-.58-.55a7,7,0,0,1,5.08-11.77Z"/><path class="cls-13" d="M136,32.47a.85.85,0,0,1-.42-.08.92.92,0,0,1-.35-.24l-2.38-2.55a1,1,0,0,1-.21-.35.92.92,0,0,1-.07-.4.93.93,0,0,1,.09-.4,1,1,0,0,1,.24-.33,1,1,0,0,1,.35-.22,1.12,1.12,0,0,1,.4-.07,1.07,1.07,0,0,1,.4.1,1,1,0,0,1,.34.24L136,29.82l3.66-4.63a1,1,0,0,1,.69-.35,1.1,1.1,0,0,1,.74.22,1.06,1.06,0,0,1,.38.67,1,1,0,0,1-.17.75l-4.41,5.59a1,1,0,0,1-.35.28,1.06,1.06,0,0,1-.43.12Z"/></g></svg>