<svg width="750" height="500" viewBox="0 0 750 500" fill="none" xmlns="http://www.w3.org/2000/svg">
<path d="M60.5199 96.8901C60.9398 96.6328 61.4225 96.4966 61.9149 96.4966C62.4073 96.4966 62.8901 96.6328 63.3099 96.8901C63.5399 97.0301 63.7799 97.1601 64.0199 97.2901L64.7599 97.6701C65.2069 97.8709 65.5889 98.1927 65.8628 98.5991C66.1366 99.0055 66.2915 99.4803 66.3099 99.9701L66.4199 103.4L77.5799 103.05L77.4799 99.6201C77.4698 99.1286 77.5951 98.6438 77.842 98.2187C78.0889 97.7937 78.448 97.4447 78.8799 97.2101C79.3703 96.9488 79.8445 96.6583 80.2999 96.3401C80.7003 96.0579 81.1708 95.8918 81.6596 95.8601C82.1483 95.8283 82.6364 95.9321 83.0699 96.1601L86.0699 97.7801L91.3599 88.0001L88.3599 86.3901C87.9261 86.1479 87.5688 85.7892 87.3284 85.3544C87.0881 84.9196 86.9743 84.4262 86.9999 83.9301C86.9999 83.3701 86.9999 82.8201 86.9999 82.2701C86.9514 81.7801 87.0409 81.2864 87.2583 80.8446C87.4756 80.4028 87.8122 80.0306 88.2299 79.7701L91.0499 78.0001L85.1599 68.5101L82.2299 70.3201C81.8139 70.5778 81.3343 70.7143 80.8449 70.7143C80.3556 70.7143 79.8759 70.5778 79.4599 70.3201C79.2299 70.1801 78.9899 70.0501 78.7499 69.9201C78.5099 69.7901 78.2599 69.6601 78.0099 69.5501C77.5635 69.3456 77.1825 69.0215 76.9089 68.6138C76.6353 68.2061 76.4799 67.7306 76.4599 67.2401L76.3499 63.8101L65.1899 64.1501L65.2999 67.5701C65.3112 68.0617 65.1864 68.547 64.9393 68.9722C64.6923 69.3975 64.3326 69.7463 63.8999 69.9801C63.4116 70.2485 62.9376 70.5422 62.4799 70.8601C62.0738 71.1357 61.5998 71.2946 61.1095 71.3193C60.6193 71.344 60.1317 71.2335 59.6999 71.0001L56.6999 69.3801L51.4199 79.2301L54.4199 80.8401C54.8515 81.0743 55.2098 81.4235 55.4551 81.8488C55.7005 82.2742 55.8233 82.7592 55.8099 83.2501C55.8099 83.8101 55.8099 84.3701 55.8099 84.9201C55.8584 85.41 55.7689 85.9038 55.5516 86.3455C55.3342 86.7873 54.9977 87.1595 54.5799 87.4201L51.6699 89.2201L57.5599 98.7101L60.5199 96.8901ZM63.3199 79.2601C64.1741 77.6641 65.4825 76.3574 67.0795 75.5053C68.6765 74.6531 70.4904 74.2938 72.2917 74.4727C74.093 74.6517 75.8007 75.3609 77.1988 76.5106C78.5969 77.6604 79.6226 79.199 80.1461 80.9318C80.6696 82.6646 80.6673 84.5137 80.1396 86.2453C79.612 87.9768 78.5825 89.5129 77.1816 90.6592C75.7807 91.8056 74.0713 92.5106 72.2696 92.6852C70.4679 92.8598 68.6549 92.4961 67.0599 91.6401C64.9253 90.4913 63.333 88.5433 62.632 86.2228C61.931 83.9023 62.1783 81.3985 63.3199 79.2601Z" fill="#EBEBEB"/>
<path d="M619.69 232.73C619.987 232.906 620.228 233.161 620.389 233.467C620.55 233.772 620.623 234.116 620.6 234.46C620.6 234.65 620.6 234.84 620.6 235.04C620.6 235.24 620.6 235.43 620.6 235.62C620.621 235.963 620.547 236.304 620.386 236.608C620.226 236.911 619.985 237.164 619.69 237.34L617.61 238.54L621.52 245.32L623.6 244.12C623.898 243.947 624.239 243.861 624.584 243.872C624.928 243.883 625.263 243.989 625.55 244.18C625.872 244.395 626.206 244.592 626.55 244.77C626.852 244.926 627.106 245.163 627.282 245.454C627.459 245.745 627.551 246.08 627.55 246.42V248.82H635.37V246.42C635.371 246.08 635.465 245.747 635.641 245.456C635.817 245.165 636.069 244.928 636.37 244.77C636.715 244.595 637.049 244.398 637.37 244.18C637.657 243.989 637.992 243.883 638.336 243.872C638.681 243.861 639.022 243.947 639.32 244.12L641.4 245.32L645.31 238.54L643.22 237.33C642.925 237.156 642.684 236.902 642.525 236.598C642.366 236.294 642.295 235.952 642.32 235.61C642.32 235.42 642.32 235.23 642.32 235.04C642.32 234.85 642.32 234.65 642.32 234.46C642.297 234.116 642.37 233.772 642.531 233.467C642.692 233.161 642.934 232.906 643.23 232.73L645.31 231.54L641.4 224.76L639.33 225.96C639.031 226.131 638.69 226.215 638.345 226.203C638.001 226.191 637.666 226.082 637.38 225.89C637.058 225.678 636.724 225.484 636.38 225.31C636.079 225.149 635.827 224.91 635.651 224.618C635.475 224.326 635.381 223.991 635.38 223.65V221.26H627.56V223.65C627.559 223.991 627.465 224.326 627.289 224.618C627.113 224.91 626.861 225.149 626.56 225.31C626.215 225.482 625.881 225.676 625.56 225.89C625.268 226.09 624.924 226.203 624.57 226.215C624.216 226.227 623.866 226.139 623.56 225.96L621.49 224.76L617.58 231.54L619.69 232.73ZM631.5 228.62C632.767 228.62 634.006 228.996 635.06 229.7C636.114 230.403 636.936 231.404 637.421 232.575C637.907 233.745 638.034 235.034 637.788 236.277C637.541 237.52 636.932 238.662 636.036 239.559C635.141 240.456 633.999 241.067 632.757 241.316C631.514 241.564 630.225 241.439 629.054 240.955C627.883 240.471 626.881 239.651 626.175 238.598C625.47 237.546 625.092 236.307 625.09 235.04C625.09 233.339 625.765 231.708 626.967 230.504C628.169 229.3 629.799 228.623 631.5 228.62Z" fill="#EBEBEB"/>
<path d="M630.4 169.25C630.402 175.276 632.191 181.166 635.54 186.176C638.89 191.185 643.649 195.089 649.217 197.393C654.785 199.698 660.911 200.3 666.821 199.123C672.731 197.947 678.159 195.044 682.419 190.782C686.68 186.52 689.581 181.091 690.756 175.181C691.93 169.27 691.327 163.144 689.02 157.577C686.714 152.01 682.808 147.252 677.798 143.904C672.787 140.557 666.896 138.77 660.87 138.77C656.868 138.77 652.905 139.558 649.208 141.09C645.51 142.622 642.151 144.868 639.321 147.698C636.492 150.528 634.248 153.889 632.717 157.587C631.186 161.285 630.399 165.248 630.4 169.25ZM646.63 169.25C646.626 166.433 647.458 163.678 649.021 161.333C650.583 158.989 652.805 157.161 655.407 156.08C658.009 154.999 660.873 154.714 663.636 155.261C666.4 155.808 668.939 157.163 670.932 159.154C672.926 161.144 674.284 163.682 674.835 166.445C675.386 169.207 675.106 172.072 674.028 174.675C672.951 177.278 671.126 179.503 668.784 181.069C666.442 182.634 663.688 183.47 660.87 183.47C657.097 183.47 653.478 181.972 650.808 179.306C648.138 176.64 646.636 173.023 646.63 169.25Z" fill="#EBEBEB"/>
<path d="M655.01 140.04H666.73L666.08 131.74H655.66L655.01 140.04Z" fill="#EBEBEB"/>
<path d="M677.31 143.99L685.6 152.27L691.01 145.95L683.64 138.58L677.31 143.99Z" fill="#EBEBEB"/>
<path d="M690.29 162.55V174.27L698.59 173.62V163.2L690.29 162.55Z" fill="#EBEBEB"/>
<path d="M686.35 184.85L678.06 193.14L684.38 198.54L691.75 191.18L686.35 184.85Z" fill="#EBEBEB"/>
<path d="M667.78 197.83H656.06L656.71 206.13H667.13L667.78 197.83Z" fill="#EBEBEB"/>
<path d="M645.48 193.88L637.19 185.6L631.79 191.92L639.15 199.29L645.48 193.88Z" fill="#EBEBEB"/>
<path d="M632.5 175.32V163.6L624.21 164.25V174.67L632.5 175.32Z" fill="#EBEBEB"/>
<path d="M636.45 153.02L644.73 144.73L638.41 139.32L631.04 146.69L636.45 153.02Z" fill="#EBEBEB"/>
<path d="M117.12 283.3H105.78L105.24 276.46C101.214 275.797 97.3633 274.328 93.9195 272.14L88.6495 276.65L80.6495 268.65L84.9995 263.57C82.6302 260.201 80.9762 256.383 80.1395 252.35L73.2695 251.82V240.47L80.0495 239.93C80.8185 235.964 82.3685 232.191 84.6095 228.83L79.9195 223.35L87.9195 215.35L93.3995 220C96.655 217.848 100.295 216.344 104.12 215.57L104.72 207.89H116.06L116.66 215.56C120.359 216.312 123.886 217.746 127.06 219.79L133.19 214.55L141.19 222.55L136.05 228.55C138.146 231.639 139.658 235.086 140.51 238.72L148.59 239.35V250.71L140.86 251.3C140.2 255.052 138.843 258.647 136.86 261.9L141.93 267.82L133.93 275.82L128.35 271.07C125.15 273.39 121.529 275.064 117.69 276L117.12 283.3ZM106.7 282.3H116.2L116.75 275.21L117.11 275.12C121.083 274.235 124.83 272.532 128.11 270.12L128.43 269.89L133.9 274.55L140.62 267.84L135.67 262.06L135.87 261.75C137.961 258.415 139.365 254.695 140 250.81L140.06 250.42L147.65 249.84V240.34L139.75 239.72L139.67 239.36C138.839 235.592 137.276 232.025 135.07 228.86L134.85 228.54L139.85 222.66L133.13 215.94L127.13 221.07L126.82 220.86C123.566 218.712 119.919 217.23 116.09 216.5L115.71 216.43L115.13 208.92H105.63L105.05 216.43L104.67 216.5C100.73 217.26 96.9876 218.815 93.6695 221.07L93.5395 221.15H93.2095L92.9995 221L87.9995 216.68L81.2795 223.4L85.8695 228.76L85.6495 229.08C83.2955 232.508 81.6969 236.397 80.9595 240.49L80.8895 240.87L74.2695 241.39V250.89L80.9695 251.41L81.0395 251.79C81.8567 255.945 83.5623 259.875 86.0395 263.31L86.2595 263.63L81.9995 268.58L88.7195 275.29L93.8495 270.9L94.1595 271.1C97.6767 273.397 101.646 274.911 105.8 275.54L106.19 275.6L106.7 282.3ZM110.39 260.65C107.477 260.648 104.63 259.782 102.209 258.163C99.7877 256.543 97.9013 254.242 96.7879 251.55C95.6746 248.858 95.3843 245.897 95.9538 243.04C96.5233 240.183 97.927 237.56 99.9874 235.501C102.048 233.442 104.672 232.04 107.53 231.472C110.387 230.905 113.348 231.197 116.039 232.312C118.73 233.427 121.03 235.315 122.648 237.737C124.266 240.16 125.13 243.007 125.13 245.92C125.124 249.827 123.569 253.572 120.806 256.333C118.042 259.095 114.296 260.647 110.39 260.65ZM110.39 232.19C107.674 232.192 105.021 232.999 102.764 234.509C100.508 236.019 98.7495 238.164 97.7118 240.673C96.6741 243.182 96.4037 245.942 96.9346 248.605C97.4655 251.267 98.7739 253.713 100.694 255.632C102.615 257.551 105.062 258.858 107.725 259.387C110.388 259.916 113.148 259.643 115.656 258.604C118.164 257.564 120.308 255.805 121.816 253.547C123.325 251.289 124.13 248.635 124.13 245.92C124.124 242.278 122.675 238.788 120.099 236.214C117.523 233.64 114.031 232.193 110.39 232.19Z" fill="#EBEBEB"/>
<path d="M113.27 381.56C107.53 381.66 93.0504 381.91 87.5004 381.97H78.8103H78.3604V381.52V370.33V369.83H78.8604L96.0903 369.9C100.38 369.9 109.03 370.03 113.32 370.09H113.57V370.33L113.33 381.52L113.27 381.56ZM113.27 381.56L113 370.37L113.24 370.61C108.94 370.67 100.31 370.76 96.0104 370.8L78.7803 370.87L79.2803 370.37V381.56L78.8304 381.1H87.3704C92.8304 381.16 107.64 381.41 113.29 381.51L113.27 381.56Z" fill="#EBEBEB"/>
<path d="M94.0499 395.67C88.3099 395.77 73.8299 396.02 68.2799 396.08H59.5899H59.1299V395.63V384.44V384H59.6399L76.8699 384.07C81.1599 384.07 89.8099 384.2 94.0999 384.26H94.3399V384.5L94.0999 395.69L94.0499 395.67ZM94.0499 395.67L93.8099 384.48L94.0499 384.72C89.7499 384.78 81.1099 384.87 76.8199 384.91L59.5899 385L60.0899 384.5L59.9999 395.67L59.5499 395.21L68.0799 395.26C73.5399 395.32 88.3599 395.57 94.0099 395.67H94.0499Z" fill="#EBEBEB"/>
<path d="M130.139 177.08C124.399 177.18 109.929 177.43 104.379 177.49H95.6795H95.2295V177.03V165.84V165.34H95.7295L112.959 165.41C117.249 165.41 125.899 165.54 130.189 165.6H130.439V165.84L130.199 177.03L130.139 177.08ZM130.139 177.08L129.899 165.89L130.139 166.13C125.849 166.19 117.209 166.29 112.909 166.32L95.6795 166.39L96.1795 165.89V177.08L95.7195 176.63H104.259C109.719 176.69 124.529 176.94 130.179 177.04L130.139 177.08Z" fill="#EBEBEB"/>
<path d="M110.92 191.19C105.18 191.29 90.7 191.54 85.15 191.6L76.46 191.65H76V191.19V180V179.5H76.5L93.73 179.57C98.02 179.57 106.67 179.7 110.96 179.76H111.21V180L110.97 191.19H110.92ZM110.92 191.19L110.68 180L110.92 180.24C106.62 180.3 97.99 180.4 93.69 180.43L76.46 180.5L76.96 180V191.19L76.5 190.74H85.04C90.5 190.8 105.31 191.05 110.96 191.15L110.92 191.19Z" fill="#EBEBEB"/>
<path d="M149.37 180H114.91V191.19H149.37V180Z" fill="#EBEBEB"/>
<path d="M674.53 384.48H640.07V395.67H674.53V384.48Z" fill="#EBEBEB"/>
<path d="M674.53 43.24H640.07V54.43H674.53V43.24Z" fill="#EBEBEB"/>
<path d="M693.75 68.5401C688.01 68.6401 673.53 68.89 667.99 68.95H659.29H658.84V68.49L658.79 57.3V56.8H659.29L676.52 56.87C680.81 56.87 689.46 57.0001 693.75 57.0601H694V57.2901L693.76 68.4801L693.75 68.5401ZM693.75 68.5401L693.51 57.35L693.75 57.59C689.45 57.66 680.82 57.7501 676.52 57.7901L659.29 57.85L659.79 57.35V68.5401L659.33 68.09H667.87C673.33 68.16 688.14 68.41 693.79 68.5L693.75 68.5401Z" fill="#EBEBEB"/>
<path d="M90.71 54.45C84.97 54.55 70.49 54.79 64.94 54.86H56.25H55.79V54.41V43.22V42.71H56.29L73.52 42.77C77.81 42.77 86.46 42.9 90.75 42.96H91V43.2L90.76 54.39L90.71 54.45ZM90.71 54.45L90.47 43.26L90.71 43.5C86.41 43.56 77.78 43.65 73.48 43.69L56.25 43.75L56.75 43.26V54.45L56.25 54H64.78C70.25 54.07 85.06 54.32 90.71 54.42V54.45Z" fill="#EBEBEB"/>
<path d="M408.8 91.6299H443.26V80.4399H408.8V91.6299Z" fill="#EBEBEB"/>
<path d="M428 66.3299C433.74 66.2299 448.22 65.9799 453.77 65.9199H462.46H462.91V66.3799V77.5699V77.9999H462.41H445.26C440.97 77.9999 432.32 77.8699 428.03 77.8099H427.78V77.5699L428 66.3299ZM428 66.3299L428.24 77.5199L428 77.2799C432.3 77.2199 440.93 77.1299 445.23 77.0899L462.49 76.9999L461.99 77.4999V66.3099L462.45 66.7699L454 66.7399C448.54 66.6799 433.73 66.4299 428.08 66.3299H428Z" fill="#EBEBEB"/>
<path d="M50.7197 441.6L131.79 441.36L212.86 441.27L375 441.11L537.14 441.27L618.21 441.36L699.28 441.6L618.21 441.85L537.14 441.94L375 442.1L212.86 441.94L131.79 441.85L50.7197 441.6Z" fill="#263238"/>
<path d="M681.37 419.29H68.6299V441.61H681.37V419.29Z" fill="#C7C7C7"/>
<path d="M627.049 82.0701H122.939V419.29H627.049V82.0701Z" fill="#DBDBDB"/>
<path d="M623.4 86.1802H126.61V415.17H623.4V86.1802Z" fill="#263238"/>
<path d="M601.39 107.33H148.6V394.02H601.39V107.33Z" fill="white"/>
<path d="M601.39 107.33H148.6V118.36H601.39V107.33Z" fill="#455A64"/>
<path d="M159 112.85C159 113.263 158.878 113.667 158.648 114.011C158.418 114.355 158.092 114.623 157.71 114.781C157.328 114.939 156.908 114.98 156.503 114.9C156.097 114.819 155.725 114.62 155.432 114.328C155.14 114.036 154.941 113.663 154.86 113.258C154.78 112.852 154.821 112.432 154.979 112.05C155.138 111.668 155.405 111.342 155.749 111.112C156.093 110.883 156.497 110.76 156.91 110.76C157.465 110.76 157.996 110.98 158.388 111.372C158.78 111.764 159 112.296 159 112.85Z" fill="#C7C7C7"/>
<path d="M167.51 112.85C167.51 113.264 167.387 113.668 167.157 114.012C166.927 114.356 166.6 114.624 166.218 114.782C165.835 114.94 165.414 114.981 165.009 114.899C164.603 114.818 164.231 114.618 163.939 114.324C163.647 114.031 163.449 113.658 163.369 113.252C163.29 112.846 163.332 112.425 163.492 112.043C163.652 111.662 163.921 111.336 164.266 111.107C164.611 110.879 165.016 110.758 165.43 110.76C165.704 110.76 165.975 110.814 166.228 110.919C166.481 111.024 166.711 111.179 166.904 111.373C167.098 111.567 167.251 111.797 167.355 112.051C167.459 112.304 167.511 112.576 167.51 112.85Z" fill="white"/>
<path d="M176 112.85C176 113.263 175.878 113.667 175.648 114.011C175.418 114.355 175.092 114.623 174.71 114.781C174.328 114.939 173.908 114.98 173.503 114.9C173.097 114.819 172.725 114.62 172.432 114.328C172.14 114.036 171.941 113.663 171.86 113.258C171.78 112.852 171.821 112.432 171.979 112.05C172.138 111.668 172.405 111.342 172.749 111.112C173.093 110.883 173.497 110.76 173.91 110.76C174.465 110.76 174.996 110.98 175.388 111.372C175.78 111.764 176 112.296 176 112.85Z" fill="#009FE3"/>
<path d="M420.019 213.03H329.979V303.07H420.019V213.03Z" fill="#009FE3"/>
<path d="M408.93 210.26H412.07V198.93H408.93V210.26Z" fill="#C7C7C7"/>
<path d="M400.049 210.26H403.189V198.93H400.049V210.26Z" fill="#C7C7C7"/>
<path d="M391.17 210.26H394.31V198.93H391.17V210.26Z" fill="#C7C7C7"/>
<path d="M382.31 210.26H385.45V198.93H382.31V210.26Z" fill="#C7C7C7"/>
<path d="M373.43 210.26H376.57V198.93H373.43V210.26Z" fill="#C7C7C7"/>
<path d="M364.549 210.26H367.689V198.93H364.549V210.26Z" fill="#C7C7C7"/>
<path d="M355.69 210.26H358.83V198.93H355.69V210.26Z" fill="#C7C7C7"/>
<path d="M346.81 210.26H349.95V198.93H346.81V210.26Z" fill="#C7C7C7"/>
<path d="M337.93 210.26H341.07V198.93H337.93V210.26Z" fill="#C7C7C7"/>
<path d="M336.88 213.03H342.13V208.76H336.88V213.03Z" fill="#009FE3"/>
<path opacity="0.1" d="M336.88 213.03H342.13V208.76H336.88V213.03Z" fill="black"/>
<path d="M345.75 213.03H351V208.76H345.75V213.03Z" fill="#009FE3"/>
<path opacity="0.1" d="M345.75 213.03H351V208.76H345.75V213.03Z" fill="black"/>
<path d="M354.63 213.03H359.88V208.76H354.63V213.03Z" fill="#009FE3"/>
<path opacity="0.1" d="M354.63 213.03H359.88V208.76H354.63V213.03Z" fill="black"/>
<path d="M363.5 213.03H368.75V208.76H363.5V213.03Z" fill="#009FE3"/>
<path opacity="0.1" d="M363.5 213.03H368.75V208.76H363.5V213.03Z" fill="black"/>
<path d="M372.37 213.03H377.62V208.76H372.37V213.03Z" fill="#009FE3"/>
<path opacity="0.1" d="M372.37 213.03H377.62V208.76H372.37V213.03Z" fill="black"/>
<path d="M381.25 213.03H386.5V208.76H381.25V213.03Z" fill="#009FE3"/>
<path opacity="0.1" d="M381.25 213.03H386.5V208.76H381.25V213.03Z" fill="black"/>
<path d="M390.12 213.03H395.37V208.76H390.12V213.03Z" fill="#009FE3"/>
<path opacity="0.1" d="M390.12 213.03H395.37V208.76H390.12V213.03Z" fill="black"/>
<path d="M398.99 213.03H404.24V208.76H398.99V213.03Z" fill="#009FE3"/>
<path opacity="0.1" d="M398.99 213.03H404.24V208.76H398.99V213.03Z" fill="black"/>
<path d="M407.87 213.03H413.12V208.76H407.87V213.03Z" fill="#009FE3"/>
<path opacity="0.1" d="M407.87 213.03H413.12V208.76H407.87V213.03Z" fill="black"/>
<path d="M422.79 291.97V295.11H434.12V291.97H422.79Z" fill="#C7C7C7"/>
<path d="M422.79 283.1V286.24H434.12V283.1H422.79Z" fill="#C7C7C7"/>
<path d="M422.79 274.23V277.37H434.12V274.23H422.79Z" fill="#C7C7C7"/>
<path d="M422.79 265.35V268.49H434.12V265.35H422.79Z" fill="#C7C7C7"/>
<path d="M422.79 256.48V259.62H434.12V256.48H422.79Z" fill="#C7C7C7"/>
<path d="M422.79 247.6V250.74H434.12V247.6H422.79Z" fill="#C7C7C7"/>
<path d="M422.79 238.73V241.87H434.12V238.73H422.79Z" fill="#C7C7C7"/>
<path d="M422.8 229.86V233H434.13V229.86H422.8Z" fill="#C7C7C7"/>
<path d="M422.79 220.98V224.12H434.12V220.98H422.79Z" fill="#C7C7C7"/>
<path d="M420.02 219.93V225.18H424.29V219.93H420.02Z" fill="#009FE3"/>
<path opacity="0.1" d="M420.02 219.93V225.18H424.29V219.93H420.02Z" fill="black"/>
<path d="M420.02 228.8V234.05H424.29V228.8H420.02Z" fill="#009FE3"/>
<path opacity="0.1" d="M420.02 228.8V234.05H424.29V228.8H420.02Z" fill="black"/>
<path d="M420.02 237.68V242.93H424.29V237.68H420.02Z" fill="#009FE3"/>
<path opacity="0.1" d="M420.02 237.68V242.93H424.29V237.68H420.02Z" fill="black"/>
<path d="M420.02 246.55V251.8H424.29V246.55H420.02Z" fill="#009FE3"/>
<path opacity="0.1" d="M420.02 246.55V251.8H424.29V246.55H420.02Z" fill="black"/>
<path d="M420.02 255.43V260.68H424.29V255.43H420.02Z" fill="#009FE3"/>
<path opacity="0.1" d="M420.02 255.43V260.68H424.29V255.43H420.02Z" fill="black"/>
<path d="M420.02 264.3V269.55H424.29V264.3H420.02Z" fill="#009FE3"/>
<path opacity="0.1" d="M420.02 264.3V269.55H424.29V264.3H420.02Z" fill="black"/>
<path d="M420.02 273.17V278.42H424.29V273.17H420.02Z" fill="#009FE3"/>
<path opacity="0.1" d="M420.02 273.17V278.42H424.29V273.17H420.02Z" fill="black"/>
<path d="M420.02 282.05V287.3H424.29V282.05H420.02Z" fill="#009FE3"/>
<path opacity="0.1" d="M420.02 282.05V287.3H424.29V282.05H420.02Z" fill="black"/>
<path d="M420.02 290.92V296.17H424.29V290.92H420.02Z" fill="#009FE3"/>
<path opacity="0.1" d="M420.02 290.92V296.17H424.29V290.92H420.02Z" fill="black"/>
<path d="M341.079 305.84H337.939V317.17H341.079V305.84Z" fill="#C7C7C7"/>
<path d="M349.95 305.84H346.81V317.17H349.95V305.84Z" fill="#C7C7C7"/>
<path d="M358.82 305.84H355.68V317.17H358.82V305.84Z" fill="#C7C7C7"/>
<path d="M367.7 305.84H364.56V317.17H367.7V305.84Z" fill="#C7C7C7"/>
<path d="M376.57 305.84H373.43V317.17H376.57V305.84Z" fill="#C7C7C7"/>
<path d="M385.44 305.84H382.3V317.17H385.44V305.84Z" fill="#C7C7C7"/>
<path d="M394.32 305.84H391.18V317.17H394.32V305.84Z" fill="#C7C7C7"/>
<path d="M403.19 305.84H400.05V317.17H403.19V305.84Z" fill="#C7C7C7"/>
<path d="M412.06 305.84H408.92V317.17H412.06V305.84Z" fill="#C7C7C7"/>
<path d="M413.12 303.07H407.87V307.34H413.12V303.07Z" fill="#009FE3"/>
<path opacity="0.1" d="M413.12 303.07H407.87V307.34H413.12V303.07Z" fill="black"/>
<path d="M404.25 303.07H399V307.34H404.25V303.07Z" fill="#009FE3"/>
<path opacity="0.1" d="M404.25 303.07H399V307.34H404.25V303.07Z" fill="black"/>
<path d="M395.37 303.07H390.12V307.34H395.37V303.07Z" fill="#009FE3"/>
<path opacity="0.1" d="M395.37 303.07H390.12V307.34H395.37V303.07Z" fill="black"/>
<path d="M386.5 303.07H381.25V307.34H386.5V303.07Z" fill="#009FE3"/>
<path opacity="0.1" d="M386.5 303.07H381.25V307.34H386.5V303.07Z" fill="black"/>
<path d="M377.63 303.07H372.38V307.34H377.63V303.07Z" fill="#009FE3"/>
<path opacity="0.1" d="M377.63 303.07H372.38V307.34H377.63V303.07Z" fill="black"/>
<path d="M368.75 303.07H363.5V307.34H368.75V303.07Z" fill="#009FE3"/>
<path opacity="0.1" d="M368.75 303.07H363.5V307.34H368.75V303.07Z" fill="black"/>
<path d="M359.88 303.07H354.63V307.34H359.88V303.07Z" fill="#009FE3"/>
<path opacity="0.1" d="M359.88 303.07H354.63V307.34H359.88V303.07Z" fill="black"/>
<path d="M351.01 303.07H345.76V307.34H351.01V303.07Z" fill="#009FE3"/>
<path opacity="0.1" d="M351.01 303.07H345.76V307.34H351.01V303.07Z" fill="black"/>
<path d="M342.13 303.07H336.88V307.34H342.13V303.07Z" fill="#009FE3"/>
<path opacity="0.1" d="M342.13 303.07H336.88V307.34H342.13V303.07Z" fill="black"/>
<path d="M327.21 224.07V220.93H315.88V224.07H327.21Z" fill="#C7C7C7"/>
<path d="M327.21 232.94V229.8H315.88V232.94H327.21Z" fill="#C7C7C7"/>
<path d="M327.21 241.81V238.67H315.88V241.81H327.21Z" fill="#C7C7C7"/>
<path d="M327.21 250.69V247.55H315.88V250.69H327.21Z" fill="#C7C7C7"/>
<path d="M327.21 259.56V256.42H315.88V259.56H327.21Z" fill="#C7C7C7"/>
<path d="M327.21 268.43V265.29H315.88V268.43H327.21Z" fill="#C7C7C7"/>
<path d="M327.2 277.31V274.17H315.87V277.31H327.2Z" fill="#C7C7C7"/>
<path d="M327.21 286.18V283.04H315.88V286.18H327.21Z" fill="#C7C7C7"/>
<path d="M327.21 295.05V291.91H315.88V295.05H327.21Z" fill="#C7C7C7"/>
<path d="M329.979 296.11V290.86H325.71V296.11H329.979Z" fill="#009FE3"/>
<path opacity="0.1" d="M329.979 296.11V290.86H325.71V296.11H329.979Z" fill="black"/>
<path d="M329.979 287.24V281.99H325.71V287.24H329.979Z" fill="#009FE3"/>
<path opacity="0.1" d="M329.979 287.24V281.99H325.71V287.24H329.979Z" fill="black"/>
<path d="M329.979 278.36V273.11H325.709V278.36H329.979Z" fill="#009FE3"/>
<path opacity="0.1" d="M329.979 278.36V273.11H325.709V278.36H329.979Z" fill="black"/>
<path d="M329.99 269.5V264.25H325.72V269.5H329.99Z" fill="#009FE3"/>
<path opacity="0.1" d="M329.99 269.5V264.25H325.72V269.5H329.99Z" fill="black"/>
<path d="M329.979 260.62V255.37H325.709V260.62H329.979Z" fill="#009FE3"/>
<path opacity="0.1" d="M329.979 260.62V255.37H325.709V260.62H329.979Z" fill="black"/>
<path d="M329.979 251.74V246.49H325.71V251.74H329.979Z" fill="#009FE3"/>
<path opacity="0.1" d="M329.979 251.74V246.49H325.71V251.74H329.979Z" fill="black"/>
<path d="M329.979 242.87V237.62H325.709V242.87H329.979Z" fill="#009FE3"/>
<path opacity="0.1" d="M329.979 242.87V237.62H325.709V242.87H329.979Z" fill="black"/>
<path d="M329.979 234V228.75H325.71V234H329.979Z" fill="#009FE3"/>
<path opacity="0.1" d="M329.979 234V228.75H325.71V234H329.979Z" fill="black"/>
<path d="M329.979 225.12V219.87H325.709V225.12H329.979Z" fill="#009FE3"/>
<path opacity="0.1" d="M329.979 225.12V219.87H325.709V225.12H329.979Z" fill="black"/>
<path opacity="0.1" d="M339.7 220.47C339.7 221.091 339.516 221.698 339.171 222.215C338.826 222.731 338.335 223.133 337.762 223.371C337.188 223.609 336.556 223.671 335.947 223.55C335.338 223.429 334.779 223.13 334.34 222.69C333.9 222.251 333.601 221.692 333.48 221.083C333.359 220.474 333.421 219.842 333.659 219.268C333.897 218.695 334.299 218.204 334.815 217.859C335.332 217.514 335.939 217.33 336.56 217.33C337.392 217.333 338.189 217.664 338.777 218.253C339.366 218.841 339.697 219.638 339.7 220.47Z" fill="black"/>
<path d="M399.26 280.08H350.74V265.14H353.88V276.94H396.12V265.9H399.26V280.08Z" fill="white"/>
<path d="M367.54 255.2H382.45V236.02H367.54V255.2Z" fill="white"/>
<path d="M390.07 255.2H359.93L375 270.78L390.07 255.2Z" fill="white"/>
<path d="M478.5 258.43H434.12V257.68H478.25L519.12 227.74H555.18V228.49H519.36L478.5 258.43Z" fill="#DBDBDB"/>
<path d="M557.79 231.15C557.197 231.15 556.617 230.974 556.123 230.645C555.63 230.315 555.245 229.846 555.018 229.298C554.791 228.75 554.732 228.147 554.848 227.565C554.963 226.983 555.249 226.448 555.669 226.029C556.088 225.609 556.623 225.324 557.205 225.208C557.787 225.092 558.39 225.151 558.938 225.379C559.486 225.606 559.955 225.99 560.284 226.483C560.614 226.977 560.79 227.557 560.79 228.15C560.79 228.946 560.474 229.709 559.911 230.271C559.349 230.834 558.586 231.15 557.79 231.15ZM557.79 225.82C557.337 225.82 556.894 225.954 556.518 226.206C556.141 226.458 555.848 226.815 555.674 227.234C555.501 227.652 555.456 228.113 555.544 228.557C555.632 229.001 555.85 229.409 556.171 229.729C556.491 230.05 556.899 230.268 557.343 230.356C557.788 230.445 558.248 230.399 558.666 230.226C559.085 230.053 559.442 229.759 559.694 229.382C559.946 229.006 560.08 228.563 560.08 228.11C560.08 227.503 559.839 226.92 559.409 226.491C558.98 226.061 558.397 225.82 557.79 225.82Z" fill="#DBDBDB"/>
<path d="M473.56 249.68H434.12V248.93H473.31L514.18 218.99H534.18V219.74H514.42L473.56 249.68Z" fill="#DBDBDB"/>
<path d="M536.79 222.4C536.197 222.4 535.617 222.224 535.123 221.895C534.63 221.565 534.245 221.096 534.018 220.548C533.791 220 533.732 219.397 533.848 218.815C533.963 218.233 534.249 217.698 534.669 217.279C535.088 216.859 535.623 216.574 536.205 216.458C536.787 216.342 537.39 216.401 537.938 216.629C538.486 216.856 538.955 217.24 539.284 217.733C539.614 218.227 539.79 218.807 539.79 219.4C539.79 220.196 539.474 220.959 538.911 221.521C538.349 222.084 537.586 222.4 536.79 222.4ZM536.79 217.08C536.337 217.08 535.894 217.215 535.517 217.467C535.14 217.719 534.846 218.077 534.673 218.496C534.5 218.915 534.456 219.376 534.545 219.821C534.634 220.265 534.853 220.673 535.174 220.993C535.496 221.313 535.905 221.53 536.349 221.617C536.794 221.705 537.255 221.658 537.673 221.483C538.092 221.308 538.449 221.013 538.699 220.635C538.949 220.257 539.082 219.813 539.08 219.36C539.08 219.06 539.021 218.763 538.906 218.485C538.79 218.208 538.621 217.956 538.409 217.744C538.196 217.533 537.943 217.365 537.666 217.251C537.388 217.137 537.09 217.079 536.79 217.08Z" fill="#DBDBDB"/>
<path d="M524.02 266.51H434.12V267.26H524.02V266.51Z" fill="#DBDBDB"/>
<path d="M526.68 269.92C526.086 269.92 525.506 269.744 525.013 269.414C524.52 269.085 524.135 268.616 523.908 268.068C523.681 267.52 523.622 266.917 523.737 266.335C523.853 265.753 524.139 265.218 524.558 264.799C524.978 264.379 525.512 264.093 526.094 263.978C526.676 263.862 527.28 263.921 527.828 264.148C528.376 264.375 528.844 264.76 529.174 265.253C529.504 265.747 529.68 266.327 529.68 266.92C529.68 267.716 529.364 268.479 528.801 269.041C528.238 269.604 527.475 269.92 526.68 269.92ZM526.68 264.6C526.226 264.598 525.783 264.731 525.405 264.981C525.027 265.232 524.732 265.589 524.557 266.007C524.382 266.425 524.335 266.886 524.422 267.331C524.51 267.776 524.727 268.184 525.047 268.506C525.367 268.827 525.775 269.046 526.219 269.135C526.664 269.224 527.125 269.18 527.544 269.007C527.963 268.834 528.321 268.54 528.573 268.163C528.825 267.787 528.96 267.343 528.96 266.89C528.957 266.285 528.716 265.706 528.29 265.277C527.863 264.849 527.284 264.605 526.68 264.6Z" fill="#DBDBDB"/>
<path d="M583.03 296.5H504.2L504.12 296.46L465.86 276.18H434.12V275.43H466.05L504.39 295.75H583.03V296.5Z" fill="#DBDBDB"/>
<path d="M585.689 299.17C585.096 299.17 584.516 298.994 584.023 298.664C583.529 298.335 583.145 297.866 582.918 297.318C582.691 296.77 582.631 296.167 582.747 295.585C582.863 295.003 583.149 294.468 583.568 294.049C583.988 293.629 584.522 293.343 585.104 293.228C585.686 293.112 586.289 293.171 586.838 293.398C587.386 293.625 587.854 294.01 588.184 294.503C588.514 294.997 588.689 295.577 588.689 296.17C588.689 296.966 588.373 297.729 587.811 298.291C587.248 298.854 586.485 299.17 585.689 299.17ZM585.689 293.84C585.237 293.84 584.794 293.974 584.417 294.226C584.041 294.478 583.747 294.835 583.574 295.254C583.4 295.672 583.355 296.133 583.444 296.577C583.532 297.021 583.75 297.429 584.07 297.749C584.39 298.07 584.798 298.288 585.243 298.376C585.687 298.464 586.147 298.419 586.566 298.246C586.984 298.072 587.342 297.779 587.594 297.402C587.845 297.026 587.979 296.583 587.979 296.13C587.979 295.829 587.92 295.532 587.805 295.254C587.69 294.976 587.521 294.723 587.309 294.511C587.096 294.298 586.844 294.129 586.566 294.014C586.288 293.899 585.99 293.84 585.689 293.84Z" fill="#DBDBDB"/>
<path d="M549.51 309.01H504.15L504.06 308.96L461.76 285.05H434.12V284.3H461.96L462.04 284.35L504.34 308.26H549.51V309.01Z" fill="#DBDBDB"/>
<path d="M552.17 311.67C551.577 311.67 550.997 311.494 550.503 311.164C550.01 310.835 549.625 310.366 549.398 309.818C549.171 309.27 549.112 308.667 549.228 308.085C549.343 307.503 549.629 306.968 550.049 306.549C550.468 306.129 551.003 305.843 551.585 305.728C552.167 305.612 552.77 305.671 553.318 305.898C553.866 306.125 554.335 306.51 554.664 307.003C554.994 307.497 555.17 308.077 555.17 308.67C555.17 309.466 554.854 310.229 554.291 310.791C553.729 311.354 552.966 311.67 552.17 311.67ZM552.17 306.35C551.717 306.35 551.274 306.484 550.898 306.736C550.521 306.988 550.228 307.345 550.054 307.764C549.881 308.182 549.836 308.643 549.924 309.087C550.012 309.531 550.23 309.939 550.551 310.259C550.871 310.58 551.279 310.798 551.723 310.886C552.167 310.974 552.628 310.929 553.046 310.756C553.465 310.582 553.822 310.289 554.074 309.912C554.326 309.536 554.46 309.093 554.46 308.64C554.46 308.033 554.219 307.45 553.789 307.021C553.36 306.591 552.777 306.35 552.17 306.35Z" fill="#DBDBDB"/>
<path d="M315.88 249.5H262.49L262.39 249.42L221.62 219.55H185.81V218.8H221.87L221.97 218.88L262.73 248.75H315.88V249.5Z" fill="#DBDBDB"/>
<path d="M183.189 222.21C182.596 222.21 182.016 222.034 181.523 221.704C181.029 221.375 180.645 220.906 180.418 220.358C180.191 219.81 180.131 219.207 180.247 218.625C180.363 218.043 180.649 217.508 181.068 217.089C181.488 216.669 182.022 216.383 182.604 216.268C183.186 216.152 183.789 216.211 184.337 216.438C184.886 216.665 185.354 217.05 185.684 217.543C186.013 218.037 186.189 218.617 186.189 219.21C186.189 220.006 185.873 220.769 185.311 221.331C184.748 221.894 183.985 222.21 183.189 222.21ZM183.189 216.89C182.737 216.89 182.294 217.024 181.917 217.276C181.541 217.528 181.247 217.885 181.074 218.304C180.9 218.722 180.855 219.183 180.943 219.627C181.032 220.071 181.25 220.479 181.57 220.799C181.89 221.12 182.298 221.338 182.743 221.426C183.187 221.514 183.647 221.469 184.066 221.296C184.484 221.122 184.842 220.829 185.094 220.452C185.345 220.076 185.479 219.633 185.479 219.18C185.479 218.573 185.238 217.99 184.809 217.561C184.379 217.131 183.797 216.89 183.189 216.89Z" fill="#DBDBDB"/>
<path d="M315.88 240.62H267.43L267.33 240.55L226.56 210.68H206.81V209.93H226.81L226.91 210L267.67 239.87H315.88V240.62Z" fill="#DBDBDB"/>
<path d="M204.189 213.34C203.596 213.34 203.016 213.164 202.523 212.835C202.029 212.505 201.645 212.036 201.418 211.488C201.191 210.94 201.131 210.337 201.247 209.755C201.363 209.173 201.649 208.638 202.068 208.219C202.488 207.799 203.022 207.513 203.604 207.398C204.186 207.282 204.789 207.341 205.337 207.568C205.886 207.796 206.354 208.18 206.684 208.673C207.013 209.167 207.189 209.747 207.189 210.34C207.189 211.136 206.873 211.899 206.311 212.461C205.748 213.024 204.985 213.34 204.189 213.34ZM204.189 208.02C203.736 208.02 203.293 208.155 202.916 208.407C202.539 208.659 202.246 209.017 202.073 209.436C201.9 209.855 201.855 210.316 201.944 210.761C202.033 211.205 202.252 211.613 202.574 211.933C202.895 212.253 203.304 212.47 203.749 212.557C204.194 212.645 204.654 212.598 205.073 212.423C205.491 212.248 205.848 211.953 206.098 211.575C206.349 211.197 206.481 210.753 206.479 210.3C206.482 209.998 206.425 209.699 206.311 209.419C206.197 209.14 206.028 208.885 205.815 208.671C205.602 208.457 205.349 208.288 205.07 208.173C204.791 208.057 204.491 207.999 204.189 208V208.02Z" fill="#DBDBDB"/>
<path d="M315.88 257.68H166.97V258.43H315.88V257.68Z" fill="#DBDBDB"/>
<path d="M164.31 261.09C163.716 261.09 163.136 260.914 162.643 260.585C162.15 260.255 161.765 259.786 161.538 259.238C161.311 258.69 161.251 258.087 161.367 257.505C161.483 256.923 161.769 256.388 162.188 255.969C162.608 255.549 163.142 255.263 163.724 255.148C164.306 255.032 164.909 255.091 165.458 255.318C166.006 255.546 166.474 255.93 166.804 256.423C167.134 256.917 167.31 257.497 167.31 258.09C167.31 258.886 166.994 259.649 166.431 260.211C165.868 260.774 165.105 261.09 164.31 261.09ZM164.31 255.77C163.856 255.768 163.412 255.901 163.034 256.152C162.655 256.403 162.36 256.76 162.186 257.179C162.011 257.598 161.965 258.059 162.053 258.504C162.141 258.95 162.359 259.358 162.68 259.679C163.001 260 163.41 260.219 163.855 260.307C164.3 260.395 164.762 260.348 165.181 260.174C165.599 259.999 165.957 259.704 166.208 259.326C166.459 258.948 166.592 258.504 166.59 258.05C166.587 257.446 166.346 256.868 165.919 256.441C165.492 256.014 164.913 255.773 164.31 255.77Z" fill="#DBDBDB"/>
<path d="M236.78 287.57H217.96V286.82H236.6L274.94 266.49H315.88V267.24H275.12L236.78 287.57Z" fill="#DBDBDB"/>
<path d="M215.29 290.23C214.697 290.23 214.117 290.054 213.623 289.724C213.13 289.395 212.745 288.926 212.518 288.378C212.291 287.83 212.232 287.227 212.348 286.645C212.463 286.063 212.749 285.528 213.169 285.109C213.588 284.689 214.123 284.404 214.705 284.288C215.287 284.172 215.89 284.231 216.438 284.458C216.986 284.686 217.455 285.07 217.784 285.563C218.114 286.057 218.29 286.637 218.29 287.23C218.29 288.026 217.974 288.789 217.411 289.351C216.849 289.914 216.086 290.23 215.29 290.23ZM215.29 284.91C214.837 284.91 214.394 285.044 214.018 285.296C213.641 285.548 213.348 285.905 213.174 286.324C213.001 286.742 212.956 287.203 213.044 287.647C213.132 288.091 213.351 288.499 213.671 288.819C213.991 289.14 214.399 289.358 214.843 289.446C215.288 289.534 215.748 289.489 216.166 289.316C216.585 289.142 216.942 288.849 217.194 288.472C217.446 288.096 217.58 287.653 217.58 287.2C217.58 286.593 217.339 286.01 216.909 285.581C216.48 285.151 215.897 284.91 215.29 284.91Z" fill="#DBDBDB"/>
<path d="M236.84 300.08H191.47V299.33H236.64L279.03 275.37H315.88V276.12H279.23L236.84 300.08Z" fill="#DBDBDB"/>
<path d="M188.81 302.74C188.216 302.74 187.636 302.564 187.143 302.234C186.65 301.905 186.265 301.436 186.038 300.888C185.811 300.34 185.751 299.737 185.867 299.155C185.983 298.573 186.269 298.038 186.688 297.619C187.108 297.199 187.642 296.913 188.224 296.798C188.806 296.682 189.409 296.741 189.958 296.968C190.506 297.195 190.974 297.58 191.304 298.073C191.634 298.567 191.81 299.147 191.81 299.74C191.81 300.536 191.494 301.299 190.931 301.861C190.368 302.424 189.605 302.74 188.81 302.74ZM188.81 297.42C188.357 297.42 187.914 297.554 187.537 297.806C187.161 298.058 186.867 298.415 186.694 298.834C186.521 299.252 186.475 299.713 186.564 300.157C186.652 300.601 186.87 301.009 187.19 301.329C187.511 301.65 187.919 301.868 188.363 301.956C188.807 302.044 189.267 301.999 189.686 301.826C190.104 301.652 190.462 301.359 190.714 300.982C190.965 300.606 191.1 300.163 191.1 299.71C191.1 299.103 190.858 298.52 190.429 298.091C189.999 297.661 189.417 297.42 188.81 297.42Z" fill="#DBDBDB"/>
<path d="M384.28 198.93H383.53V178.54L383.61 178.44L401.19 154.45V147.62H401.94V154.69L401.86 154.79L384.28 178.78V198.93Z" fill="#DBDBDB"/>
<path d="M401.56 147.89C400.966 147.89 400.386 147.714 399.893 147.385C399.4 147.055 399.015 146.586 398.788 146.038C398.561 145.49 398.501 144.887 398.617 144.305C398.733 143.723 399.019 143.188 399.438 142.769C399.858 142.349 400.392 142.064 400.974 141.948C401.556 141.832 402.159 141.891 402.708 142.118C403.256 142.346 403.724 142.73 404.054 143.223C404.384 143.717 404.56 144.297 404.56 144.89C404.56 145.686 404.244 146.449 403.681 147.011C403.118 147.574 402.355 147.89 401.56 147.89ZM401.56 142.57C401.106 142.57 400.663 142.705 400.286 142.957C399.909 143.209 399.616 143.567 399.443 143.986C399.27 144.405 399.225 144.866 399.314 145.311C399.404 145.755 399.623 146.163 399.944 146.483C400.265 146.803 400.674 147.02 401.119 147.107C401.564 147.195 402.025 147.148 402.443 146.973C402.861 146.798 403.218 146.503 403.469 146.125C403.719 145.747 403.852 145.303 403.85 144.85C403.85 144.55 403.79 144.253 403.675 143.975C403.56 143.698 403.391 143.446 403.178 143.234C402.965 143.023 402.713 142.855 402.435 142.741C402.157 142.627 401.86 142.569 401.56 142.57Z" fill="#DBDBDB"/>
<path d="M393.16 198.93H392.41V183.48L392.48 183.38L413.72 154.39V140.74H414.47V154.64L414.4 154.74L393.16 183.72V198.93Z" fill="#DBDBDB"/>
<path d="M414.09 141.11C413.496 141.11 412.916 140.934 412.423 140.605C411.93 140.275 411.545 139.806 411.318 139.258C411.091 138.71 411.032 138.107 411.147 137.525C411.263 136.943 411.549 136.408 411.969 135.989C412.388 135.569 412.923 135.284 413.505 135.168C414.087 135.052 414.69 135.111 415.238 135.338C415.786 135.566 416.255 135.95 416.584 136.443C416.914 136.937 417.09 137.517 417.09 138.11C417.09 138.906 416.774 139.669 416.211 140.231C415.649 140.794 414.885 141.11 414.09 141.11ZM414.09 135.79C413.637 135.79 413.194 135.924 412.818 136.176C412.441 136.428 412.147 136.785 411.974 137.204C411.801 137.622 411.755 138.083 411.844 138.527C411.932 138.971 412.15 139.379 412.471 139.699C412.791 140.02 413.199 140.238 413.643 140.326C414.087 140.414 414.548 140.369 414.966 140.196C415.385 140.022 415.742 139.729 415.994 139.352C416.246 138.976 416.38 138.533 416.38 138.08C416.38 137.779 416.321 137.482 416.206 137.204C416.09 136.926 415.922 136.673 415.709 136.461C415.496 136.248 415.244 136.079 414.966 135.964C414.688 135.849 414.391 135.79 414.09 135.79Z" fill="#DBDBDB"/>
<path d="M375.41 158.15H374.66V198.93H375.41V158.15Z" fill="#DBDBDB"/>
<path d="M375 158.53C374.407 158.53 373.827 158.354 373.333 158.024C372.84 157.695 372.455 157.226 372.228 156.678C372.001 156.13 371.942 155.527 372.058 154.945C372.173 154.363 372.459 153.828 372.879 153.409C373.298 152.989 373.833 152.703 374.415 152.588C374.997 152.472 375.6 152.531 376.148 152.758C376.696 152.985 377.165 153.37 377.494 153.863C377.824 154.357 378 154.937 378 155.53C378 156.326 377.684 157.089 377.121 157.651C376.559 158.214 375.796 158.53 375 158.53ZM375 153.21C374.546 153.208 374.102 153.341 373.724 153.592C373.346 153.843 373.051 154.2 372.876 154.619C372.702 155.038 372.655 155.499 372.744 155.944C372.832 156.389 373.05 156.798 373.371 157.119C373.692 157.44 374.101 157.658 374.546 157.746C374.991 157.835 375.452 157.788 375.871 157.614C376.29 157.439 376.647 157.144 376.898 156.766C377.149 156.388 377.282 155.944 377.28 155.49C377.277 154.886 377.036 154.308 376.609 153.881C376.182 153.454 375.604 153.213 375 153.21Z" fill="#DBDBDB"/>
<path d="M366.54 198.93H365.79V191.18L352.18 165.52V141.3H352.93V165.33L366.54 190.99V198.93Z" fill="#DBDBDB"/>
<path d="M352.56 141.41C351.966 141.41 351.386 141.234 350.893 140.905C350.4 140.575 350.015 140.106 349.788 139.558C349.561 139.01 349.501 138.407 349.617 137.825C349.733 137.243 350.019 136.708 350.438 136.289C350.858 135.869 351.392 135.584 351.974 135.468C352.556 135.352 353.159 135.411 353.708 135.639C354.256 135.866 354.724 136.25 355.054 136.743C355.384 137.237 355.56 137.817 355.56 138.41C355.56 139.206 355.244 139.969 354.681 140.531C354.118 141.094 353.355 141.41 352.56 141.41ZM352.56 136.09C352.106 136.088 351.663 136.221 351.285 136.471C350.907 136.722 350.612 137.079 350.437 137.497C350.262 137.915 350.215 138.376 350.302 138.821C350.39 139.266 350.607 139.675 350.927 139.996C351.247 140.317 351.655 140.536 352.099 140.625C352.544 140.715 353.005 140.67 353.424 140.497C353.843 140.324 354.201 140.03 354.453 139.653C354.705 139.277 354.84 138.833 354.84 138.38C354.837 137.775 354.596 137.196 354.169 136.767C353.743 136.339 353.164 136.095 352.56 136.09Z" fill="#DBDBDB"/>
<path d="M357.66 198.93H356.91V195.28L337.37 160.71V153.86H338.12V160.52L357.66 195.08V198.93Z" fill="#DBDBDB"/>
<path d="M337.75 154.06C337.157 154.06 336.577 153.884 336.083 153.554C335.59 153.225 335.205 152.756 334.978 152.208C334.751 151.66 334.692 151.057 334.808 150.475C334.923 149.893 335.209 149.358 335.629 148.939C336.048 148.519 336.583 148.233 337.165 148.118C337.747 148.002 338.35 148.061 338.898 148.288C339.446 148.515 339.915 148.9 340.244 149.393C340.574 149.887 340.75 150.467 340.75 151.06C340.75 151.856 340.434 152.619 339.871 153.181C339.309 153.744 338.546 154.06 337.75 154.06ZM337.75 148.74C337.294 148.732 336.846 148.86 336.464 149.109C336.081 149.357 335.782 149.713 335.603 150.133C335.425 150.552 335.375 151.015 335.462 151.463C335.548 151.911 335.766 152.322 336.087 152.645C336.409 152.968 336.82 153.188 337.267 153.276C337.714 153.365 338.178 153.317 338.598 153.141C339.018 152.964 339.376 152.666 339.626 152.284C339.876 151.903 340.006 151.456 340 151C339.99 150.406 339.75 149.838 339.33 149.417C338.911 148.995 338.344 148.753 337.75 148.74Z" fill="#DBDBDB"/>
<path d="M467.74 358.52H282.26V342.52H467.74V358.52ZM283.26 357.52H466.74V343.52H283.26V357.52Z" fill="#DBDBDB"/>
<path d="M394.43 346.49H287.1V354.54H394.43V346.49Z" fill="#009FE3"/>
<path opacity="0.2" d="M298.69 354.55H293.2L287.1 346.49H292.6L298.69 354.55Z" fill="white"/>
<path opacity="0.2" d="M310.279 354.55H304.789L298.689 346.49H304.189L310.279 354.55Z" fill="white"/>
<path opacity="0.2" d="M321.87 354.55H316.38L310.28 346.49H315.78L321.87 354.55Z" fill="white"/>
<path opacity="0.2" d="M333.46 354.55H327.97L321.87 346.49H327.37L333.46 354.55Z" fill="white"/>
<path opacity="0.2" d="M345.05 354.55H339.56L333.46 346.49H338.96L345.05 354.55Z" fill="white"/>
<path opacity="0.2" d="M356.64 354.55H351.15L345.05 346.49H350.55L356.64 354.55Z" fill="white"/>
<path opacity="0.2" d="M368.23 354.55H362.74L356.64 346.49H362.14L368.23 354.55Z" fill="white"/>
<path opacity="0.2" d="M379.819 354.55H374.329L368.229 346.49H373.729L379.819 354.55Z" fill="white"/>
<path opacity="0.2" d="M391.41 354.55H385.92L379.82 346.49H385.32L391.41 354.55Z" fill="white"/>
<path opacity="0.2" d="M394.44 346.49V350.49L391.41 346.49H394.44Z" fill="white"/>
<path d="M358.16 337C357.47 337 356.809 336.726 356.321 336.239C355.834 335.751 355.56 335.09 355.56 334.4V331.2C355.56 331.135 355.573 331.07 355.598 331.01C355.623 330.95 355.66 330.896 355.707 330.85C355.753 330.804 355.808 330.768 355.869 330.744C355.93 330.72 355.994 330.709 356.06 330.71C356.125 330.709 356.19 330.72 356.25 330.744C356.311 330.768 356.366 330.804 356.413 330.85C356.459 330.896 356.496 330.95 356.521 331.01C356.547 331.07 356.56 331.135 356.56 331.2V334.41C356.591 334.814 356.774 335.191 357.072 335.466C357.369 335.741 357.76 335.893 358.165 335.893C358.57 335.893 358.96 335.741 359.257 335.466C359.555 335.191 359.738 334.814 359.77 334.41V331.2C359.77 331.067 359.822 330.94 359.916 330.846C360.01 330.753 360.137 330.7 360.27 330.7C360.402 330.7 360.529 330.753 360.623 330.846C360.717 330.94 360.77 331.067 360.77 331.2V334.41C360.768 334.752 360.7 335.089 360.568 335.404C360.436 335.719 360.243 336.005 360.001 336.246C359.759 336.486 359.471 336.677 359.155 336.806C358.839 336.935 358.501 337.001 358.16 337Z" fill="#C7C7C7"/>
<path d="M365 334.56H363.89V336.51C363.89 336.643 363.837 336.77 363.743 336.864C363.649 336.957 363.522 337.01 363.39 337.01C363.257 337.01 363.13 336.957 363.036 336.864C362.942 336.77 362.89 336.643 362.89 336.51V331.2C362.89 331.135 362.903 331.07 362.928 331.01C362.953 330.95 362.99 330.896 363.037 330.85C363.083 330.804 363.138 330.769 363.199 330.744C363.26 330.72 363.324 330.709 363.39 330.71H365C365.264 330.691 365.53 330.727 365.78 330.815C366.03 330.903 366.259 331.042 366.453 331.222C366.647 331.403 366.802 331.621 366.908 331.865C367.014 332.108 367.068 332.37 367.068 332.635C367.068 332.9 367.014 333.163 366.908 333.406C366.802 333.649 366.647 333.867 366.453 334.048C366.259 334.229 366.03 334.367 365.78 334.455C365.53 334.544 365.264 334.579 365 334.56ZM363.89 333.56H365C365.246 333.56 365.483 333.462 365.657 333.288C365.832 333.113 365.93 332.877 365.93 332.63C365.93 332.383 365.832 332.147 365.657 331.972C365.483 331.798 365.246 331.7 365 331.7H363.89V333.56Z" fill="#C7C7C7"/>
<path d="M368.13 336.51V331.2C368.129 331.135 368.14 331.071 368.165 331.011C368.189 330.951 368.225 330.896 368.27 330.851C368.316 330.805 368.371 330.769 368.431 330.745C368.491 330.72 368.555 330.709 368.62 330.71H369.68C370.515 330.71 371.317 331.042 371.907 331.633C372.498 332.223 372.83 333.025 372.83 333.86C372.83 334.695 372.498 335.497 371.907 336.087C371.317 336.678 370.515 337.01 369.68 337.01H368.62C368.555 337.01 368.49 336.997 368.43 336.972C368.37 336.947 368.316 336.91 368.27 336.863C368.224 336.816 368.188 336.761 368.164 336.701C368.14 336.64 368.129 336.575 368.13 336.51ZM369.13 336.01H369.68C370.226 335.973 370.738 335.73 371.112 335.33C371.485 334.93 371.693 334.403 371.693 333.855C371.693 333.308 371.485 332.781 371.112 332.381C370.738 331.981 370.226 331.737 369.68 331.7H369.13V336.01Z" fill="#C7C7C7"/>
<path d="M377.23 335.52H375L374.56 336.69C374.523 336.784 374.458 336.865 374.374 336.922C374.29 336.979 374.192 337.009 374.09 337.01C374.034 337.02 373.977 337.02 373.92 337.01C373.797 336.961 373.696 336.866 373.641 336.745C373.585 336.624 373.578 336.486 373.62 336.36L375.62 331.06C375.66 330.965 375.726 330.884 375.812 330.827C375.897 330.77 375.998 330.74 376.1 330.74C376.203 330.739 376.304 330.769 376.39 330.826C376.476 330.883 376.542 330.964 376.58 331.06L378.58 336.36C378.623 336.486 378.616 336.624 378.56 336.745C378.504 336.866 378.404 336.961 378.28 337.01C378.224 337.02 378.166 337.02 378.11 337.01C378.01 337.012 377.911 336.982 377.829 336.924C377.746 336.867 377.684 336.785 377.65 336.69L377.23 335.52ZM376.86 334.52L376.13 332.59L375.4 334.52H376.86Z" fill="#C7C7C7"/>
<path d="M382.78 331.7H381.35V336.51C381.35 336.643 381.297 336.77 381.203 336.864C381.109 336.957 380.982 337.01 380.85 337.01C380.717 337.01 380.59 336.957 380.496 336.864C380.402 336.77 380.35 336.643 380.35 336.51V331.7H378.93C378.797 331.7 378.67 331.647 378.576 331.554C378.482 331.46 378.43 331.333 378.43 331.2C378.43 331.135 378.443 331.07 378.468 331.01C378.493 330.95 378.53 330.896 378.577 330.85C378.623 330.804 378.678 330.768 378.739 330.744C378.8 330.72 378.865 330.709 378.93 330.71H382.77C382.835 330.709 382.9 330.72 382.96 330.744C383.021 330.768 383.076 330.804 383.123 330.85C383.169 330.896 383.206 330.95 383.231 331.01C383.257 331.07 383.27 331.135 383.27 331.2C383.267 331.33 383.215 331.454 383.124 331.547C383.033 331.64 382.91 331.695 382.78 331.7Z" fill="#C7C7C7"/>
<path d="M384.76 336.51V331.2C384.759 331.135 384.77 331.071 384.794 331.011C384.819 330.951 384.855 330.896 384.9 330.851C384.946 330.805 385.001 330.769 385.061 330.745C385.121 330.72 385.185 330.709 385.25 330.71H388.2C388.33 330.71 388.454 330.762 388.546 330.854C388.638 330.945 388.69 331.07 388.69 331.2C388.69 331.331 388.639 331.457 388.547 331.55C388.455 331.644 388.331 331.697 388.2 331.7H385.76V333.35H387.86C387.99 333.355 388.113 333.41 388.204 333.503C388.295 333.596 388.347 333.72 388.35 333.85C388.351 333.915 388.34 333.98 388.315 334.041C388.291 334.101 388.256 334.156 388.21 334.203C388.164 334.25 388.11 334.287 388.05 334.312C387.99 334.337 387.925 334.35 387.86 334.35H385.76V336H388.2C388.331 336.003 388.455 336.057 388.547 336.15C388.639 336.243 388.69 336.369 388.69 336.5C388.687 336.63 388.635 336.754 388.544 336.847C388.453 336.94 388.33 336.995 388.2 337H385.25C385.121 336.998 384.998 336.945 384.906 336.854C384.815 336.762 384.762 336.639 384.76 336.51Z" fill="#C7C7C7"/>
<path d="M390.56 335.73C390.737 335.73 390.908 335.801 391.033 335.926C391.159 336.052 391.23 336.222 391.23 336.4C391.23 336.578 391.159 336.748 391.033 336.874C390.908 336.999 390.737 337.07 390.56 337.07C390.382 337.07 390.212 336.999 390.086 336.874C389.96 336.748 389.89 336.578 389.89 336.4C389.89 336.222 389.96 336.052 390.086 335.926C390.212 335.801 390.382 335.73 390.56 335.73Z" fill="#C7C7C7"/>
<path d="M392.63 335.73C392.808 335.73 392.978 335.801 393.104 335.926C393.229 336.052 393.3 336.222 393.3 336.4C393.3 336.578 393.229 336.748 393.104 336.874C392.978 336.999 392.808 337.07 392.63 337.07C392.452 337.07 392.282 336.999 392.156 336.874C392.031 336.748 391.96 336.578 391.96 336.4C391.96 336.222 392.031 336.052 392.156 335.926C392.282 335.801 392.452 335.73 392.63 335.73Z" fill="#C7C7C7"/>
<path d="M394.7 335.73C394.878 335.73 395.048 335.801 395.174 335.926C395.3 336.052 395.37 336.222 395.37 336.4C395.37 336.578 395.3 336.748 395.174 336.874C395.048 336.999 394.878 337.07 394.7 337.07C394.523 337.07 394.352 336.999 394.227 336.874C394.101 336.748 394.03 336.578 394.03 336.4C394.03 336.222 394.101 336.052 394.227 335.926C394.352 335.801 394.523 335.73 394.7 335.73Z" fill="#C7C7C7"/>
<path d="M134.66 324.51C121.66 342.05 108.2 362.41 104.91 384.41C104.91 384.75 105.4 384.86 105.48 384.53C106.965 378.527 108.88 372.638 111.21 366.91C119.72 364.57 128.08 362.64 132.55 354.19C137.11 345.5 136.55 334.19 135.67 324.71C135.61 324.2 134.92 324.17 134.66 324.51Z" fill="#009FE3"/>
<path d="M111.33 366.75C117.15 353.69 124.62 340.58 134.12 329.84C134.18 329.77 134.28 329.84 134.22 329.94C128.01 337.59 123.28 345.94 118.67 354.39C122.96 350.04 127.67 346.14 131.67 341.52C131.75 341.43 131.88 341.52 131.8 341.65C127.8 346.49 123.36 351.75 118.11 355.34C116.703 357.94 115.276 360.543 113.83 363.15C114.19 362.95 114.55 362.78 114.91 362.6C114.923 362.596 114.936 362.596 114.949 362.601C114.962 362.606 114.972 362.615 114.979 362.626C114.986 362.638 114.989 362.652 114.987 362.665C114.986 362.678 114.979 362.691 114.97 362.7C114.57 362.9 114.17 363.11 113.76 363.29C113.08 364.52 112.4 365.76 111.7 366.99C111.59 367.26 111.21 367 111.33 366.75Z" fill="#263238"/>
<path d="M115.66 362.19C119.161 360.241 122.505 358.021 125.66 355.55C125.74 355.48 125.86 355.6 125.78 355.67C122.744 358.297 119.415 360.566 115.86 362.43C115.64 362.52 115.5 362.28 115.66 362.19Z" fill="#263238"/>
<path d="M103.41 381.14C103.41 381.41 103.89 381.41 103.88 381.14C103.95 373.9 103.88 366.62 104 359.34C105.85 355.6 109.84 353.52 112.61 350.52C114.599 348.328 116.33 345.916 117.77 343.33C121.108 337.14 123.149 330.335 123.77 323.33C124.53 315.58 121.59 290.01 118.33 290.9C116.63 291.36 111.15 304.02 109.7 308.21C107.339 315.115 105.612 322.221 104.54 329.44C101.89 346.48 102.11 364 103.41 381.14Z" fill="#009FE3"/>
<path d="M103.36 349.89C103.76 340.72 105.82 331.47 107.75 322.58C109.84 313 112.27 303.98 117.2 295.44C117.221 295.413 117.251 295.394 117.285 295.388C117.318 295.381 117.353 295.387 117.382 295.404C117.412 295.421 117.434 295.449 117.445 295.481C117.455 295.513 117.454 295.549 117.44 295.58C114.154 302.223 111.612 309.209 109.86 316.41C110.19 315.89 110.59 315.41 110.93 314.92C111.07 314.73 111.38 314.92 111.25 315.1C110.813 315.878 110.297 316.608 109.71 317.28H109.65C107.95 324.12 106.73 331.13 105.65 338.11L105.88 337.84C105.88 337.78 106.02 337.84 105.99 337.92C105.86 338.16 105.71 338.39 105.57 338.62C105.05 342.16 104.57 345.7 104.07 349.21C110.38 343.81 115.78 337.45 118.82 329.62C118.82 329.62 118.89 329.62 118.88 329.62C115.88 337.75 111.2 344.98 103.97 349.91C103.84 350.85 103.71 351.8 103.57 352.74C103.57 352.94 103.23 352.88 103.23 352.69C103.23 351.86 103.23 351.02 103.31 350.18C103.292 350.159 103.278 350.134 103.271 350.107C103.263 350.079 103.262 350.051 103.267 350.023C103.271 349.995 103.282 349.969 103.299 349.946C103.315 349.923 103.336 349.904 103.36 349.89Z" fill="#263238"/>
<path d="M106.33 336.61C111.15 329.41 115.66 322.41 119.19 314.46C119.19 314.37 119.38 314.46 119.35 314.52C116.35 322.43 112.21 330.44 106.57 336.79C106.46 336.92 106.23 336.75 106.33 336.61Z" fill="#263238"/>
<path d="M112.74 312.68C114.74 309.14 116.85 305.68 118.74 302.09C118.74 301.99 118.93 302.09 118.89 302.18C117.346 305.944 115.391 309.525 113.06 312.86C112.92 313 112.63 312.88 112.74 312.68Z" fill="#263238"/>
<path d="M98.5004 360.19C98.404 364.994 97.8379 369.776 96.8104 374.47C96.8904 374.98 96.9604 375.47 97.0404 376.03C98.5157 370.846 99.3717 365.505 99.5904 360.12C99.6344 360.046 99.6576 359.961 99.6576 359.875C99.6576 359.789 99.6344 359.704 99.5904 359.63C99.8016 352.401 99.2688 345.17 98.0004 338.05C95.7704 324.74 90.8704 312 81.5804 302C81.5036 301.94 81.4147 301.898 81.32 301.876C81.2253 301.854 81.1269 301.853 81.0317 301.873C80.9366 301.893 80.8469 301.934 80.769 301.992C80.691 302.05 80.6267 302.124 80.5804 302.21C76.8404 311.74 78.1404 323.11 81.3404 332.61C83.0664 337.739 85.536 342.588 88.6704 347C91.8604 351.51 95.9204 355.3 98.5004 360.19Z" fill="#009FE3"/>
<path d="M82.6805 306.44C91.4805 320.72 97.6005 337.66 98.3505 354.53C98.3505 354.83 97.8605 354.91 97.8205 354.6C97.6105 353.08 97.3805 351.6 97.1405 350.09C93.5005 346.6 89.7605 342.92 87.1405 338.57C87.1405 338.49 87.2005 338.4 87.2605 338.47C90.2965 342.169 93.5488 345.685 97.0005 349C96.3738 345.273 95.6205 341.607 94.7405 338C94.5005 337.73 94.2705 337.45 94.0405 337.18C93.8105 336.91 94.1405 336.74 94.3005 336.92L94.5204 337.15C93.2807 332.191 91.7412 327.312 89.9105 322.54C87.6705 319.87 85.1705 317.54 83.5405 314.34C83.5313 314.333 83.5238 314.324 83.5188 314.314C83.5139 314.304 83.5114 314.293 83.5118 314.281C83.5122 314.27 83.5153 314.259 83.521 314.249C83.5266 314.239 83.5346 314.231 83.5442 314.224C83.5538 314.218 83.5648 314.215 83.5761 314.214C83.5875 314.213 83.5989 314.215 83.6093 314.219C83.6198 314.224 83.629 314.231 83.6362 314.239C83.6434 314.248 83.6483 314.259 83.6505 314.27C84.9705 316.12 86.2405 317.97 87.7205 319.68C88.3205 320.36 88.9705 320.99 89.5805 321.68C87.5533 316.509 85.1467 311.496 82.3804 306.68C82.3639 306.64 82.3607 306.596 82.3715 306.554C82.3823 306.512 82.4065 306.474 82.4403 306.447C82.4741 306.42 82.5158 306.405 82.5592 306.404C82.6025 306.402 82.645 306.415 82.6805 306.44Z" fill="#263238"/>
<path d="M84.46 324.06C87.3 327.89 90.54 331.54 93.19 335.5C93.26 335.61 93.1 335.73 93 335.64C89.61 332.45 86.73 328.1 84.27 324.17C84.19 324.05 84.37 324 84.46 324.06Z" fill="#263238"/>
<path d="M93.5901 336.38L93.7101 336.5C93.7901 336.59 93.7101 336.72 93.5801 336.63L93.4601 336.51C93.3701 336.43 93.5001 336.3 93.5901 336.38Z" fill="#263238"/>
<path d="M68.8901 333.9C69.9284 341.875 73.1425 349.411 78.1801 355.68C80.2527 358.144 82.8176 360.146 85.7101 361.56C88.9701 363.17 92.3801 365.03 95.7601 366.36C97.364 370.445 98.5566 374.679 99.3201 379C99.4301 378.63 99.5301 378.25 99.6401 377.88C97.4801 359.27 85.4401 343.37 70.0401 333.16C69.9189 333.081 69.7777 333.039 69.6333 333.039C69.4888 333.039 69.3474 333.08 69.226 333.158C69.1046 333.237 69.0083 333.348 68.9487 333.48C68.8891 333.611 68.8687 333.757 68.8901 333.9Z" fill="#009FE3"/>
<path d="M74.2104 339.39C74.1004 339.3 74.2104 339.1 74.3704 339.19C82.8343 345.48 89.5839 353.794 94.0004 363.37C94.1104 363.63 93.7604 363.85 93.6204 363.6C92.9004 362.34 92.1704 361.12 91.4304 359.92C87.9104 359.26 84.5804 356.79 81.9804 354.44C81.9004 354.38 81.9804 354.27 82.0804 354.34C83.4238 355.567 84.9194 356.615 86.5304 357.46C87.9896 358.125 89.4815 358.716 91.0004 359.23C89.7004 357.16 88.3404 355.18 86.9304 353.23C83.1332 351.783 79.5713 349.781 76.3604 347.29C76.2604 347.22 76.3604 347.05 76.4604 347.12C79.6411 349.038 82.9188 350.79 86.2804 352.37C84.1356 349.536 81.8214 346.834 79.3504 344.28C78.1504 343.65 76.9404 343.02 75.7804 342.35C75.6904 342.29 75.7804 342.13 75.8604 342.16C76.8199 342.502 77.7361 342.955 78.5904 343.51C77.1704 342.13 75.7404 340.75 74.2104 339.39Z" fill="#263238"/>
<path d="M74.5403 345.82C74.7493 345.942 74.9467 346.082 75.1303 346.24C75.1903 346.29 75.1303 346.36 75.0603 346.34C74.8451 346.239 74.6378 346.122 74.4403 345.99C74.3303 345.92 74.4303 345.75 74.5403 345.82Z" fill="#263238"/>
<path d="M123.67 419.29H81.4805L84.8805 380.86L85.6305 372.38H119.52L120.27 380.86L123.67 419.29Z" fill="#455A64"/>
<path d="M120.27 380.86H84.8799L85.6299 372.38H119.52L120.27 380.86Z" fill="#263238"/>
<path d="M121.54 366.46H83.6104V374.85H121.54V366.46Z" fill="#455A64"/>
<path d="M675.29 436.55C674.57 433.89 631.59 370.48 628.5 369.14C628.15 368.97 606.75 382.58 606.75 382.58C605.84 383.67 567.05 373.33 567.05 373.33L564.18 420.63L635.71 422.84C635.71 422.84 645.07 429.02 653.65 434.11C658.93 437.26 663.65 439.92 664.97 440.35C668.53 441.46 676 439.18 675.29 436.55Z" fill="#AD6359"/>
<path d="M665 440.35C663.64 439.93 659 437.26 653.68 434.11C645.1 429.03 635.74 422.84 635.74 422.84L619.82 422.35L597 380.88C602.41 382.13 606.46 382.88 606.75 382.57C606.75 382.57 628.15 368.97 628.5 369.15C631.59 370.48 674.56 433.89 675.29 436.54C676.02 439.19 668.53 441.46 665 440.35Z" fill="white"/>
<path d="M675.71 436.65C674.94 433.93 631.71 370.54 628.58 369.17C627.38 368.64 616.96 374.35 606.75 382.58L634.64 423.41C634.64 423.41 661.5 439.49 665.14 440.62C668.78 441.75 676.48 439.37 675.71 436.65Z" fill="#009FE3"/>
<path d="M672.55 437.47C665.05 427.02 635.79 384.17 629.17 373.28C629.17 373.19 629.17 373.15 629.24 373.28C636.9 383.47 665.81 426.56 672.73 437.4C672.87 437.58 672.71 437.69 672.55 437.47Z" fill="#263238"/>
<path d="M660.08 438.1C659.243 436.941 658.658 435.62 658.36 434.222C658.062 432.824 658.058 431.379 658.35 429.98C658.835 427.464 660.267 425.231 662.35 423.74C662.42 423.74 662.5 423.81 662.44 423.87C660.591 425.668 659.374 428.016 658.972 430.564C658.57 433.111 659.004 435.72 660.21 438C660.223 438.017 660.229 438.039 660.226 438.061C660.223 438.082 660.212 438.102 660.195 438.115C660.178 438.128 660.156 438.134 660.134 438.131C660.113 438.129 660.093 438.117 660.08 438.1Z" fill="#263238"/>
<path d="M638 426C635 421.78 633.19 415.83 634.87 410.82C634.93 410.62 635.21 410.72 635.23 410.89C635.81 415.936 636.934 420.905 638.58 425.71C638.601 425.784 638.595 425.863 638.564 425.933C638.533 426.004 638.479 426.061 638.41 426.095C638.341 426.13 638.263 426.139 638.188 426.121C638.113 426.104 638.046 426.061 638 426Z" fill="#263238"/>
<path d="M641.49 428.43C638.49 424.21 636.67 418.26 638.35 413.25C638.42 413.05 638.69 413.15 638.71 413.32C639.295 418.365 640.418 423.334 642.06 428.14C642.095 428.215 642.099 428.301 642.072 428.379C642.045 428.457 641.989 428.522 641.915 428.559C641.841 428.597 641.756 428.604 641.677 428.58C641.598 428.556 641.531 428.502 641.49 428.43Z" fill="#263238"/>
<path d="M645 430.84C642 426.63 640.18 420.67 641.86 415.66C641.92 415.47 642.2 415.56 642.22 415.73C642.804 420.776 643.927 425.744 645.57 430.55C645.605 430.625 645.609 430.711 645.582 430.789C645.555 430.867 645.499 430.932 645.425 430.969C645.351 431.007 645.266 431.014 645.186 430.99C645.107 430.966 645.041 430.912 645 430.84Z" fill="#263238"/>
<path d="M648.52 433.25C645.57 429.04 643.71 423.08 645.39 418.07C645.45 417.88 645.72 417.97 645.75 418.14C646.329 423.199 647.449 428.18 649.09 433C649.103 433.071 649.092 433.144 649.058 433.207C649.024 433.271 648.97 433.321 648.904 433.35C648.838 433.379 648.764 433.385 648.695 433.366C648.625 433.348 648.564 433.307 648.52 433.25Z" fill="#263238"/>
<path d="M620.92 382.86C617.69 378.08 625.11 373.04 628.35 377.86C631.59 382.68 624.17 387.65 620.92 382.86Z" fill="#263238"/>
<path d="M635.76 433.76C637.16 429.44 636.64 424.68 636.67 420.22C636.66 420.122 636.627 420.028 636.575 419.944C636.522 419.861 636.451 419.791 636.367 419.739C636.282 419.688 636.187 419.657 636.089 419.648C635.991 419.64 635.892 419.654 635.8 419.69C635.791 419.672 635.778 419.655 635.762 419.642C635.746 419.63 635.727 419.62 635.707 419.616C635.687 419.611 635.666 419.611 635.646 419.615C635.626 419.619 635.607 419.628 635.59 419.64C631.904 422.614 629.063 426.504 627.35 430.92C626.35 433.51 626.5 437.41 629.75 438.34C632.83 439.23 634.94 436.27 635.76 433.76ZM632.37 436.35C627.45 439.08 628.16 432.49 628.94 430.61C629.463 429.4 630.068 428.228 630.75 427.1C632.13 424.74 633.82 422.61 635.42 420.41C635.27 422.6 635.31 424.78 635.24 426.97C635.16 429.58 635.08 434.85 632.37 436.35Z" fill="#263238"/>
<path d="M622.59 406.39C620.04 408.61 621.59 412.19 623.59 414.14C627.011 417.415 631.232 419.732 635.83 420.86C635.851 420.866 635.873 420.868 635.894 420.864C635.915 420.86 635.935 420.852 635.952 420.839C635.97 420.827 635.984 420.81 635.994 420.791C636.004 420.773 636.01 420.752 636.01 420.73C636.109 420.724 636.204 420.695 636.289 420.645C636.374 420.595 636.446 420.526 636.499 420.444C636.553 420.361 636.586 420.267 636.597 420.169C636.607 420.071 636.595 419.972 636.56 419.88C634.65 415.88 633.1 411.32 630.01 408C628.17 406.07 625 404.28 622.59 406.39ZM632.37 414.39C633.37 416.39 634.25 418.34 635.31 420.26C632.89 419.016 630.534 417.651 628.25 416.17C627.155 415.441 626.112 414.636 625.13 413.76C623.63 412.39 620.19 406.71 625.8 407.1C628.89 407.3 631.19 412 632.37 414.37V414.39Z" fill="#263238"/>
<path d="M578.84 363.13C578.84 363.13 518.39 336.36 491.59 337C459.69 337.78 435.38 376 474.83 402.77C509.71 426.46 618.66 423.32 618.66 423.32L592.66 377.91C592.66 377.91 562.42 366.62 522.98 365.91L578.13 376.39L578.84 363.13Z" fill="#37474F"/>
<path d="M577.85 372.26C573.12 371.12 568.31 370.38 563.52 369.58C558.73 368.78 553.83 368.06 548.97 367.39C539.279 366.04 529.527 365.179 519.75 364.81C518.84 364.81 517.92 364.81 517 364.75C516.806 364.68 516.609 364.619 516.41 364.57C515.95 364.43 515.49 364.29 515.02 364.18C514.15 363.96 513.27 363.79 512.39 363.6C510.55 363.23 508.71 362.93 506.89 362.49C506.78 362.49 506.73 362.63 506.84 362.66C508.67 363.17 510.45 363.8 512.28 364.3L513.87 364.72C510.28 364.72 506.69 364.81 503.1 364.95C502.98 364.95 502.97 365.13 503.1 365.13C507.97 365.13 512.87 365.32 517.74 365.65C522.61 365.98 527.4 366.35 532.21 366.88C541.95 367.95 551.67 369.33 561.34 370.88C566.77 371.74 572.21 372.7 577.68 373.22C578.2 373.25 578.38 372.39 577.85 372.26Z" fill="#263238"/>
<path d="M607.55 421.41C605.95 418.52 604.62 415.41 603.17 412.49L598.81 403.57C595.9 397.64 585.38 377.66 584.32 376.25C584.25 376.16 584.1 376.25 584.13 376.35C584.59 377.88 591.13 391.08 592.62 394.03C595.62 399.92 598.82 405.72 601.95 411.54C602.85 413.21 603.78 414.85 604.69 416.54C605.6 418.23 606.57 419.83 607.4 421.54C607.45 421.59 607.61 421.51 607.55 421.41Z" fill="#263238"/>
<path d="M465.84 439.06C466.59 436.41 510.16 373.42 513.27 372.11C513.62 371.94 534.89 385.75 534.89 385.75C535.79 386.85 574.68 376.88 574.68 376.88L577.1 424.2L505.55 425.73C505.55 425.73 496.13 431.82 487.5 436.82C482.19 439.92 477.5 442.54 476.12 442.95C472.55 444 465.07 441.69 465.84 439.06Z" fill="#AD6359"/>
<path d="M476.09 443C477.45 442.59 482.16 440 487.46 436.87C496.09 431.87 505.46 425.77 505.46 425.77L521.39 425.43L544.58 384.18C539.15 385.38 535.1 386.18 534.81 385.78C534.81 385.78 513.55 371.97 513.19 372.15C510.08 373.46 466.51 436.45 465.76 439.09C465.01 441.73 472.55 444 476.09 443Z" fill="white"/>
<path d="M465.42 439.15C466.21 436.44 510 373.47 513.19 372.15C514.39 371.63 524.76 377.44 534.89 385.77L506.62 426.33C506.62 426.33 479.62 442.15 475.95 443.25C472.28 444.35 464.62 441.87 465.42 439.15Z" fill="#009FE3"/>
<path d="M468.56 440C476.16 429.63 505.83 387.06 512.56 376.23C512.61 376.14 512.56 376.1 512.49 376.18C504.73 386.3 475.41 429.11 468.39 439.88C468.24 440.11 468.4 440.22 468.56 440Z" fill="#263238"/>
<path d="M481 440.76C481.848 439.607 482.446 438.291 482.758 436.895C483.069 435.499 483.087 434.053 482.81 432.65C482.335 430.12 480.902 427.87 478.81 426.37C478.74 426.37 478.66 426.44 478.72 426.5C480.561 428.311 481.765 430.67 482.151 433.223C482.537 435.777 482.084 438.386 480.86 440.66C480.85 440.75 481 440.84 481 440.76Z" fill="#263238"/>
<path d="M503.25 428.88C506.25 424.7 508.17 418.76 506.54 413.74C506.47 413.54 506.2 413.63 506.17 413.8C505.542 418.845 504.372 423.807 502.68 428.6C502.654 428.674 502.657 428.754 502.686 428.826C502.716 428.898 502.771 428.957 502.841 428.992C502.911 429.026 502.991 429.034 503.066 429.013C503.142 428.993 503.207 428.945 503.25 428.88Z" fill="#263238"/>
<path d="M499.72 431.26C502.72 427.08 504.63 421.14 503 416.11C502.93 415.92 502.66 416.01 502.64 416.18C502.006 421.221 500.833 426.179 499.14 430.97C499.119 431.044 499.125 431.123 499.156 431.193C499.187 431.264 499.242 431.321 499.31 431.355C499.379 431.39 499.458 431.399 499.533 431.382C499.607 431.364 499.674 431.321 499.72 431.26Z" fill="#263238"/>
<path d="M496.18 433.64C499.18 429.45 501.09 423.52 499.46 418.49C499.39 418.3 499.12 418.39 499.1 418.56C498.466 423.601 497.293 428.559 495.6 433.35C495.579 433.424 495.585 433.503 495.616 433.573C495.647 433.644 495.702 433.701 495.77 433.735C495.839 433.77 495.918 433.779 495.993 433.761C496.067 433.744 496.134 433.701 496.18 433.64Z" fill="#263238"/>
<path d="M492.64 436C495.64 431.81 497.55 425.88 495.92 420.85C495.85 420.65 495.58 420.75 495.56 420.92C494.923 425.96 493.754 430.917 492.07 435.71C492.036 435.785 492.032 435.871 492.059 435.949C492.086 436.027 492.142 436.092 492.216 436.129C492.29 436.167 492.375 436.174 492.454 436.15C492.533 436.126 492.6 436.072 492.64 436Z" fill="#263238"/>
<path d="M520.71 385.89C524 381.14 516.62 376.03 513.33 380.79C510.04 385.55 517.43 390.65 520.71 385.89Z" fill="#263238"/>
<path d="M511.35 441.29C514.61 440.38 514.75 436.48 513.83 433.89C512.158 429.458 509.355 425.542 505.7 422.53C505.682 422.518 505.663 422.509 505.642 422.505C505.621 422.5 505.599 422.5 505.578 422.505C505.558 422.51 505.538 422.519 505.521 422.532C505.504 422.545 505.49 422.561 505.48 422.58C505.389 422.542 505.29 422.526 505.192 422.533C505.093 422.54 504.998 422.57 504.914 422.621C504.829 422.671 504.757 422.741 504.705 422.824C504.652 422.907 504.619 423.002 504.61 423.1C504.61 427.56 504.04 432.32 505.4 436.65C506.19 439.17 508.27 442.15 511.35 441.29ZM506 429.86C505.95 427.67 506 425.49 505.88 423.3C507.46 425.52 509.13 427.66 510.49 430.04C511.159 431.172 511.75 432.348 512.26 433.56C513.02 435.45 513.67 442.05 508.78 439.28C506.06 437.74 506 432.47 506 429.86Z" fill="#263238"/>
<path d="M511.43 411C508.31 414.28 506.71 418.81 504.76 422.81C504.725 422.902 504.713 423.001 504.723 423.099C504.734 423.197 504.767 423.291 504.821 423.374C504.874 423.456 504.946 423.525 505.031 423.575C505.116 423.625 505.212 423.654 505.31 423.66C505.31 423.75 505.37 423.82 505.48 423.8C510.09 422.716 514.332 420.437 517.78 417.19C519.78 415.27 521.35 411.7 518.78 409.45C516.21 407.2 513.25 409 511.43 411ZM515.61 410.12C521.22 409.78 517.73 415.42 516.22 416.78C515.225 417.647 514.172 418.445 513.07 419.17C510.772 420.621 508.402 421.956 505.97 423.17C507.05 421.27 507.97 419.28 508.97 417.34C510.17 415 512.51 410.26 515.61 410.07V410.12Z" fill="#263238"/>
<path d="M576.22 362.27C576.22 362.27 636.48 342.87 668.88 346.11C700.63 349.28 714.38 388.75 683.88 410.87C650.63 435 523.5 429.21 523.5 429.21L549.69 380.15C549.69 380.15 592.69 369.15 632.17 368.8L576.93 378.74L576.22 362.27Z" fill="#37474F"/>
<path d="M547.94 383.32C547.945 383.237 547.945 383.153 547.94 383.07V382.87C547.94 382.71 548.01 382.55 548.04 382.4C548.12 382.079 548.217 381.761 548.33 381.45C548.44 381.13 548.56 380.83 548.69 380.52C548.833 380.219 548.997 379.929 549.18 379.65C549.18 379.65 549.23 379.65 549.25 379.65H549.32H549.39C554.13 378.56 586.39 372.53 591.19 371.78C595.99 371.03 600.89 370.35 605.75 369.73C615.455 368.474 625.217 367.706 635 367.43C635.91 367.43 636.83 367.43 637.75 367.43C637.94 367.36 638.14 367.32 638.34 367.26C638.8 367.13 639.27 366.99 639.73 366.88C640.61 366.67 641.49 366.51 642.37 366.33C644.21 365.97 646.05 365.7 647.88 365.27C647.99 365.27 648.04 365.42 647.93 365.45C646.1 365.93 644.3 366.55 642.47 367.03L640.88 367.44C644.47 367.44 648.06 367.6 651.65 367.77C651.76 367.77 651.77 367.95 651.65 367.95C646.77 367.87 641.87 368.04 637 368.33C632.13 368.62 627.34 368.93 622.52 369.42C612.77 370.42 603.04 371.69 593.35 373.12C587.91 373.93 555.03 380.17 549.55 380.63H549.48C549.445 380.763 549.402 380.893 549.35 381.02C549.21 381.32 549.07 381.62 548.92 381.92C548.77 382.22 548.63 382.49 548.47 382.77C548.38 382.9 548.3 383.04 548.22 383.18C548.171 383.243 548.127 383.31 548.09 383.38C548.036 383.445 547.989 383.516 547.95 383.59C548.07 383.51 547.88 383.43 547.94 383.32Z" fill="#263238"/>
<path d="M533.56 425.87C535.19 423 536.56 419.95 538.03 417C539.5 414.05 541.03 411.07 542.48 408.11C545.48 402.21 556.15 382.33 557.23 380.93C557.29 380.84 557.45 380.93 557.41 381.03C556.94 382.56 550.29 395.7 548.75 398.63C545.68 404.5 542.44 410.26 539.25 416.06C538.34 417.71 537.39 419.35 536.47 421C535.55 422.65 534.56 424.27 533.71 425.95C533.708 425.964 533.702 425.978 533.694 425.989C533.685 426.001 533.674 426.01 533.661 426.017C533.649 426.023 533.634 426.026 533.62 426.026C533.606 426.026 533.592 426.022 533.579 426.016C533.566 426.009 533.555 425.999 533.547 425.987C533.539 425.976 533.534 425.962 533.532 425.948C533.53 425.933 533.532 425.919 533.537 425.905C533.542 425.892 533.55 425.88 533.56 425.87Z" fill="#263238"/>
<path d="M581.45 289.53C579.25 313.14 572.03 342.07 567.98 347.14C562.85 353.57 525.32 369.14 523.41 369.58C518.67 370.7 504.41 337.39 509.41 335.97C517.06 333.8 545.18 328.48 546.64 326.51C548.1 324.54 558.1 307.78 568.12 289.1C575.05 276.19 582.82 274.88 581.45 289.53Z" fill="#AD6359"/>
<path d="M527 367.2C526.46 367.56 518.88 372.74 514.05 374.87C510.44 376.45 499.94 380.75 497.8 376.95C496.33 374.37 502.21 371.11 506.32 368.72C508.48 367.46 510.98 364.72 510.11 363.31C508.59 360.89 503.04 364.26 499.46 367.03C492.54 372.39 483.61 381.57 478.52 378.38C476.6 377.17 478.26 374.28 480.85 371.32C476.48 374.95 471.72 378.09 469.53 376.83C468.28 376.12 468.06 374.93 468.53 373.49C467.12 374.17 465.8 374.25 464.77 373.41C463 371.99 463.44 369.5 464.77 366.81C464.476 366.819 464.183 366.758 463.917 366.631C463.651 366.504 463.419 366.315 463.24 366.08C459.29 361.51 473.81 344.93 479.31 342.83C495.51 336.61 513.23 335 513.23 335C520.54 339.37 527 367.18 527 367.2Z" fill="#AD6359"/>
<path d="M500.36 355.08C496.464 356.24 492.858 358.214 489.78 360.87C485.91 364.24 483.54 367.87 480.42 371.66C480.34 371.76 480.49 371.89 480.57 371.79C482.06 370 488.3 363.16 489.93 361.58C492.883 358.669 496.46 356.47 500.39 355.15C500.39 355.15 500.41 355.07 500.36 355.08Z" fill="#263238"/>
<path d="M496.3 348.4C491.973 350.052 487.825 352.139 483.92 354.63C479.76 357.51 476.76 361.68 473.8 365.71C472.02 368.13 470.297 370.59 468.63 373.09C468.56 373.19 468.71 373.32 468.78 373.22C471.78 369.06 474.897 364.997 478.13 361.03C481.123 357.333 484.817 354.264 489 352C491.38 350.7 493.87 349.59 496.34 348.49C496.37 348.46 496.34 348.38 496.3 348.4Z" fill="#263238"/>
<path d="M490.77 342.82C486.62 344.27 482.99 345.52 479.51 348.31C474.91 352.01 470.76 357.76 469.31 359.8C467.7 362.05 466.17 364.35 464.68 366.68C464.62 366.77 464.78 366.88 464.84 366.79C468.29 361.668 472.068 356.774 476.15 352.14C478.06 349.906 480.303 347.98 482.8 346.43C485.361 345.013 488.037 343.816 490.8 342.85C490.8 342.85 490.79 342.82 490.77 342.82Z" fill="#263238"/>
<path d="M515.78 333.22L532.78 369.53C532.78 369.53 564 356 569 348.78C574 341.56 580.59 307.17 581.67 290.78C582.75 274.39 574.67 275.85 568.67 286.91C562.67 297.97 547.36 324.91 546.4 325.54C545.44 326.17 515.78 333.22 515.78 333.22Z" fill="#009FE3"/>
<path d="M533.67 352.28C531.67 348 529.54 343.74 527.67 339.39C526.6 336.91 525.51 334.45 524.46 331.96C524.46 331.87 524.58 331.79 524.63 331.88C526.85 336.09 529.07 340.32 531.1 344.63C533.13 348.94 535.18 353.19 537.1 357.51C538.213 359.957 539.253 362.44 540.22 364.96C540.22 365.01 540.16 365.05 540.13 365.01C537.8 360.87 535.73 356.58 533.67 352.28Z" fill="#263238"/>
<path opacity="0.1" d="M548.45 362.14L549.82 361.44C552.39 360.12 555.01 358.72 557.46 357.31L558.39 356.77C558.88 356.49 559.39 356.2 559.84 355.91C560.09 355.77 560.32 355.62 560.55 355.48L560.81 355.32L561.54 354.86C562.54 354.25 563.42 353.65 564.26 353.05L564.85 352.63C566.17 351.706 567.39 350.647 568.49 349.47L568.78 349.12C568.88 349 568.96 348.88 569.04 348.78C574.11 341.6 580.63 307.17 581.71 290.78V290.21V290.09C581.77 288.85 581.71 287.32 581.71 285.67C581.1 277.67 577.16 276.87 572.98 280.98C564.68 307.39 552.42 350.86 548.45 362.14Z" fill="black"/>
<path d="M558.32 364.87L636.43 363.65C636.22 362.07 621.24 316.65 611.24 300.29C598.42 279.29 592.72 278.11 589.31 277.24C584.95 276.13 577.51 277.61 575.81 278.62C573.87 279.76 568.52 291.62 567 300.09C564 317.09 557.88 364 558.32 364.87Z" fill="#009FE3"/>
<path d="M558.32 364.87L636.43 363.65C636.22 362.07 621.24 316.65 611.24 300.29C598.42 279.29 592.72 278.11 589.31 277.24C584.95 276.13 577.51 277.61 575.81 278.62C573.87 279.76 568.52 291.62 567 300.09C564 317.09 557.88 364 558.32 364.87Z" fill="#009FE3"/>
<path opacity="0.1" d="M635.41 360.25L558.54 361.52C558.59 361.1 558.63 360.65 558.69 360.16L635 358.9C635.13 359.38 635.28 359.83 635.41 360.25ZM632.13 350.44L559.68 351.64C559.62 352.1 559.57 352.56 559.52 353L632.6 351.79C632.44 351.35 632.29 350.9 632.13 350.44ZM629.13 341.99L560.73 343.12C560.73 343.58 560.62 344.03 560.56 344.48L629.56 343.34L629.13 341.99ZM626 333.54L561.85 334.6L561.7 336L626.54 334.93L626 333.54ZM622.72 325.09L563.02 326.09C562.95 326.54 562.89 327 562.83 327.45L623.26 326.45L622.72 325.09ZM619.24 316.64L564.24 317.55C564.17 318 564.11 318.46 564.05 318.92L619.83 318C619.66 317.54 619.46 317.09 619.27 316.64H619.24ZM615.42 308.21L565.5 309.03C565.43 309.48 565.36 309.93 565.29 310.4L616.07 309.56C615.89 309.1 615.67 308.65 615.45 308.21H615.42ZM611.21 300.29L610.89 299.78L566.89 300.51C566.81 300.94 566.73 301.4 566.65 301.87L611.65 301.13C611.57 300.84 611.41 300.56 611.24 300.29H611.21ZM605.37 291.37L569.17 291.97C569.01 292.42 568.86 292.87 568.72 293.33L606.31 292.71C606 292.25 605.71 291.8 605.4 291.37H605.37ZM598.58 283L572.71 283.43C572.49 283.87 572.28 284.32 572.05 284.8L599.83 284.34C599.4 283.84 599 283.39 598.58 283Z" fill="black"/>
<path d="M600.05 282.12C615.79 291.24 659.31 330.76 652.82 342.34C646.33 353.92 591.88 357.5 575.53 355C570.67 354.26 578.78 322.87 583.59 320.74C587.59 318.96 611.79 322.24 612.04 320.83C612.31 319.24 605.84 310.06 595.13 293.15C582.77 273.67 593.1 278.09 600.05 282.12Z" fill="#AD6359"/>
<path d="M559.89 318.62C549.12 320.32 546.62 322.4 536.78 319.01C530.32 316.78 526.12 319.95 530.99 325.13C538.99 333.59 553.3 334.32 558.35 333.13L559.89 318.62Z" fill="#AD6359"/>
<path d="M590.33 320.24C590.33 320.24 576.77 317.32 565.13 317.99C557.07 318.46 539.66 321.42 528.63 342.83C526.02 347.91 525.89 357 533.18 350.25C538.35 345.46 540.18 340.86 543.7 338.63C543.7 338.63 544.91 350.21 550.1 352.63C554.633 354.748 559.312 356.539 564.1 357.99C564.564 357.174 564.974 356.329 565.33 355.46C565.33 355.46 570.4 357.26 577.95 354.16L590.33 320.24Z" fill="#AD6359"/>
<path d="M557.51 319.66C554.51 322.66 548.19 329 544.85 336.01C541.15 343.8 536.11 359.8 541.85 362.47C546.08 364.47 548.54 358.47 548.54 358.47C548.54 358.47 547.85 365.52 552.07 366.47C555.91 367.33 557.54 362.62 557.54 362.62C557.54 362.62 557.85 366.97 561.71 367.08C566.35 367.21 564.92 358.08 569.71 354.14C570.86 353.27 557.51 319.66 557.51 319.66Z" fill="#AD6359"/>
<path d="M553.73 338.55C551.35 341.8 547.83 350.55 548.48 358.35C548.48 358.53 548.63 358.61 548.65 358.45C549.559 351.645 551.292 344.976 553.81 338.59C553.81 338.59 553.76 338.52 553.73 338.55Z" fill="#263238"/>
<path d="M561.49 342.52C559.72 345.52 556.49 354.74 557.42 362.6C557.42 362.77 557.59 362.85 557.6 362.68C558.169 355.841 559.511 349.088 561.6 342.55C561.6 342.55 561.51 342.48 561.49 342.52Z" fill="#263238"/>
<path d="M543.68 338.56C540.61 340.56 538.92 342.89 536.68 345.72C535.59 347.137 534.421 348.493 533.18 349.78C532.03 350.94 530.35 352.67 528.54 351.95C528.091 351.693 527.719 351.32 527.464 350.869C527.209 350.419 527.08 349.908 527.09 349.39C527.082 347.9 527.311 346.418 527.77 345C527.77 344.95 527.7 344.91 527.68 345C527.21 346.295 526.875 347.636 526.68 349C526.567 349.936 526.741 350.885 527.18 351.72C528.18 353.43 530.49 353.01 531.89 352.03C532.709 351.408 533.466 350.708 534.15 349.94C534.82 349.22 535.46 348.48 536.08 347.71C537.35 346.15 538.54 344.51 539.79 342.93C541.031 341.426 542.367 340.003 543.79 338.67C543.805 338.655 543.813 338.636 543.813 338.615C543.813 338.594 543.805 338.575 543.79 338.56C543.776 338.545 543.756 338.537 543.735 338.537C543.715 338.537 543.695 338.545 543.68 338.56Z" fill="#263238"/>
<path d="M540.22 352.54C541.097 347.827 542.283 343.177 543.77 338.62C543.77 338.56 543.71 338.52 543.68 338.57C541.81 341.85 539.6 349.74 539.26 352.15C538.92 354.56 538.62 357.55 539.32 359.88C540.39 363.4 542.92 363.36 543.84 363.27C544.918 363.14 545.919 362.646 546.68 361.87C547.55 360.892 548.211 359.744 548.62 358.5C548.62 358.44 548.56 358.39 548.53 358.45C547.73 360.21 546.12 362.19 544.14 362.52C543.704 362.607 543.256 362.605 542.822 362.516C542.387 362.427 541.975 362.251 541.61 362C540.83 361.313 540.323 360.369 540.18 359.34C539.813 357.087 539.826 354.789 540.22 352.54Z" fill="#263238"/>
<path d="M590.33 320.24L584.44 359.42C584.44 359.42 652.44 354.42 654.57 341.66C656.7 328.9 618.82 293 603.85 283.79C586.5 273.07 586.36 278.54 593.14 290.66C600.24 303.34 611.95 321.24 611.95 321.24L590.33 320.24Z" fill="#009FE3"/>
<path d="M634.07 324.48C630.492 323.34 626.836 322.461 623.13 321.85C619.467 321.242 615.763 320.908 612.05 320.85C609.93 320.8 607.82 320.85 605.7 320.85C605.687 320.85 605.674 320.855 605.665 320.865C605.656 320.874 605.65 320.887 605.65 320.9C605.65 320.913 605.656 320.926 605.665 320.935C605.674 320.945 605.687 320.95 605.7 320.95C609.43 321.027 613.153 321.314 616.85 321.81C620.517 322.27 624.184 322.797 627.85 323.39C629.91 323.73 631.97 324.16 634.02 324.57C634.038 324.563 634.053 324.551 634.062 324.534C634.071 324.518 634.074 324.499 634.07 324.48Z" fill="#263238"/>
<path d="M590.47 320.09C590.82 320.09 609.97 320.55 610.62 320.64C610.47 320.4 604.54 312.09 603.62 310.88L603.36 310.51C602.86 310 602.36 309.51 601.88 308.97L600.04 306.97C600.68 307.62 601.33 308.27 601.96 308.97C602.26 309.27 602.54 309.59 602.83 309.9C602.23 309.033 601.64 308.163 601.06 307.29C600.12 305.89 599.23 304.47 598.35 303.05L598.42 303C600.16 305.42 601.98 307.79 603.73 310.2C605.48 312.61 612.08 321.46 612.05 321.47C612.02 321.48 590.82 320.47 590.4 320.47C590.35 320.461 590.305 320.432 590.276 320.39C590.247 320.347 590.236 320.295 590.245 320.245C590.255 320.195 590.284 320.15 590.326 320.121C590.368 320.092 590.42 320.081 590.47 320.09Z" fill="#263238"/>
<path d="M596.07 342.78C596.7 338.42 597.3 334.05 598.07 329.71C598.52 327.24 598.96 324.77 599.43 322.31C599.43 322.21 599.61 322.23 599.6 322.31C599.14 326.71 598.67 331.13 598 335.52C597.33 339.91 596.72 344.25 596 348.6C595.6 351.08 595.12 353.53 594.56 355.98H594.47C594.81 351.56 595.43 347.18 596.07 342.78Z" fill="#263238"/>
<path d="M583.78 360.21C584.1 358.96 584.44 357.21 584.78 355.96C584.88 355.64 585.11 355.63 585.05 355.96C584.86 357.06 584.78 358.26 584.6 359.39C585.54 359.29 586.49 359.18 587.44 359.1L590.73 358.81C592.877 358.61 595.023 358.39 597.17 358.15C601.517 357.67 605.85 357.09 610.17 356.41C618.865 355.112 627.487 353.363 636 351.17C638.37 350.54 640.73 349.87 643.07 349.17C645.41 348.47 648 347.58 649.89 346.74C649.95 346.74 650 346.81 649.89 346.84C648.032 347.862 646.096 348.735 644.1 349.45C642.007 350.203 639.893 350.89 637.76 351.51C633.52 352.75 629.21 353.76 624.88 354.65C616.287 356.41 607.62 357.813 598.88 358.86C596.44 359.153 594 359.417 591.56 359.65C590.32 359.77 589.09 359.89 587.85 359.98C586.61 360.07 583.73 360.42 583.78 360.21Z" fill="#263238"/>
<path d="M577.7 294.41C582.26 294.41 588.07 285.98 589.7 279.92C589.81 279.51 588.31 275.78 586.7 271.17C585.7 268.36 584.7 265.22 584.01 262.28C583.86 261.68 566.68 271.28 566.68 271.28C568.625 274.694 570.143 278.335 571.2 282.12C571.298 282.523 571.355 282.935 571.37 283.35C571.37 283.41 571.37 283.48 571.37 283.56C571.57 285.9 573.29 294.43 577.7 294.41Z" fill="#AD6359"/>
<path d="M582.88 262.63C583.24 267.81 583.07 280.55 573.3 283.16C572.674 283.33 572.035 283.45 571.39 283.52C571.382 283.45 571.382 283.38 571.39 283.31C571.369 282.896 571.316 282.485 571.23 282.08C570.169 278.292 568.648 274.648 566.7 271.23C566.7 271.23 579.07 264.34 582.88 262.63Z" fill="#263238"/>
<path d="M576.28 237.93C581.09 243.05 586.49 262.03 584.11 268.03C580.67 276.72 570.76 282.27 562.3 277.16C554.1 272.16 547.5 247.34 550.55 241.45C555 232.78 569.18 230.37 576.28 237.93Z" fill="#AD6359"/>
<path d="M564.48 257C564.48 256.95 564.59 257 564.6 257.09C564.88 258.39 565.421 259.83 566.701 259.97V260.04C565.231 260.17 564.53 258.25 564.48 257Z" fill="#263238"/>
<path d="M565.29 255.34C567.29 254.66 568.53 258.78 566.64 259.41C564.75 260.04 563.59 255.9 565.29 255.34Z" fill="#263238"/>
<path d="M557.34 259.09C557.34 259.09 557.26 259.18 557.28 259.23C557.69 260.49 557.95 262.01 556.92 262.77C556.92 262.77 556.92 262.86 556.92 262.84C558.3 262.23 557.94 260.22 557.34 259.09Z" fill="#263238"/>
<path d="M555.82 258.09C553.72 258.53 554.76 262.69 556.7 262.28C558.64 261.87 557.57 257.72 555.82 258.09Z" fill="#263238"/>
<path d="M566.24 251.53C565.65 251.65 565.09 251.67 564.49 251.74C563.886 251.897 563.248 251.855 562.67 251.62C562.502 251.509 562.376 251.346 562.311 251.156C562.246 250.966 562.245 250.76 562.31 250.57C562.496 250.215 562.772 249.915 563.111 249.701C563.45 249.487 563.839 249.366 564.24 249.35C565.047 249.2 565.882 249.357 566.58 249.79C566.722 249.904 566.831 250.055 566.894 250.227C566.957 250.398 566.972 250.584 566.937 250.763C566.902 250.942 566.818 251.109 566.695 251.244C566.572 251.379 566.415 251.478 566.24 251.53Z" fill="#263238"/>
<path d="M553.05 255.63C553.569 255.357 554.073 255.057 554.56 254.73C555.14 254.37 555.64 254.15 555.93 253.51C555.985 253.327 555.98 253.13 555.916 252.95C555.851 252.77 555.73 252.616 555.57 252.51C555.209 252.339 554.808 252.269 554.41 252.308C554.012 252.346 553.632 252.492 553.31 252.73C552.575 253.098 552.007 253.73 551.72 254.5C551.686 254.674 551.699 254.855 551.757 255.023C551.816 255.191 551.918 255.34 552.054 255.455C552.189 255.57 552.353 255.647 552.528 255.678C552.703 255.708 552.883 255.692 553.05 255.63Z" fill="#263238"/>
<path d="M567.6 264.78C567.423 265.378 567.124 265.933 566.724 266.412C566.323 266.89 565.828 267.281 565.27 267.56C564.78 267.804 564.259 267.979 563.72 268.08C563.623 268.11 563.522 268.127 563.42 268.13H563.12C563.049 268.134 562.978 268.116 562.917 268.078C562.857 268.041 562.809 267.986 562.78 267.92C562.775 267.877 562.775 267.833 562.78 267.79V267.68C562.47 266.68 562.13 265.18 562.13 265.18C561.82 265.46 560.23 266.82 560.13 266.3C558.961 261.837 558.244 257.267 557.99 252.66C557.99 252.51 558.21 252.48 558.23 252.66C559.34 256.78 559.72 261.06 560.77 265.22C561.334 264.728 561.963 264.317 562.64 264C562.79 264 563.24 266.95 563.42 267.38C564.248 267.227 565.036 266.909 565.739 266.445C566.442 265.981 567.044 265.381 567.51 264.68C567.52 264.6 567.65 264.65 567.6 264.78Z" fill="#263238"/>
<path d="M564.16 267.41C564.901 267.959 565.774 268.304 566.69 268.41C567.189 268.456 567.689 268.344 568.12 268.09C569.06 267.53 568.82 266.58 568.4 265.84C568.172 265.445 567.896 265.079 567.58 264.75C566.753 265.979 565.555 266.911 564.16 267.41Z" fill="#263238"/>
<path d="M566.69 268.41C567.188 268.456 567.688 268.344 568.12 268.09C569.06 267.53 568.82 266.58 568.4 265.84C567.867 266.014 567.409 266.362 567.099 266.828C566.788 267.294 566.644 267.852 566.69 268.41Z" fill="#FF98B9"/>
<path d="M575.82 250.55C572.82 247.63 571.94 240.74 569.39 240.04C563.89 238.52 559.39 248.96 554.06 251.66C548.9 254.28 545.51 251.82 544.34 247.15C543.17 242.48 545.34 237.88 550.71 234.15C556.27 230.25 562.96 229.93 566.89 230.35C566.89 230.35 564.53 228.91 564.7 228.01C564.87 227.11 568.4 227.87 569.61 228.34C570.552 228.804 571.402 229.434 572.12 230.2C572.796 229.62 573.55 229.138 574.36 228.77C575.557 228.281 576.887 228.225 578.12 228.61C578.36 228.88 576.6 230.06 575.31 230.78C575.31 230.78 579.41 232.78 580.75 235.65C582.09 238.52 584.39 253.94 583.42 254.65C582.16 255.42 577 251.74 575.82 250.55Z" fill="#263238"/>
<path d="M574.63 230.66C574.57 230.66 574.54 230.75 574.63 230.77C576.428 231.161 578.08 232.048 579.4 233.33C580.874 234.943 581.889 236.922 582.34 239.06C583.34 243.15 583.23 247.38 583.34 251.55C583.34 251.579 583.352 251.607 583.372 251.628C583.393 251.649 583.421 251.66 583.45 251.66C583.479 251.66 583.507 251.649 583.528 251.628C583.548 251.607 583.56 251.579 583.56 251.55C583.7 247.12 583.72 242.38 582.47 238.09C581.4 234.44 578.7 231 574.63 230.66Z" fill="#263238"/>
<path d="M568.92 238.58C567.257 239.177 565.718 240.076 564.38 241.23C563.218 242.434 562.211 243.778 561.38 245.23C559.24 248.29 556.63 251.14 553.13 252.63C553.13 252.63 553.13 252.72 553.13 252.7C556.367 251.423 559.152 249.213 561.13 246.35C562.063 244.857 563.088 243.425 564.2 242.06C565.647 240.732 567.302 239.651 569.1 238.86C569.137 238.836 569.163 238.799 569.172 238.755C569.182 238.712 569.174 238.667 569.15 238.63C569.126 238.593 569.088 238.567 569.045 238.557C569.002 238.548 568.957 238.556 568.92 238.58Z" fill="#263238"/>
<path d="M563 230.44C560.383 230.442 557.78 230.819 555.27 231.56C552.835 232.195 550.531 233.251 548.46 234.68C544.93 237.22 542.63 241.42 543.7 245.81C544.221 248.076 545.564 250.068 547.47 251.4C547.496 251.418 547.529 251.426 547.561 251.42C547.593 251.415 547.621 251.396 547.64 251.37C547.658 251.343 547.665 251.311 547.66 251.279C547.654 251.247 547.636 251.219 547.61 251.2C545.957 249.926 544.761 248.152 544.199 246.143C543.637 244.134 543.739 241.996 544.49 240.05C546.27 235.75 550.58 233.33 554.82 232C557.485 231.202 560.227 230.689 563 230.47V230.44Z" fill="#263238"/>
<path d="M579.55 254C579.55 254 580.87 246.45 584.11 246.66C587.35 246.87 588.22 256.51 585.72 259.06C585.421 259.408 585.055 259.692 584.644 259.894C584.233 260.097 583.785 260.215 583.327 260.24C582.87 260.265 582.412 260.198 581.981 260.041C581.55 259.885 581.155 259.643 580.82 259.33L579.55 254Z" fill="#AD6359"/>
<path d="M584.29 249.39L584.34 249.46C582.62 251.32 582.43 253.81 582.6 256.22C582.623 255.949 582.706 255.686 582.841 255.45C582.976 255.214 583.16 255.01 583.382 254.852C583.603 254.695 583.856 254.587 584.124 254.536C584.391 254.486 584.666 254.494 584.93 254.56C584.948 254.56 584.966 254.567 584.979 254.581C584.992 254.594 585 254.611 585 254.63C585 254.649 584.992 254.666 584.979 254.68C584.966 254.693 584.948 254.7 584.93 254.7C584.503 254.76 584.104 254.949 583.787 255.242C583.471 255.535 583.252 255.918 583.16 256.34C583.01 257.047 582.94 257.768 582.95 258.49C582.95 258.73 582.55 258.79 582.52 258.54V258.48C581.18 255.8 581.51 251 584.29 249.39Z" fill="#263238"/>
<path d="M570 287.68C570.203 289.17 570.604 290.626 571.19 292.01C571.725 293.39 572.508 294.661 573.5 295.76C574.453 296.844 575.761 297.553 577.19 297.76C578.614 297.815 580.017 297.408 581.19 296.6C583.678 294.977 585.819 292.876 587.49 290.42C589.249 287.987 590.663 285.321 591.69 282.5C591.313 283.967 590.811 285.399 590.19 286.78C589.556 288.169 588.814 289.507 587.97 290.78C587.143 292.063 586.188 293.259 585.12 294.35C584.074 295.48 582.883 296.469 581.58 297.29C580.247 298.168 578.662 298.582 577.07 298.47C575.499 298.235 574.072 297.422 573.07 296.19C571.155 293.759 570.078 290.774 570 287.68Z" fill="#263238"/>
<path d="M570.275 374.503L489.899 376.032L489.968 379.631L570.343 378.102L570.275 374.503Z" fill="#C7C7C7"/>
<path d="M489.92 376.01L489.99 379.61L544.62 378.57L541.8 375.02L489.92 376.01Z" fill="#A6A6A6"/>
<path d="M538.4 378.69L460.07 380.18L452.54 327.11L530.87 325.61L538.4 378.69Z" fill="#C7C7C7"/>
<path d="M500.24 352.81C500.264 353.432 500.164 354.053 499.944 354.636C499.725 355.219 499.391 355.752 498.962 356.204C498.533 356.656 498.019 357.018 497.448 357.268C496.878 357.518 496.263 357.651 495.64 357.66C494.372 357.679 493.146 357.203 492.224 356.333C491.301 355.463 490.755 354.267 490.7 353C490.675 352.378 490.774 351.756 490.992 351.173C491.211 350.59 491.543 350.056 491.971 349.603C492.399 349.15 492.913 348.787 493.483 348.536C494.053 348.285 494.667 348.15 495.29 348.14C496.562 348.118 497.791 348.594 498.716 349.467C499.641 350.34 500.188 351.539 500.24 352.81Z" fill="white"/>
</svg>
