<svg xmlns="http://www.w3.org/2000/svg" viewBox="0 0 64 23.53"><defs><style>.cls-1{fill:#3c3c3b;}.cls-2{fill:#fff;}.cls-3{fill:#009fe3;}</style></defs><g id="Слой_2" data-name="Слой 2"><g id="Слой_1-2" data-name="Слой 1"><rect class="cls-1" width="64" height="16"/><path class="cls-2" d="M9.74,5.18a2,2,0,0,0-.93-1.51,3.62,3.62,0,0,0-2-.53,3.78,3.78,0,0,0-1.52.28,2.48,2.48,0,0,0-1,.77,1.85,1.85,0,0,0-.36,1.12,1.64,1.64,0,0,0,.25.9,2.18,2.18,0,0,0,.66.62,4.23,4.23,0,0,0,.83.4,6.53,6.53,0,0,0,.8.25l1.33.36a10.51,10.51,0,0,1,1.13.37,4.88,4.88,0,0,1,1.21.65,3.27,3.27,0,0,1,1,1,3,3,0,0,1,.38,1.56,3.45,3.45,0,0,1-.56,1.91,3.84,3.84,0,0,1-1.61,1.37,6,6,0,0,1-2.56.5,6.07,6.07,0,0,1-2.44-.45,4,4,0,0,1-1.61-1.27A3.58,3.58,0,0,1,2,11.62H3.66a2,2,0,0,0,.5,1.23,2.68,2.68,0,0,0,1.11.72,4.61,4.61,0,0,0,1.46.23,4.23,4.23,0,0,0,1.63-.3,2.73,2.73,0,0,0,1.14-.83,2,2,0,0,0,.42-1.25,1.55,1.55,0,0,0-.36-1.06,2.79,2.79,0,0,0-1-.67,10.66,10.66,0,0,0-1.28-.44L5.7,8.79A6.08,6.08,0,0,1,3.28,7.53a2.76,2.76,0,0,1-.9-2.14A3.14,3.14,0,0,1,3,3.47,3.88,3.88,0,0,1,4.59,2.19a5.35,5.35,0,0,1,2.27-.46,5.38,5.38,0,0,1,2.25.45,3.9,3.9,0,0,1,1.55,1.23,3,3,0,0,1,.62,1.77Zm5.53,6.24,0-1.87h.31l4.29-4.37h1.87L17.13,9.81H17ZM13.86,15V1.91h1.51V15Zm6.24,0-3.84-4.86,1.08-1.05L22,15Zm3.55,0V5.18h1.51V15Zm.77-11.45a1.06,1.06,0,0,1-.76-.3,1,1,0,0,1-.32-.73,1,1,0,0,1,.32-.72,1.1,1.1,0,0,1,1.51,0,1,1,0,0,1,.32.72,1,1,0,0,1-.32.73A1.05,1.05,0,0,1,24.42,3.55Zm5-1.64V15H27.92V1.91Zm4.27,0V15H32.19V1.91Z"/><path class="cls-3" d="M38,9.09V15H36.46V5.18h1.46V6.72h.13A2.85,2.85,0,0,1,39.1,5.51a3.3,3.3,0,0,1,1.81-.46,3.62,3.62,0,0,1,1.75.41,2.77,2.77,0,0,1,1.16,1.23,4.54,4.54,0,0,1,.42,2.07V15H42.73V8.86a2.54,2.54,0,0,0-.6-1.8,2.15,2.15,0,0,0-1.65-.65,2.62,2.62,0,0,0-1.29.31,2.26,2.26,0,0,0-.89.92A3,3,0,0,0,38,9.09ZM51.11,15.2a4.6,4.6,0,0,1-2.45-.62,4.18,4.18,0,0,1-1.58-1.77,6.07,6.07,0,0,1-.55-2.64,6.19,6.19,0,0,1,.55-2.66,4.34,4.34,0,0,1,1.55-1.8A4.13,4.13,0,0,1,51,5.05a4.66,4.66,0,0,1,1.51.26,3.78,3.78,0,0,1,1.36.83,3.92,3.92,0,0,1,1,1.51A6.5,6.5,0,0,1,55.18,10v.64H47.61V9.3h6a3.19,3.19,0,0,0-.33-1.48,2.51,2.51,0,0,0-.93-1A2.56,2.56,0,0,0,51,6.41a2.7,2.7,0,0,0-1.56.45,2.88,2.88,0,0,0-1,1.15A3.43,3.43,0,0,0,48,9.53v.87a4.12,4.12,0,0,0,.39,1.88,2.79,2.79,0,0,0,1.08,1.17,3.09,3.09,0,0,0,1.6.4,3.25,3.25,0,0,0,1.07-.17,2.11,2.11,0,0,0,.84-.51,2.14,2.14,0,0,0,.54-.85l1.46.4A3.23,3.23,0,0,1,54.25,14a3.79,3.79,0,0,1-1.34.87A5.11,5.11,0,0,1,51.11,15.2Zm10.63-10V6.46H56.65V5.18Zm-3.6-2.35h1.5v9.36a2,2,0,0,0,.19,1,1,1,0,0,0,.48.42,2,2,0,0,0,.64.1,2.37,2.37,0,0,0,.41,0l.25-.05L61.92,15a2.19,2.19,0,0,1-.43.11,2.7,2.7,0,0,1-.7.07,3,3,0,0,1-1.25-.28,2.53,2.53,0,0,1-1-.83,2.45,2.45,0,0,1-.39-1.42Z"/><path d="M1.5,22,.26,17.91H.92L1.8,21h0l.88-3.13h.67L4.25,21h0l.89-3.12h.66L4.59,22H4l-.89-3.14H3L2.12,22Zm6.8.09a1.85,1.85,0,0,1-1-.27,1.67,1.67,0,0,1-.66-.73A2.54,2.54,0,0,1,6.39,20a2.59,2.59,0,0,1,.23-1.11,1.81,1.81,0,0,1,.64-.75,1.75,1.75,0,0,1,1-.27,1.89,1.89,0,0,1,.63.1,1.55,1.55,0,0,1,.57.35,1.68,1.68,0,0,1,.41.63,2.69,2.69,0,0,1,.15,1v.27H6.84v-.55H9.35A1.22,1.22,0,0,0,9.21,19a1.06,1.06,0,0,0-1-.59,1.11,1.11,0,0,0-.65.19,1.13,1.13,0,0,0-.41.48,1.33,1.33,0,0,0-.15.63v.36a1.74,1.74,0,0,0,.16.79,1.25,1.25,0,0,0,.45.49,1.3,1.3,0,0,0,.67.16,1.33,1.33,0,0,0,.45-.07.93.93,0,0,0,.57-.57l.61.17a1.45,1.45,0,0,1-.32.55,1.8,1.8,0,0,1-.56.36A2.27,2.27,0,0,1,8.3,22.09ZM11.09,22V16.55h.62v2h.06c0-.07.11-.16.19-.27a1.11,1.11,0,0,1,.36-.3,1.23,1.23,0,0,1,.63-.13,1.64,1.64,0,0,1,.91.25,1.81,1.81,0,0,1,.62.74A2.73,2.73,0,0,1,14.7,20a2.76,2.76,0,0,1-.22,1.12,1.81,1.81,0,0,1-.62.74,1.61,1.61,0,0,1-.9.26,1.28,1.28,0,0,1-.63-.14,1,1,0,0,1-.37-.3,2.33,2.33,0,0,1-.19-.28h-.08V22ZM11.7,20a2.27,2.27,0,0,0,.14.82,1.15,1.15,0,0,0,.4.55,1,1,0,0,0,.64.2,1,1,0,0,0,.65-.21,1.28,1.28,0,0,0,.4-.56,2.24,2.24,0,0,0,.14-.8,2.34,2.34,0,0,0-.13-.77,1.15,1.15,0,0,0-.4-.55,1,1,0,0,0-.66-.21,1.11,1.11,0,0,0-.65.19,1.22,1.22,0,0,0-.39.54A2.2,2.2,0,0,0,11.7,20Zm7.72,2.14a1.67,1.67,0,0,1-.91-.26,1.79,1.79,0,0,1-.61-.74A2.6,2.6,0,0,1,17.68,20a2.57,2.57,0,0,1,.22-1.12,1.74,1.74,0,0,1,.62-.74,1.61,1.61,0,0,1,.91-.25,1.28,1.28,0,0,1,.63.13,1.22,1.22,0,0,1,.36.3l.19.27h.05v-2h.63V22h-.6v-.63h-.08a2.59,2.59,0,0,1-.2.28.91.91,0,0,1-.36.3A1.28,1.28,0,0,1,19.42,22.09Zm.08-.57a1,1,0,0,0,.64-.2,1.15,1.15,0,0,0,.4-.55,2.28,2.28,0,0,0,.13-.82,2.2,2.2,0,0,0-.13-.8,1.22,1.22,0,0,0-.39-.54,1.13,1.13,0,0,0-.65-.19,1,1,0,0,0-.66.21,1.15,1.15,0,0,0-.4.55,2.11,2.11,0,0,0-.13.77,2.24,2.24,0,0,0,.13.8,1.37,1.37,0,0,0,.4.56A1,1,0,0,0,19.5,21.52Zm4.8.57a1.85,1.85,0,0,1-1-.27,1.73,1.73,0,0,1-.66-.73,2.54,2.54,0,0,1-.23-1.1,2.59,2.59,0,0,1,.23-1.11,1.83,1.83,0,0,1,.65-.75,1.71,1.71,0,0,1,1-.27,2,2,0,0,1,.64.1,1.59,1.59,0,0,1,.56.35,1.68,1.68,0,0,1,.41.63,2.69,2.69,0,0,1,.15,1v.27H22.84v-.55h2.51a1.22,1.22,0,0,0-.14-.61,1.06,1.06,0,0,0-.38-.43,1.08,1.08,0,0,0-.6-.16,1.11,1.11,0,0,0-.65.19,1.13,1.13,0,0,0-.41.48,1.33,1.33,0,0,0-.15.63v.36a1.74,1.74,0,0,0,.16.79,1.25,1.25,0,0,0,.45.49,1.3,1.3,0,0,0,.67.16,1.33,1.33,0,0,0,.45-.07.93.93,0,0,0,.57-.57l.61.17a1.45,1.45,0,0,1-.32.55,1.69,1.69,0,0,1-.56.36A2.18,2.18,0,0,1,24.3,22.09Zm5.92-4.18L28.71,22h-.64l-1.51-4.09h.68l1.13,3.26h0l1.13-3.26Zm2.45,4.18a1.89,1.89,0,0,1-1-.27,1.8,1.8,0,0,1-.66-.73,2.54,2.54,0,0,1-.22-1.1A2.59,2.59,0,0,1,31,18.88a1.83,1.83,0,0,1,.65-.75,1.75,1.75,0,0,1,1-.27,2,2,0,0,1,.63.1,1.55,1.55,0,0,1,.57.35,1.66,1.66,0,0,1,.4.63,2.47,2.47,0,0,1,.16,1v.27H31.21v-.55h2.52a1.34,1.34,0,0,0-.14-.61,1,1,0,0,0-.39-.43,1,1,0,0,0-.59-.16,1.08,1.08,0,0,0-.65.19,1.22,1.22,0,0,0-.42.48,1.33,1.33,0,0,0-.15.63v.36a1.88,1.88,0,0,0,.16.79,1.25,1.25,0,0,0,.45.49,1.35,1.35,0,0,0,.67.16,1.25,1.25,0,0,0,.45-.07,1,1,0,0,0,.35-.21,1.11,1.11,0,0,0,.23-.36l.6.17a1.33,1.33,0,0,1-.32.55,1.69,1.69,0,0,1-.56.36A2.18,2.18,0,0,1,32.67,22.09ZM36,16.55V22h-.62V16.55Zm2.87,5.54a1.75,1.75,0,0,1-1-.27,1.68,1.68,0,0,1-.65-.74A2.38,2.38,0,0,1,37,20a2.46,2.46,0,0,1,.23-1.12,1.85,1.85,0,0,1,2.59-.74,1.8,1.8,0,0,1,.65.74A2.46,2.46,0,0,1,40.72,20a2.38,2.38,0,0,1-.23,1.1,1.75,1.75,0,0,1-1.62,1Zm0-.57a1,1,0,0,0,.69-.22,1.21,1.21,0,0,0,.4-.56,2.32,2.32,0,0,0,0-1.53,1.23,1.23,0,0,0-.4-.57,1.19,1.19,0,0,0-1.38,0,1.33,1.33,0,0,0-.41.57,2.32,2.32,0,0,0,0,1.53,1.3,1.3,0,0,0,.41.56A1,1,0,0,0,38.87,21.52Zm2.87,2V17.91h.6v.65h.08c0-.07.11-.16.19-.27A1.11,1.11,0,0,1,43,18a1.23,1.23,0,0,1,.63-.13,1.64,1.64,0,0,1,.91.25,1.81,1.81,0,0,1,.62.74A2.73,2.73,0,0,1,45.35,20a2.76,2.76,0,0,1-.22,1.12,1.81,1.81,0,0,1-.62.74,1.61,1.61,0,0,1-.9.26A1.28,1.28,0,0,1,43,22a1,1,0,0,1-.37-.3,2.33,2.33,0,0,1-.19-.28h-.06v2.16ZM42.35,20a2.27,2.27,0,0,0,.14.82,1.15,1.15,0,0,0,.4.55,1.12,1.12,0,0,0,1.29,0,1.28,1.28,0,0,0,.4-.56,2.24,2.24,0,0,0,.14-.8,2.11,2.11,0,0,0-.14-.77,1.07,1.07,0,0,0-.39-.55,1.05,1.05,0,0,0-.67-.21,1.1,1.1,0,0,0-.64.19,1.15,1.15,0,0,0-.39.54A2.2,2.2,0,0,0,42.35,20Zm4,2.05V17.91H47v.64H47a1,1,0,0,1,.41-.51,1.27,1.27,0,0,1,.69-.18,1.11,1.11,0,0,1,1.09.69h0a1.21,1.21,0,0,1,.47-.51,1.49,1.49,0,0,1,.75-.18,1.21,1.21,0,0,1,.9.34,1.44,1.44,0,0,1,.35,1.06V22H51.1V19.26a.77.77,0,0,0-.25-.65,1,1,0,0,0-.58-.19.87.87,0,0,0-.67.26.92.92,0,0,0-.24.66V22h-.64V19.2a.73.73,0,0,0-.22-.56.8.8,0,0,0-.59-.22.81.81,0,0,0-.45.13,1,1,0,0,0-.35.36,1.15,1.15,0,0,0-.12.53V22Zm8.28.09a1.89,1.89,0,0,1-1-.27,1.71,1.71,0,0,1-.65-.73,2.41,2.41,0,0,1-.23-1.1A2.45,2.45,0,0,1,53,18.88a1.81,1.81,0,0,1,.64-.75,1.75,1.75,0,0,1,1-.27,2,2,0,0,1,.63.1,1.55,1.55,0,0,1,.57.35,1.81,1.81,0,0,1,.41.63,2.69,2.69,0,0,1,.15,1v.27H53.18v-.55H55.7a1.34,1.34,0,0,0-.14-.61,1,1,0,0,0-.39-.43,1,1,0,0,0-.59-.16,1.08,1.08,0,0,0-.65.19,1.22,1.22,0,0,0-.42.48,1.33,1.33,0,0,0-.14.63v.36a1.74,1.74,0,0,0,.16.79,1.12,1.12,0,0,0,.45.49,1.29,1.29,0,0,0,.66.16,1.25,1.25,0,0,0,.45-.07,1,1,0,0,0,.35-.21,1.11,1.11,0,0,0,.23-.36l.6.17a1.33,1.33,0,0,1-.32.55,1.69,1.69,0,0,1-.56.36A2.18,2.18,0,0,1,54.64,22.09ZM58,19.54V22h-.63V17.91H58v.64H58a1.1,1.1,0,0,1,.43-.5,1.36,1.36,0,0,1,.76-.19,1.43,1.43,0,0,1,.73.17,1.08,1.08,0,0,1,.48.51,1.8,1.8,0,0,1,.18.86V22H60V19.44a1.09,1.09,0,0,0-.25-.75.9.9,0,0,0-.69-.27,1.08,1.08,0,0,0-.54.13,1,1,0,0,0-.37.38A1.28,1.28,0,0,0,58,19.54Zm5.59-1.63v.53H61.45v-.53Zm-1.51-1h.63v3.9a.83.83,0,0,0,.08.4.41.41,0,0,0,.2.17.81.81,0,0,0,.27.05h.17l.1,0,.13.57-.18.05-.29,0a1.19,1.19,0,0,1-.52-.11,1,1,0,0,1-.42-.35,1,1,0,0,1-.17-.59Z"/></g></g></svg>